G75*
%MOIN*%
%OFA0B0*%
%FSLAX25Y25*%
%IPPOS*%
%LPD*%
%AMOC8*
5,1,8,0,0,1.08239X$1,22.5*
%
%ADD10C,0.06000*%
%ADD11C,0.07600*%
%ADD12C,0.10800*%
%ADD13C,0.01600*%
D10*
X0131610Y0018899D02*
X0131610Y0024899D01*
X0149410Y0024899D02*
X0149410Y0018899D01*
X0165390Y0018899D02*
X0165390Y0024899D01*
X0183190Y0024899D02*
X0183190Y0018899D01*
X0199169Y0018899D02*
X0199169Y0024899D01*
X0216969Y0024899D02*
X0216969Y0018899D01*
X0232949Y0018899D02*
X0232949Y0024899D01*
X0250749Y0024899D02*
X0250749Y0018899D01*
X0250749Y0044499D02*
X0250749Y0050499D01*
X0232949Y0050499D02*
X0232949Y0044499D01*
X0216969Y0044499D02*
X0216969Y0050499D01*
X0199169Y0050499D02*
X0199169Y0044499D01*
X0183190Y0044499D02*
X0183190Y0050499D01*
X0165390Y0050499D02*
X0165390Y0044499D01*
X0149410Y0044499D02*
X0149410Y0050499D01*
X0131610Y0050499D02*
X0131610Y0044499D01*
X0355778Y0134069D02*
X0361778Y0134069D01*
X0361778Y0144069D02*
X0355778Y0144069D01*
X0355778Y0154069D02*
X0361778Y0154069D01*
X0361778Y0164069D02*
X0355778Y0164069D01*
D11*
X0178817Y0186510D03*
X0168817Y0186510D03*
X0158817Y0186510D03*
X0148817Y0186510D03*
X0138817Y0186510D03*
X0128817Y0186510D03*
X0118817Y0186510D03*
X0108817Y0186510D03*
X0098817Y0186510D03*
X0088817Y0186510D03*
X0078817Y0186510D03*
X0068817Y0186510D03*
X0058817Y0186510D03*
X0048817Y0186510D03*
X0038817Y0186510D03*
X0038817Y0096510D03*
X0048817Y0096510D03*
X0058817Y0096510D03*
X0068817Y0096510D03*
X0078817Y0096510D03*
X0088817Y0096510D03*
X0098817Y0096510D03*
X0108817Y0096510D03*
X0118817Y0096510D03*
X0128817Y0096510D03*
X0138817Y0096510D03*
X0148817Y0096510D03*
X0158817Y0096510D03*
X0168817Y0096510D03*
X0178817Y0096510D03*
D12*
X0096085Y0051935D03*
X0069518Y0041935D03*
X0096085Y0031935D03*
X0284116Y0031857D03*
X0310683Y0041857D03*
X0284116Y0051857D03*
D13*
X0310683Y0011447D02*
X0048431Y0011447D01*
X0048431Y0074447D01*
X0032431Y0074447D01*
X0032431Y0138447D01*
X0038431Y0138447D01*
X0038431Y0186510D01*
X0038817Y0186510D01*
X0128817Y0164069D02*
X0128817Y0096510D01*
X0138431Y0096510D02*
X0138431Y0073447D01*
X0216969Y0073447D01*
X0216969Y0047499D01*
X0216969Y0021847D01*
X0217531Y0021847D01*
X0217531Y0021899D01*
X0216969Y0021899D01*
X0184031Y0021899D02*
X0184031Y0022047D01*
X0183190Y0022047D01*
X0183190Y0047499D01*
X0183190Y0070447D01*
X0068431Y0070447D01*
X0068431Y0096510D01*
X0068817Y0096510D01*
X0059431Y0096510D02*
X0059431Y0067447D01*
X0149410Y0067447D01*
X0149410Y0047499D01*
X0149410Y0045447D01*
X0149410Y0021847D01*
X0149931Y0021847D01*
X0149931Y0021899D01*
X0149410Y0021899D01*
X0183190Y0021899D02*
X0184031Y0021899D01*
X0250731Y0021899D02*
X0250731Y0021847D01*
X0250749Y0021847D01*
X0250749Y0047499D01*
X0250749Y0076447D01*
X0148431Y0076447D01*
X0148431Y0096510D01*
X0148817Y0096510D01*
X0158431Y0096510D02*
X0158431Y0079447D01*
X0358778Y0079447D01*
X0358778Y0134069D01*
X0358778Y0144069D02*
X0168817Y0144069D01*
X0168817Y0096510D01*
X0158817Y0096510D02*
X0158431Y0096510D01*
X0138817Y0096510D02*
X0138431Y0096510D01*
X0059431Y0096510D02*
X0058817Y0096510D01*
X0128817Y0164069D02*
X0358778Y0164069D01*
X0310683Y0041857D02*
X0310683Y0011447D01*
X0250749Y0021899D02*
X0250731Y0021899D01*
M02*
