%
M48
M72
T01C0.03150
T02C0.04000
T03C0.07200
T04C0.12598
%
T01
X38817Y96510
X48817Y96510
X58817Y96510
X68817Y96510
X78817Y96510
X88817Y96510
X98817Y96510
X108817Y96510
X118817Y96510
X128817Y96510
X138817Y96510
X148817Y96510
X158817Y96510
X168817Y96510
X178817Y96510
X178817Y186510
X168817Y186510
X158817Y186510
X148817Y186510
X138817Y186510
X128817Y186510
X118817Y186510
X108817Y186510
X98817Y186510
X88817Y186510
X78817Y186510
X68817Y186510
X58817Y186510
X48817Y186510
X38817Y186510
T02
X358778Y164069
X358778Y154069
X358778Y144069
X358778Y134069
X250749Y47499
X232949Y47499
X216969Y47499
X199169Y47499
X183190Y47499
X165390Y47499
X149410Y47499
X131610Y47499
X131610Y21899
X149410Y21899
X165390Y21899
X183190Y21899
X199169Y21899
X216969Y21899
X232949Y21899
X250749Y21899
T03
X96085Y31935
X69518Y41935
X96085Y51935
X284116Y51857
X310683Y41857
X284116Y31857
T04
X193817Y101510
X23817Y101510
X23817Y181510
X193817Y181510
X645431Y170447
M30
