G75*
%MOIN*%
%OFA0B0*%
%FSLAX25Y25*%
%IPPOS*%
%LPD*%
%AMOC8*
5,1,8,0,0,1.08239X$1,22.5*
%
%ADD10C,0.00004*%
%ADD11C,0.00000*%
%ADD12C,0.06000*%
%ADD13C,0.07600*%
%ADD14C,0.10800*%
%ADD15C,0.01600*%
%ADD16C,0.03200*%
D10*
X0011846Y0013466D02*
X0031543Y0010503D01*
X0051860Y0008103D01*
X0072852Y0006185D01*
X0094574Y0004668D01*
X0117080Y0003472D01*
X0140427Y0002516D01*
X0164669Y0001720D01*
X0189861Y0001002D01*
X0212030Y0001298D01*
X0234150Y0001754D01*
X0256205Y0002429D01*
X0278174Y0003386D01*
X0300040Y0004685D01*
X0321784Y0006388D01*
X0343387Y0008557D01*
X0364832Y0011252D01*
X0369506Y0011971D01*
X0373614Y0012818D01*
X0377136Y0013906D01*
X0380047Y0015348D01*
X0382328Y0017258D01*
X0383954Y0019747D01*
X0384906Y0022929D01*
X0385159Y0026918D01*
X0385159Y0129287D01*
X0385099Y0130998D01*
X0384904Y0133242D01*
X0384785Y0135721D01*
X0384951Y0138135D01*
X0385610Y0140186D01*
X0386973Y0141574D01*
X0389248Y0141999D01*
X0392646Y0141164D01*
X0407677Y0137147D01*
X0422037Y0133806D01*
X0435760Y0131108D01*
X0448881Y0129019D01*
X0461435Y0127503D01*
X0473457Y0126528D01*
X0484982Y0126058D01*
X0496044Y0126060D01*
X0506679Y0126499D01*
X0516922Y0127341D01*
X0526807Y0128553D01*
X0536369Y0130098D01*
X0545643Y0131945D01*
X0554664Y0134058D01*
X0563466Y0136403D01*
X0572086Y0138946D01*
X0578498Y0141219D01*
X0584108Y0142735D01*
X0589012Y0143578D01*
X0593307Y0143832D01*
X0597089Y0143583D01*
X0600454Y0142913D01*
X0603500Y0141908D01*
X0606321Y0140653D01*
X0609014Y0139231D01*
X0611676Y0137727D01*
X0614403Y0136226D01*
X0617292Y0134811D01*
X0620438Y0133568D01*
X0623938Y0132580D01*
X0627889Y0131933D01*
X0632386Y0131710D01*
X0635234Y0131704D01*
X0638219Y0132085D01*
X0641296Y0132840D01*
X0644419Y0133952D01*
X0647544Y0135405D01*
X0650626Y0137185D01*
X0653619Y0139275D01*
X0656479Y0141660D01*
X0659161Y0144324D01*
X0661619Y0147253D01*
X0663809Y0150429D01*
X0665686Y0153838D01*
X0667205Y0157464D01*
X0668320Y0161292D01*
X0668987Y0165305D01*
X0669161Y0169489D01*
X0669067Y0173106D01*
X0668728Y0176600D01*
X0668105Y0179958D01*
X0667162Y0183168D01*
X0665859Y0186215D01*
X0664158Y0189089D01*
X0662022Y0191775D01*
X0659413Y0194260D01*
X0656292Y0196533D01*
X0652622Y0198579D01*
X0648364Y0200387D01*
X0643481Y0201944D01*
X0637934Y0203235D01*
X0631685Y0204249D01*
X0624696Y0204973D01*
X0616930Y0205394D01*
X0019959Y0205394D01*
X0016433Y0204726D01*
X0012975Y0203099D01*
X0009716Y0200551D01*
X0006788Y0197124D01*
X0004321Y0192857D01*
X0002447Y0187790D01*
X0001297Y0181964D01*
X0001002Y0175419D01*
X0001002Y0029028D01*
X0001191Y0026999D01*
X0001546Y0024824D01*
X0002150Y0022588D01*
X0003087Y0020375D01*
X0004441Y0018271D01*
X0006297Y0016361D01*
X0008737Y0014731D01*
X0011846Y0013466D01*
D11*
X0005518Y0033510D02*
X0005520Y0033668D01*
X0005526Y0033826D01*
X0005536Y0033984D01*
X0005550Y0034142D01*
X0005568Y0034299D01*
X0005589Y0034456D01*
X0005615Y0034612D01*
X0005645Y0034768D01*
X0005678Y0034923D01*
X0005716Y0035076D01*
X0005757Y0035229D01*
X0005802Y0035381D01*
X0005851Y0035532D01*
X0005904Y0035681D01*
X0005960Y0035829D01*
X0006020Y0035975D01*
X0006084Y0036120D01*
X0006152Y0036263D01*
X0006223Y0036405D01*
X0006297Y0036545D01*
X0006375Y0036682D01*
X0006457Y0036818D01*
X0006541Y0036952D01*
X0006630Y0037083D01*
X0006721Y0037212D01*
X0006816Y0037339D01*
X0006913Y0037464D01*
X0007014Y0037586D01*
X0007118Y0037705D01*
X0007225Y0037822D01*
X0007335Y0037936D01*
X0007448Y0038047D01*
X0007563Y0038156D01*
X0007681Y0038261D01*
X0007802Y0038363D01*
X0007925Y0038463D01*
X0008051Y0038559D01*
X0008179Y0038652D01*
X0008309Y0038742D01*
X0008442Y0038828D01*
X0008577Y0038912D01*
X0008713Y0038991D01*
X0008852Y0039068D01*
X0008993Y0039140D01*
X0009135Y0039210D01*
X0009279Y0039275D01*
X0009425Y0039337D01*
X0009572Y0039395D01*
X0009721Y0039450D01*
X0009871Y0039501D01*
X0010022Y0039548D01*
X0010174Y0039591D01*
X0010327Y0039630D01*
X0010482Y0039666D01*
X0010637Y0039697D01*
X0010793Y0039725D01*
X0010949Y0039749D01*
X0011106Y0039769D01*
X0011264Y0039785D01*
X0011421Y0039797D01*
X0011580Y0039805D01*
X0011738Y0039809D01*
X0011896Y0039809D01*
X0012054Y0039805D01*
X0012213Y0039797D01*
X0012370Y0039785D01*
X0012528Y0039769D01*
X0012685Y0039749D01*
X0012841Y0039725D01*
X0012997Y0039697D01*
X0013152Y0039666D01*
X0013307Y0039630D01*
X0013460Y0039591D01*
X0013612Y0039548D01*
X0013763Y0039501D01*
X0013913Y0039450D01*
X0014062Y0039395D01*
X0014209Y0039337D01*
X0014355Y0039275D01*
X0014499Y0039210D01*
X0014641Y0039140D01*
X0014782Y0039068D01*
X0014921Y0038991D01*
X0015057Y0038912D01*
X0015192Y0038828D01*
X0015325Y0038742D01*
X0015455Y0038652D01*
X0015583Y0038559D01*
X0015709Y0038463D01*
X0015832Y0038363D01*
X0015953Y0038261D01*
X0016071Y0038156D01*
X0016186Y0038047D01*
X0016299Y0037936D01*
X0016409Y0037822D01*
X0016516Y0037705D01*
X0016620Y0037586D01*
X0016721Y0037464D01*
X0016818Y0037339D01*
X0016913Y0037212D01*
X0017004Y0037083D01*
X0017093Y0036952D01*
X0017177Y0036818D01*
X0017259Y0036682D01*
X0017337Y0036545D01*
X0017411Y0036405D01*
X0017482Y0036263D01*
X0017550Y0036120D01*
X0017614Y0035975D01*
X0017674Y0035829D01*
X0017730Y0035681D01*
X0017783Y0035532D01*
X0017832Y0035381D01*
X0017877Y0035229D01*
X0017918Y0035076D01*
X0017956Y0034923D01*
X0017989Y0034768D01*
X0018019Y0034612D01*
X0018045Y0034456D01*
X0018066Y0034299D01*
X0018084Y0034142D01*
X0018098Y0033984D01*
X0018108Y0033826D01*
X0018114Y0033668D01*
X0018116Y0033510D01*
X0018114Y0033352D01*
X0018108Y0033194D01*
X0018098Y0033036D01*
X0018084Y0032878D01*
X0018066Y0032721D01*
X0018045Y0032564D01*
X0018019Y0032408D01*
X0017989Y0032252D01*
X0017956Y0032097D01*
X0017918Y0031944D01*
X0017877Y0031791D01*
X0017832Y0031639D01*
X0017783Y0031488D01*
X0017730Y0031339D01*
X0017674Y0031191D01*
X0017614Y0031045D01*
X0017550Y0030900D01*
X0017482Y0030757D01*
X0017411Y0030615D01*
X0017337Y0030475D01*
X0017259Y0030338D01*
X0017177Y0030202D01*
X0017093Y0030068D01*
X0017004Y0029937D01*
X0016913Y0029808D01*
X0016818Y0029681D01*
X0016721Y0029556D01*
X0016620Y0029434D01*
X0016516Y0029315D01*
X0016409Y0029198D01*
X0016299Y0029084D01*
X0016186Y0028973D01*
X0016071Y0028864D01*
X0015953Y0028759D01*
X0015832Y0028657D01*
X0015709Y0028557D01*
X0015583Y0028461D01*
X0015455Y0028368D01*
X0015325Y0028278D01*
X0015192Y0028192D01*
X0015057Y0028108D01*
X0014921Y0028029D01*
X0014782Y0027952D01*
X0014641Y0027880D01*
X0014499Y0027810D01*
X0014355Y0027745D01*
X0014209Y0027683D01*
X0014062Y0027625D01*
X0013913Y0027570D01*
X0013763Y0027519D01*
X0013612Y0027472D01*
X0013460Y0027429D01*
X0013307Y0027390D01*
X0013152Y0027354D01*
X0012997Y0027323D01*
X0012841Y0027295D01*
X0012685Y0027271D01*
X0012528Y0027251D01*
X0012370Y0027235D01*
X0012213Y0027223D01*
X0012054Y0027215D01*
X0011896Y0027211D01*
X0011738Y0027211D01*
X0011580Y0027215D01*
X0011421Y0027223D01*
X0011264Y0027235D01*
X0011106Y0027251D01*
X0010949Y0027271D01*
X0010793Y0027295D01*
X0010637Y0027323D01*
X0010482Y0027354D01*
X0010327Y0027390D01*
X0010174Y0027429D01*
X0010022Y0027472D01*
X0009871Y0027519D01*
X0009721Y0027570D01*
X0009572Y0027625D01*
X0009425Y0027683D01*
X0009279Y0027745D01*
X0009135Y0027810D01*
X0008993Y0027880D01*
X0008852Y0027952D01*
X0008713Y0028029D01*
X0008577Y0028108D01*
X0008442Y0028192D01*
X0008309Y0028278D01*
X0008179Y0028368D01*
X0008051Y0028461D01*
X0007925Y0028557D01*
X0007802Y0028657D01*
X0007681Y0028759D01*
X0007563Y0028864D01*
X0007448Y0028973D01*
X0007335Y0029084D01*
X0007225Y0029198D01*
X0007118Y0029315D01*
X0007014Y0029434D01*
X0006913Y0029556D01*
X0006816Y0029681D01*
X0006721Y0029808D01*
X0006630Y0029937D01*
X0006541Y0030068D01*
X0006457Y0030202D01*
X0006375Y0030338D01*
X0006297Y0030475D01*
X0006223Y0030615D01*
X0006152Y0030757D01*
X0006084Y0030900D01*
X0006020Y0031045D01*
X0005960Y0031191D01*
X0005904Y0031339D01*
X0005851Y0031488D01*
X0005802Y0031639D01*
X0005757Y0031791D01*
X0005716Y0031944D01*
X0005678Y0032097D01*
X0005645Y0032252D01*
X0005615Y0032408D01*
X0005589Y0032564D01*
X0005568Y0032721D01*
X0005550Y0032878D01*
X0005536Y0033036D01*
X0005526Y0033194D01*
X0005520Y0033352D01*
X0005518Y0033510D01*
X0175518Y0033510D02*
X0175520Y0033668D01*
X0175526Y0033826D01*
X0175536Y0033984D01*
X0175550Y0034142D01*
X0175568Y0034299D01*
X0175589Y0034456D01*
X0175615Y0034612D01*
X0175645Y0034768D01*
X0175678Y0034923D01*
X0175716Y0035076D01*
X0175757Y0035229D01*
X0175802Y0035381D01*
X0175851Y0035532D01*
X0175904Y0035681D01*
X0175960Y0035829D01*
X0176020Y0035975D01*
X0176084Y0036120D01*
X0176152Y0036263D01*
X0176223Y0036405D01*
X0176297Y0036545D01*
X0176375Y0036682D01*
X0176457Y0036818D01*
X0176541Y0036952D01*
X0176630Y0037083D01*
X0176721Y0037212D01*
X0176816Y0037339D01*
X0176913Y0037464D01*
X0177014Y0037586D01*
X0177118Y0037705D01*
X0177225Y0037822D01*
X0177335Y0037936D01*
X0177448Y0038047D01*
X0177563Y0038156D01*
X0177681Y0038261D01*
X0177802Y0038363D01*
X0177925Y0038463D01*
X0178051Y0038559D01*
X0178179Y0038652D01*
X0178309Y0038742D01*
X0178442Y0038828D01*
X0178577Y0038912D01*
X0178713Y0038991D01*
X0178852Y0039068D01*
X0178993Y0039140D01*
X0179135Y0039210D01*
X0179279Y0039275D01*
X0179425Y0039337D01*
X0179572Y0039395D01*
X0179721Y0039450D01*
X0179871Y0039501D01*
X0180022Y0039548D01*
X0180174Y0039591D01*
X0180327Y0039630D01*
X0180482Y0039666D01*
X0180637Y0039697D01*
X0180793Y0039725D01*
X0180949Y0039749D01*
X0181106Y0039769D01*
X0181264Y0039785D01*
X0181421Y0039797D01*
X0181580Y0039805D01*
X0181738Y0039809D01*
X0181896Y0039809D01*
X0182054Y0039805D01*
X0182213Y0039797D01*
X0182370Y0039785D01*
X0182528Y0039769D01*
X0182685Y0039749D01*
X0182841Y0039725D01*
X0182997Y0039697D01*
X0183152Y0039666D01*
X0183307Y0039630D01*
X0183460Y0039591D01*
X0183612Y0039548D01*
X0183763Y0039501D01*
X0183913Y0039450D01*
X0184062Y0039395D01*
X0184209Y0039337D01*
X0184355Y0039275D01*
X0184499Y0039210D01*
X0184641Y0039140D01*
X0184782Y0039068D01*
X0184921Y0038991D01*
X0185057Y0038912D01*
X0185192Y0038828D01*
X0185325Y0038742D01*
X0185455Y0038652D01*
X0185583Y0038559D01*
X0185709Y0038463D01*
X0185832Y0038363D01*
X0185953Y0038261D01*
X0186071Y0038156D01*
X0186186Y0038047D01*
X0186299Y0037936D01*
X0186409Y0037822D01*
X0186516Y0037705D01*
X0186620Y0037586D01*
X0186721Y0037464D01*
X0186818Y0037339D01*
X0186913Y0037212D01*
X0187004Y0037083D01*
X0187093Y0036952D01*
X0187177Y0036818D01*
X0187259Y0036682D01*
X0187337Y0036545D01*
X0187411Y0036405D01*
X0187482Y0036263D01*
X0187550Y0036120D01*
X0187614Y0035975D01*
X0187674Y0035829D01*
X0187730Y0035681D01*
X0187783Y0035532D01*
X0187832Y0035381D01*
X0187877Y0035229D01*
X0187918Y0035076D01*
X0187956Y0034923D01*
X0187989Y0034768D01*
X0188019Y0034612D01*
X0188045Y0034456D01*
X0188066Y0034299D01*
X0188084Y0034142D01*
X0188098Y0033984D01*
X0188108Y0033826D01*
X0188114Y0033668D01*
X0188116Y0033510D01*
X0188114Y0033352D01*
X0188108Y0033194D01*
X0188098Y0033036D01*
X0188084Y0032878D01*
X0188066Y0032721D01*
X0188045Y0032564D01*
X0188019Y0032408D01*
X0187989Y0032252D01*
X0187956Y0032097D01*
X0187918Y0031944D01*
X0187877Y0031791D01*
X0187832Y0031639D01*
X0187783Y0031488D01*
X0187730Y0031339D01*
X0187674Y0031191D01*
X0187614Y0031045D01*
X0187550Y0030900D01*
X0187482Y0030757D01*
X0187411Y0030615D01*
X0187337Y0030475D01*
X0187259Y0030338D01*
X0187177Y0030202D01*
X0187093Y0030068D01*
X0187004Y0029937D01*
X0186913Y0029808D01*
X0186818Y0029681D01*
X0186721Y0029556D01*
X0186620Y0029434D01*
X0186516Y0029315D01*
X0186409Y0029198D01*
X0186299Y0029084D01*
X0186186Y0028973D01*
X0186071Y0028864D01*
X0185953Y0028759D01*
X0185832Y0028657D01*
X0185709Y0028557D01*
X0185583Y0028461D01*
X0185455Y0028368D01*
X0185325Y0028278D01*
X0185192Y0028192D01*
X0185057Y0028108D01*
X0184921Y0028029D01*
X0184782Y0027952D01*
X0184641Y0027880D01*
X0184499Y0027810D01*
X0184355Y0027745D01*
X0184209Y0027683D01*
X0184062Y0027625D01*
X0183913Y0027570D01*
X0183763Y0027519D01*
X0183612Y0027472D01*
X0183460Y0027429D01*
X0183307Y0027390D01*
X0183152Y0027354D01*
X0182997Y0027323D01*
X0182841Y0027295D01*
X0182685Y0027271D01*
X0182528Y0027251D01*
X0182370Y0027235D01*
X0182213Y0027223D01*
X0182054Y0027215D01*
X0181896Y0027211D01*
X0181738Y0027211D01*
X0181580Y0027215D01*
X0181421Y0027223D01*
X0181264Y0027235D01*
X0181106Y0027251D01*
X0180949Y0027271D01*
X0180793Y0027295D01*
X0180637Y0027323D01*
X0180482Y0027354D01*
X0180327Y0027390D01*
X0180174Y0027429D01*
X0180022Y0027472D01*
X0179871Y0027519D01*
X0179721Y0027570D01*
X0179572Y0027625D01*
X0179425Y0027683D01*
X0179279Y0027745D01*
X0179135Y0027810D01*
X0178993Y0027880D01*
X0178852Y0027952D01*
X0178713Y0028029D01*
X0178577Y0028108D01*
X0178442Y0028192D01*
X0178309Y0028278D01*
X0178179Y0028368D01*
X0178051Y0028461D01*
X0177925Y0028557D01*
X0177802Y0028657D01*
X0177681Y0028759D01*
X0177563Y0028864D01*
X0177448Y0028973D01*
X0177335Y0029084D01*
X0177225Y0029198D01*
X0177118Y0029315D01*
X0177014Y0029434D01*
X0176913Y0029556D01*
X0176816Y0029681D01*
X0176721Y0029808D01*
X0176630Y0029937D01*
X0176541Y0030068D01*
X0176457Y0030202D01*
X0176375Y0030338D01*
X0176297Y0030475D01*
X0176223Y0030615D01*
X0176152Y0030757D01*
X0176084Y0030900D01*
X0176020Y0031045D01*
X0175960Y0031191D01*
X0175904Y0031339D01*
X0175851Y0031488D01*
X0175802Y0031639D01*
X0175757Y0031791D01*
X0175716Y0031944D01*
X0175678Y0032097D01*
X0175645Y0032252D01*
X0175615Y0032408D01*
X0175589Y0032564D01*
X0175568Y0032721D01*
X0175550Y0032878D01*
X0175536Y0033036D01*
X0175526Y0033194D01*
X0175520Y0033352D01*
X0175518Y0033510D01*
X0175518Y0113510D02*
X0175520Y0113668D01*
X0175526Y0113826D01*
X0175536Y0113984D01*
X0175550Y0114142D01*
X0175568Y0114299D01*
X0175589Y0114456D01*
X0175615Y0114612D01*
X0175645Y0114768D01*
X0175678Y0114923D01*
X0175716Y0115076D01*
X0175757Y0115229D01*
X0175802Y0115381D01*
X0175851Y0115532D01*
X0175904Y0115681D01*
X0175960Y0115829D01*
X0176020Y0115975D01*
X0176084Y0116120D01*
X0176152Y0116263D01*
X0176223Y0116405D01*
X0176297Y0116545D01*
X0176375Y0116682D01*
X0176457Y0116818D01*
X0176541Y0116952D01*
X0176630Y0117083D01*
X0176721Y0117212D01*
X0176816Y0117339D01*
X0176913Y0117464D01*
X0177014Y0117586D01*
X0177118Y0117705D01*
X0177225Y0117822D01*
X0177335Y0117936D01*
X0177448Y0118047D01*
X0177563Y0118156D01*
X0177681Y0118261D01*
X0177802Y0118363D01*
X0177925Y0118463D01*
X0178051Y0118559D01*
X0178179Y0118652D01*
X0178309Y0118742D01*
X0178442Y0118828D01*
X0178577Y0118912D01*
X0178713Y0118991D01*
X0178852Y0119068D01*
X0178993Y0119140D01*
X0179135Y0119210D01*
X0179279Y0119275D01*
X0179425Y0119337D01*
X0179572Y0119395D01*
X0179721Y0119450D01*
X0179871Y0119501D01*
X0180022Y0119548D01*
X0180174Y0119591D01*
X0180327Y0119630D01*
X0180482Y0119666D01*
X0180637Y0119697D01*
X0180793Y0119725D01*
X0180949Y0119749D01*
X0181106Y0119769D01*
X0181264Y0119785D01*
X0181421Y0119797D01*
X0181580Y0119805D01*
X0181738Y0119809D01*
X0181896Y0119809D01*
X0182054Y0119805D01*
X0182213Y0119797D01*
X0182370Y0119785D01*
X0182528Y0119769D01*
X0182685Y0119749D01*
X0182841Y0119725D01*
X0182997Y0119697D01*
X0183152Y0119666D01*
X0183307Y0119630D01*
X0183460Y0119591D01*
X0183612Y0119548D01*
X0183763Y0119501D01*
X0183913Y0119450D01*
X0184062Y0119395D01*
X0184209Y0119337D01*
X0184355Y0119275D01*
X0184499Y0119210D01*
X0184641Y0119140D01*
X0184782Y0119068D01*
X0184921Y0118991D01*
X0185057Y0118912D01*
X0185192Y0118828D01*
X0185325Y0118742D01*
X0185455Y0118652D01*
X0185583Y0118559D01*
X0185709Y0118463D01*
X0185832Y0118363D01*
X0185953Y0118261D01*
X0186071Y0118156D01*
X0186186Y0118047D01*
X0186299Y0117936D01*
X0186409Y0117822D01*
X0186516Y0117705D01*
X0186620Y0117586D01*
X0186721Y0117464D01*
X0186818Y0117339D01*
X0186913Y0117212D01*
X0187004Y0117083D01*
X0187093Y0116952D01*
X0187177Y0116818D01*
X0187259Y0116682D01*
X0187337Y0116545D01*
X0187411Y0116405D01*
X0187482Y0116263D01*
X0187550Y0116120D01*
X0187614Y0115975D01*
X0187674Y0115829D01*
X0187730Y0115681D01*
X0187783Y0115532D01*
X0187832Y0115381D01*
X0187877Y0115229D01*
X0187918Y0115076D01*
X0187956Y0114923D01*
X0187989Y0114768D01*
X0188019Y0114612D01*
X0188045Y0114456D01*
X0188066Y0114299D01*
X0188084Y0114142D01*
X0188098Y0113984D01*
X0188108Y0113826D01*
X0188114Y0113668D01*
X0188116Y0113510D01*
X0188114Y0113352D01*
X0188108Y0113194D01*
X0188098Y0113036D01*
X0188084Y0112878D01*
X0188066Y0112721D01*
X0188045Y0112564D01*
X0188019Y0112408D01*
X0187989Y0112252D01*
X0187956Y0112097D01*
X0187918Y0111944D01*
X0187877Y0111791D01*
X0187832Y0111639D01*
X0187783Y0111488D01*
X0187730Y0111339D01*
X0187674Y0111191D01*
X0187614Y0111045D01*
X0187550Y0110900D01*
X0187482Y0110757D01*
X0187411Y0110615D01*
X0187337Y0110475D01*
X0187259Y0110338D01*
X0187177Y0110202D01*
X0187093Y0110068D01*
X0187004Y0109937D01*
X0186913Y0109808D01*
X0186818Y0109681D01*
X0186721Y0109556D01*
X0186620Y0109434D01*
X0186516Y0109315D01*
X0186409Y0109198D01*
X0186299Y0109084D01*
X0186186Y0108973D01*
X0186071Y0108864D01*
X0185953Y0108759D01*
X0185832Y0108657D01*
X0185709Y0108557D01*
X0185583Y0108461D01*
X0185455Y0108368D01*
X0185325Y0108278D01*
X0185192Y0108192D01*
X0185057Y0108108D01*
X0184921Y0108029D01*
X0184782Y0107952D01*
X0184641Y0107880D01*
X0184499Y0107810D01*
X0184355Y0107745D01*
X0184209Y0107683D01*
X0184062Y0107625D01*
X0183913Y0107570D01*
X0183763Y0107519D01*
X0183612Y0107472D01*
X0183460Y0107429D01*
X0183307Y0107390D01*
X0183152Y0107354D01*
X0182997Y0107323D01*
X0182841Y0107295D01*
X0182685Y0107271D01*
X0182528Y0107251D01*
X0182370Y0107235D01*
X0182213Y0107223D01*
X0182054Y0107215D01*
X0181896Y0107211D01*
X0181738Y0107211D01*
X0181580Y0107215D01*
X0181421Y0107223D01*
X0181264Y0107235D01*
X0181106Y0107251D01*
X0180949Y0107271D01*
X0180793Y0107295D01*
X0180637Y0107323D01*
X0180482Y0107354D01*
X0180327Y0107390D01*
X0180174Y0107429D01*
X0180022Y0107472D01*
X0179871Y0107519D01*
X0179721Y0107570D01*
X0179572Y0107625D01*
X0179425Y0107683D01*
X0179279Y0107745D01*
X0179135Y0107810D01*
X0178993Y0107880D01*
X0178852Y0107952D01*
X0178713Y0108029D01*
X0178577Y0108108D01*
X0178442Y0108192D01*
X0178309Y0108278D01*
X0178179Y0108368D01*
X0178051Y0108461D01*
X0177925Y0108557D01*
X0177802Y0108657D01*
X0177681Y0108759D01*
X0177563Y0108864D01*
X0177448Y0108973D01*
X0177335Y0109084D01*
X0177225Y0109198D01*
X0177118Y0109315D01*
X0177014Y0109434D01*
X0176913Y0109556D01*
X0176816Y0109681D01*
X0176721Y0109808D01*
X0176630Y0109937D01*
X0176541Y0110068D01*
X0176457Y0110202D01*
X0176375Y0110338D01*
X0176297Y0110475D01*
X0176223Y0110615D01*
X0176152Y0110757D01*
X0176084Y0110900D01*
X0176020Y0111045D01*
X0175960Y0111191D01*
X0175904Y0111339D01*
X0175851Y0111488D01*
X0175802Y0111639D01*
X0175757Y0111791D01*
X0175716Y0111944D01*
X0175678Y0112097D01*
X0175645Y0112252D01*
X0175615Y0112408D01*
X0175589Y0112564D01*
X0175568Y0112721D01*
X0175550Y0112878D01*
X0175536Y0113036D01*
X0175526Y0113194D01*
X0175520Y0113352D01*
X0175518Y0113510D01*
X0005518Y0113510D02*
X0005520Y0113668D01*
X0005526Y0113826D01*
X0005536Y0113984D01*
X0005550Y0114142D01*
X0005568Y0114299D01*
X0005589Y0114456D01*
X0005615Y0114612D01*
X0005645Y0114768D01*
X0005678Y0114923D01*
X0005716Y0115076D01*
X0005757Y0115229D01*
X0005802Y0115381D01*
X0005851Y0115532D01*
X0005904Y0115681D01*
X0005960Y0115829D01*
X0006020Y0115975D01*
X0006084Y0116120D01*
X0006152Y0116263D01*
X0006223Y0116405D01*
X0006297Y0116545D01*
X0006375Y0116682D01*
X0006457Y0116818D01*
X0006541Y0116952D01*
X0006630Y0117083D01*
X0006721Y0117212D01*
X0006816Y0117339D01*
X0006913Y0117464D01*
X0007014Y0117586D01*
X0007118Y0117705D01*
X0007225Y0117822D01*
X0007335Y0117936D01*
X0007448Y0118047D01*
X0007563Y0118156D01*
X0007681Y0118261D01*
X0007802Y0118363D01*
X0007925Y0118463D01*
X0008051Y0118559D01*
X0008179Y0118652D01*
X0008309Y0118742D01*
X0008442Y0118828D01*
X0008577Y0118912D01*
X0008713Y0118991D01*
X0008852Y0119068D01*
X0008993Y0119140D01*
X0009135Y0119210D01*
X0009279Y0119275D01*
X0009425Y0119337D01*
X0009572Y0119395D01*
X0009721Y0119450D01*
X0009871Y0119501D01*
X0010022Y0119548D01*
X0010174Y0119591D01*
X0010327Y0119630D01*
X0010482Y0119666D01*
X0010637Y0119697D01*
X0010793Y0119725D01*
X0010949Y0119749D01*
X0011106Y0119769D01*
X0011264Y0119785D01*
X0011421Y0119797D01*
X0011580Y0119805D01*
X0011738Y0119809D01*
X0011896Y0119809D01*
X0012054Y0119805D01*
X0012213Y0119797D01*
X0012370Y0119785D01*
X0012528Y0119769D01*
X0012685Y0119749D01*
X0012841Y0119725D01*
X0012997Y0119697D01*
X0013152Y0119666D01*
X0013307Y0119630D01*
X0013460Y0119591D01*
X0013612Y0119548D01*
X0013763Y0119501D01*
X0013913Y0119450D01*
X0014062Y0119395D01*
X0014209Y0119337D01*
X0014355Y0119275D01*
X0014499Y0119210D01*
X0014641Y0119140D01*
X0014782Y0119068D01*
X0014921Y0118991D01*
X0015057Y0118912D01*
X0015192Y0118828D01*
X0015325Y0118742D01*
X0015455Y0118652D01*
X0015583Y0118559D01*
X0015709Y0118463D01*
X0015832Y0118363D01*
X0015953Y0118261D01*
X0016071Y0118156D01*
X0016186Y0118047D01*
X0016299Y0117936D01*
X0016409Y0117822D01*
X0016516Y0117705D01*
X0016620Y0117586D01*
X0016721Y0117464D01*
X0016818Y0117339D01*
X0016913Y0117212D01*
X0017004Y0117083D01*
X0017093Y0116952D01*
X0017177Y0116818D01*
X0017259Y0116682D01*
X0017337Y0116545D01*
X0017411Y0116405D01*
X0017482Y0116263D01*
X0017550Y0116120D01*
X0017614Y0115975D01*
X0017674Y0115829D01*
X0017730Y0115681D01*
X0017783Y0115532D01*
X0017832Y0115381D01*
X0017877Y0115229D01*
X0017918Y0115076D01*
X0017956Y0114923D01*
X0017989Y0114768D01*
X0018019Y0114612D01*
X0018045Y0114456D01*
X0018066Y0114299D01*
X0018084Y0114142D01*
X0018098Y0113984D01*
X0018108Y0113826D01*
X0018114Y0113668D01*
X0018116Y0113510D01*
X0018114Y0113352D01*
X0018108Y0113194D01*
X0018098Y0113036D01*
X0018084Y0112878D01*
X0018066Y0112721D01*
X0018045Y0112564D01*
X0018019Y0112408D01*
X0017989Y0112252D01*
X0017956Y0112097D01*
X0017918Y0111944D01*
X0017877Y0111791D01*
X0017832Y0111639D01*
X0017783Y0111488D01*
X0017730Y0111339D01*
X0017674Y0111191D01*
X0017614Y0111045D01*
X0017550Y0110900D01*
X0017482Y0110757D01*
X0017411Y0110615D01*
X0017337Y0110475D01*
X0017259Y0110338D01*
X0017177Y0110202D01*
X0017093Y0110068D01*
X0017004Y0109937D01*
X0016913Y0109808D01*
X0016818Y0109681D01*
X0016721Y0109556D01*
X0016620Y0109434D01*
X0016516Y0109315D01*
X0016409Y0109198D01*
X0016299Y0109084D01*
X0016186Y0108973D01*
X0016071Y0108864D01*
X0015953Y0108759D01*
X0015832Y0108657D01*
X0015709Y0108557D01*
X0015583Y0108461D01*
X0015455Y0108368D01*
X0015325Y0108278D01*
X0015192Y0108192D01*
X0015057Y0108108D01*
X0014921Y0108029D01*
X0014782Y0107952D01*
X0014641Y0107880D01*
X0014499Y0107810D01*
X0014355Y0107745D01*
X0014209Y0107683D01*
X0014062Y0107625D01*
X0013913Y0107570D01*
X0013763Y0107519D01*
X0013612Y0107472D01*
X0013460Y0107429D01*
X0013307Y0107390D01*
X0013152Y0107354D01*
X0012997Y0107323D01*
X0012841Y0107295D01*
X0012685Y0107271D01*
X0012528Y0107251D01*
X0012370Y0107235D01*
X0012213Y0107223D01*
X0012054Y0107215D01*
X0011896Y0107211D01*
X0011738Y0107211D01*
X0011580Y0107215D01*
X0011421Y0107223D01*
X0011264Y0107235D01*
X0011106Y0107251D01*
X0010949Y0107271D01*
X0010793Y0107295D01*
X0010637Y0107323D01*
X0010482Y0107354D01*
X0010327Y0107390D01*
X0010174Y0107429D01*
X0010022Y0107472D01*
X0009871Y0107519D01*
X0009721Y0107570D01*
X0009572Y0107625D01*
X0009425Y0107683D01*
X0009279Y0107745D01*
X0009135Y0107810D01*
X0008993Y0107880D01*
X0008852Y0107952D01*
X0008713Y0108029D01*
X0008577Y0108108D01*
X0008442Y0108192D01*
X0008309Y0108278D01*
X0008179Y0108368D01*
X0008051Y0108461D01*
X0007925Y0108557D01*
X0007802Y0108657D01*
X0007681Y0108759D01*
X0007563Y0108864D01*
X0007448Y0108973D01*
X0007335Y0109084D01*
X0007225Y0109198D01*
X0007118Y0109315D01*
X0007014Y0109434D01*
X0006913Y0109556D01*
X0006816Y0109681D01*
X0006721Y0109808D01*
X0006630Y0109937D01*
X0006541Y0110068D01*
X0006457Y0110202D01*
X0006375Y0110338D01*
X0006297Y0110475D01*
X0006223Y0110615D01*
X0006152Y0110757D01*
X0006084Y0110900D01*
X0006020Y0111045D01*
X0005960Y0111191D01*
X0005904Y0111339D01*
X0005851Y0111488D01*
X0005802Y0111639D01*
X0005757Y0111791D01*
X0005716Y0111944D01*
X0005678Y0112097D01*
X0005645Y0112252D01*
X0005615Y0112408D01*
X0005589Y0112564D01*
X0005568Y0112721D01*
X0005550Y0112878D01*
X0005536Y0113036D01*
X0005526Y0113194D01*
X0005520Y0113352D01*
X0005518Y0113510D01*
X0639132Y0170447D02*
X0639134Y0170605D01*
X0639140Y0170763D01*
X0639150Y0170921D01*
X0639164Y0171079D01*
X0639182Y0171236D01*
X0639203Y0171393D01*
X0639229Y0171549D01*
X0639259Y0171705D01*
X0639292Y0171860D01*
X0639330Y0172013D01*
X0639371Y0172166D01*
X0639416Y0172318D01*
X0639465Y0172469D01*
X0639518Y0172618D01*
X0639574Y0172766D01*
X0639634Y0172912D01*
X0639698Y0173057D01*
X0639766Y0173200D01*
X0639837Y0173342D01*
X0639911Y0173482D01*
X0639989Y0173619D01*
X0640071Y0173755D01*
X0640155Y0173889D01*
X0640244Y0174020D01*
X0640335Y0174149D01*
X0640430Y0174276D01*
X0640527Y0174401D01*
X0640628Y0174523D01*
X0640732Y0174642D01*
X0640839Y0174759D01*
X0640949Y0174873D01*
X0641062Y0174984D01*
X0641177Y0175093D01*
X0641295Y0175198D01*
X0641416Y0175300D01*
X0641539Y0175400D01*
X0641665Y0175496D01*
X0641793Y0175589D01*
X0641923Y0175679D01*
X0642056Y0175765D01*
X0642191Y0175849D01*
X0642327Y0175928D01*
X0642466Y0176005D01*
X0642607Y0176077D01*
X0642749Y0176147D01*
X0642893Y0176212D01*
X0643039Y0176274D01*
X0643186Y0176332D01*
X0643335Y0176387D01*
X0643485Y0176438D01*
X0643636Y0176485D01*
X0643788Y0176528D01*
X0643941Y0176567D01*
X0644096Y0176603D01*
X0644251Y0176634D01*
X0644407Y0176662D01*
X0644563Y0176686D01*
X0644720Y0176706D01*
X0644878Y0176722D01*
X0645035Y0176734D01*
X0645194Y0176742D01*
X0645352Y0176746D01*
X0645510Y0176746D01*
X0645668Y0176742D01*
X0645827Y0176734D01*
X0645984Y0176722D01*
X0646142Y0176706D01*
X0646299Y0176686D01*
X0646455Y0176662D01*
X0646611Y0176634D01*
X0646766Y0176603D01*
X0646921Y0176567D01*
X0647074Y0176528D01*
X0647226Y0176485D01*
X0647377Y0176438D01*
X0647527Y0176387D01*
X0647676Y0176332D01*
X0647823Y0176274D01*
X0647969Y0176212D01*
X0648113Y0176147D01*
X0648255Y0176077D01*
X0648396Y0176005D01*
X0648535Y0175928D01*
X0648671Y0175849D01*
X0648806Y0175765D01*
X0648939Y0175679D01*
X0649069Y0175589D01*
X0649197Y0175496D01*
X0649323Y0175400D01*
X0649446Y0175300D01*
X0649567Y0175198D01*
X0649685Y0175093D01*
X0649800Y0174984D01*
X0649913Y0174873D01*
X0650023Y0174759D01*
X0650130Y0174642D01*
X0650234Y0174523D01*
X0650335Y0174401D01*
X0650432Y0174276D01*
X0650527Y0174149D01*
X0650618Y0174020D01*
X0650707Y0173889D01*
X0650791Y0173755D01*
X0650873Y0173619D01*
X0650951Y0173482D01*
X0651025Y0173342D01*
X0651096Y0173200D01*
X0651164Y0173057D01*
X0651228Y0172912D01*
X0651288Y0172766D01*
X0651344Y0172618D01*
X0651397Y0172469D01*
X0651446Y0172318D01*
X0651491Y0172166D01*
X0651532Y0172013D01*
X0651570Y0171860D01*
X0651603Y0171705D01*
X0651633Y0171549D01*
X0651659Y0171393D01*
X0651680Y0171236D01*
X0651698Y0171079D01*
X0651712Y0170921D01*
X0651722Y0170763D01*
X0651728Y0170605D01*
X0651730Y0170447D01*
X0651728Y0170289D01*
X0651722Y0170131D01*
X0651712Y0169973D01*
X0651698Y0169815D01*
X0651680Y0169658D01*
X0651659Y0169501D01*
X0651633Y0169345D01*
X0651603Y0169189D01*
X0651570Y0169034D01*
X0651532Y0168881D01*
X0651491Y0168728D01*
X0651446Y0168576D01*
X0651397Y0168425D01*
X0651344Y0168276D01*
X0651288Y0168128D01*
X0651228Y0167982D01*
X0651164Y0167837D01*
X0651096Y0167694D01*
X0651025Y0167552D01*
X0650951Y0167412D01*
X0650873Y0167275D01*
X0650791Y0167139D01*
X0650707Y0167005D01*
X0650618Y0166874D01*
X0650527Y0166745D01*
X0650432Y0166618D01*
X0650335Y0166493D01*
X0650234Y0166371D01*
X0650130Y0166252D01*
X0650023Y0166135D01*
X0649913Y0166021D01*
X0649800Y0165910D01*
X0649685Y0165801D01*
X0649567Y0165696D01*
X0649446Y0165594D01*
X0649323Y0165494D01*
X0649197Y0165398D01*
X0649069Y0165305D01*
X0648939Y0165215D01*
X0648806Y0165129D01*
X0648671Y0165045D01*
X0648535Y0164966D01*
X0648396Y0164889D01*
X0648255Y0164817D01*
X0648113Y0164747D01*
X0647969Y0164682D01*
X0647823Y0164620D01*
X0647676Y0164562D01*
X0647527Y0164507D01*
X0647377Y0164456D01*
X0647226Y0164409D01*
X0647074Y0164366D01*
X0646921Y0164327D01*
X0646766Y0164291D01*
X0646611Y0164260D01*
X0646455Y0164232D01*
X0646299Y0164208D01*
X0646142Y0164188D01*
X0645984Y0164172D01*
X0645827Y0164160D01*
X0645668Y0164152D01*
X0645510Y0164148D01*
X0645352Y0164148D01*
X0645194Y0164152D01*
X0645035Y0164160D01*
X0644878Y0164172D01*
X0644720Y0164188D01*
X0644563Y0164208D01*
X0644407Y0164232D01*
X0644251Y0164260D01*
X0644096Y0164291D01*
X0643941Y0164327D01*
X0643788Y0164366D01*
X0643636Y0164409D01*
X0643485Y0164456D01*
X0643335Y0164507D01*
X0643186Y0164562D01*
X0643039Y0164620D01*
X0642893Y0164682D01*
X0642749Y0164747D01*
X0642607Y0164817D01*
X0642466Y0164889D01*
X0642327Y0164966D01*
X0642191Y0165045D01*
X0642056Y0165129D01*
X0641923Y0165215D01*
X0641793Y0165305D01*
X0641665Y0165398D01*
X0641539Y0165494D01*
X0641416Y0165594D01*
X0641295Y0165696D01*
X0641177Y0165801D01*
X0641062Y0165910D01*
X0640949Y0166021D01*
X0640839Y0166135D01*
X0640732Y0166252D01*
X0640628Y0166371D01*
X0640527Y0166493D01*
X0640430Y0166618D01*
X0640335Y0166745D01*
X0640244Y0166874D01*
X0640155Y0167005D01*
X0640071Y0167139D01*
X0639989Y0167275D01*
X0639911Y0167412D01*
X0639837Y0167552D01*
X0639766Y0167694D01*
X0639698Y0167837D01*
X0639634Y0167982D01*
X0639574Y0168128D01*
X0639518Y0168276D01*
X0639465Y0168425D01*
X0639416Y0168576D01*
X0639371Y0168728D01*
X0639330Y0168881D01*
X0639292Y0169034D01*
X0639259Y0169189D01*
X0639229Y0169345D01*
X0639203Y0169501D01*
X0639182Y0169658D01*
X0639164Y0169815D01*
X0639150Y0169973D01*
X0639140Y0170131D01*
X0639134Y0170289D01*
X0639132Y0170447D01*
D12*
X0361778Y0164069D02*
X0355778Y0164069D01*
X0355778Y0154069D02*
X0361778Y0154069D01*
X0361778Y0144069D02*
X0355778Y0144069D01*
X0355778Y0134069D02*
X0361778Y0134069D01*
X0338410Y0045499D02*
X0338410Y0039499D01*
X0320610Y0039499D02*
X0320610Y0045499D01*
X0304190Y0045499D02*
X0304190Y0039499D01*
X0286390Y0039499D02*
X0286390Y0045499D01*
X0269969Y0045499D02*
X0269969Y0039499D01*
X0252169Y0039499D02*
X0252169Y0045499D01*
X0235749Y0045499D02*
X0235749Y0039499D01*
X0217949Y0039499D02*
X0217949Y0045499D01*
X0217949Y0019899D02*
X0217949Y0013899D01*
X0235749Y0013899D02*
X0235749Y0019899D01*
X0252169Y0019899D02*
X0252169Y0013899D01*
X0269969Y0013899D02*
X0269969Y0019899D01*
X0286390Y0019899D02*
X0286390Y0013899D01*
X0304190Y0013899D02*
X0304190Y0019899D01*
X0320610Y0019899D02*
X0320610Y0013899D01*
X0338410Y0013899D02*
X0338410Y0019899D01*
D13*
X0166817Y0028510D03*
X0156817Y0028510D03*
X0146817Y0028510D03*
X0136817Y0028510D03*
X0126817Y0028510D03*
X0116817Y0028510D03*
X0106817Y0028510D03*
X0096817Y0028510D03*
X0086817Y0028510D03*
X0076817Y0028510D03*
X0066817Y0028510D03*
X0056817Y0028510D03*
X0046817Y0028510D03*
X0036817Y0028510D03*
X0026817Y0028510D03*
X0026817Y0118510D03*
X0036817Y0118510D03*
X0046817Y0118510D03*
X0056817Y0118510D03*
X0066817Y0118510D03*
X0076817Y0118510D03*
X0086817Y0118510D03*
X0096817Y0118510D03*
X0106817Y0118510D03*
X0116817Y0118510D03*
X0126817Y0118510D03*
X0136817Y0118510D03*
X0146817Y0118510D03*
X0156817Y0118510D03*
X0166817Y0118510D03*
D14*
X0241447Y0156408D03*
X0268014Y0166408D03*
X0241447Y0176408D03*
X0053416Y0176487D03*
X0026849Y0166487D03*
X0053416Y0156487D03*
D15*
X0026849Y0166487D02*
X0026817Y0166487D01*
X0267431Y0166408D02*
X0268014Y0166408D01*
X0338431Y0071447D02*
X0046817Y0071447D01*
X0046817Y0028510D01*
X0056817Y0028510D02*
X0056817Y0067447D01*
X0303431Y0067447D01*
X0303431Y0016899D01*
X0304190Y0016899D01*
X0304190Y0042499D01*
X0338410Y0042499D02*
X0338410Y0016899D01*
X0338431Y0016899D01*
X0338431Y0071447D01*
X0269431Y0063447D02*
X0126817Y0063447D01*
X0126817Y0028510D01*
X0136817Y0028510D02*
X0136817Y0059447D01*
X0235431Y0059447D01*
X0235431Y0016899D01*
X0235749Y0016899D01*
X0235749Y0042499D01*
X0269969Y0042499D02*
X0269969Y0016899D01*
X0269431Y0016899D01*
X0269431Y0063447D01*
D16*
X0076817Y0118510D02*
X0076817Y0133447D01*
X0267431Y0133447D01*
X0267431Y0166408D01*
X0026817Y0166487D02*
X0026817Y0118510D01*
M02*
