%
M48
M72
T01C0.03150
T02C0.04000
T03C0.07200
T04C0.12598
%
T01
X26817Y28510
X36817Y28510
X46817Y28510
X56817Y28510
X66817Y28510
X76817Y28510
X86817Y28510
X96817Y28510
X106817Y28510
X116817Y28510
X126817Y28510
X136817Y28510
X146817Y28510
X156817Y28510
X166817Y28510
X26817Y118510
X36817Y118510
X46817Y118510
X56817Y118510
X66817Y118510
X76817Y118510
X86817Y118510
X96817Y118510
X106817Y118510
X116817Y118510
X126817Y118510
X136817Y118510
X146817Y118510
X156817Y118510
X166817Y118510
T02
X217949Y42499
X235749Y42499
X252169Y42499
X269969Y42499
X286390Y42499
X304190Y42499
X320610Y42499
X338410Y42499
X338410Y16899
X320610Y16899
X304190Y16899
X286390Y16899
X269969Y16899
X252169Y16899
X235749Y16899
X217949Y16899
X358778Y134069
X358778Y144069
X358778Y154069
X358778Y164069
T03
X241447Y156408
X268014Y166408
X241447Y176408
X53416Y176487
X26849Y166487
X53416Y156487
T04
X11817Y33510
X181817Y33510
X181817Y113510
X11817Y113510
X645431Y170447
M30
