  0
SECTION
  2
HEADER
  9
$ACADVER
  1
AC1014
  9
$HANDSEED
  5
FFFF
  9
$MEASUREMENT
 70
     1
  0
ENDSEC
  0
SECTION
  2
TABLES
  0
TABLE
  2
VPORT
  5
8
330
0
100
AcDbSymbolTable
 70
     4
  0
VPORT
  5
2E
330
8
100
AcDbSymbolTableRecord
100
AcDbViewportTableRecord
  2
*ACTIVE
 70
     0
 10
0.0
 20
0.0
 11
1.0
 21
1.0
 12
210.0
 22
148.5
 13
0.0
 23
0.0
 14
10.0
 24
10.0
 15
10.0
 25
10.0
 16
0.0
 26
0.0
 36
1.0
 17
0.0
 27
0.0
 37
0.0
 40
341.0
 41
1.24
 42
50.0
 43
0.0
 44
0.0
 50
0.0
 51
0.0
 71
     0
 72
   100
 73
     1
 74
     3
 75
     0
 76
     0
 77
     0
 78
     0
  0
ENDTAB
  0
TABLE
  2
LTYPE
  5
5
330
0
100
AcDbSymbolTable
 70
     1
  0
LTYPE
  5
14
330
5
100
AcDbSymbolTableRecord
100
AcDbLinetypeTableRecord
  2
BYBLOCK
 70
     0
  3

 72
    65
 73
     0
 40
0.0
  0
LTYPE
  5
15
330
5
100
AcDbSymbolTableRecord
100
AcDbLinetypeTableRecord
  2
BYLAYER
 70
     0
  3

 72
    65
 73
     0
 40
0.0
  0
LTYPE
  5
16
330
5
100
AcDbSymbolTableRecord
100
AcDbLinetypeTableRecord
  2
CONTINUOUS
 70
     0
  3
Solid line
 72
    65
 73
     0
 40
0.0
  0
ENDTAB
  0
TABLE
  2
LAYER
  5
2
100
AcDbSymbolTable
 70
1
  0
LAYER
  5
50
100
AcDbSymbolTableRecord
100
AcDbLayerTableRecord
  2
0
 70
0
  6
CONTINUOUS
  0
ENDTAB
  0
TABLE
  2
STYLE
  5
3
330
0
100
AcDbSymbolTable
 70
     1
  0
STYLE
  5
11
330
3
100
AcDbSymbolTableRecord
100
AcDbTextStyleTableRecord
  2
STANDARD
 70
     0
 40
0.0
 41
1.0
 50
0.0
 71
     0
 42
2.5
  3
txt
  4

  0
ENDTAB
  0
TABLE
  2
VIEW
  5
6
330
0
100
AcDbSymbolTable
 70
     0
  0
ENDTAB
  0
TABLE
  2
UCS
  5
7
330
0
100
AcDbSymbolTable
 70
     0
  0
ENDTAB
  0
TABLE
  2
APPID
  5
9
330
0
100
AcDbSymbolTable
 70
     2
  0
APPID
  5
12
330
9
100
AcDbSymbolTableRecord
100
AcDbRegAppTableRecord
  2
ACAD
 70
     0
  0
ENDTAB
  0
TABLE
  2
DIMSTYLE
  5
A
330
0
100
AcDbSymbolTable
 70
     1
  0
DIMSTYLE
105
27
330
A
100
AcDbSymbolTableRecord
100
AcDbDimStyleTableRecord
  2
ISO-25
 70
     0
  3

  4

  5

  6

  7

 40
1.0
 41
2.5
 42
0.625
 43
3.75
 44
1.25
 45
0.0
 46
0.0
 47
0.0
 48
0.0
140
2.5
141
2.5
142
0.0
143
0.03937007874016
144
1.0
145
0.0
146
1.0
147
0.625
 71
     0
 72
     0
 73
     0
 74
     0
 75
     0
 76
     0
 77
     1
 78
     8
170
     0
171
     3
172
     1
173
     0
174
     0
175
     0
176
     0
177
     0
178
     0
270
     2
271
     2
272
     2
273
     2
274
     3
340
11
275
     0
280
     0
281
     0
282
     0
283
     0
284
     8
285
     0
286
     0
287
     3
288
     0
  0
ENDTAB
  0
TABLE
  2
BLOCK_RECORD
  5
1
330
0
100
AcDbSymbolTable
 70
     1
  0
BLOCK_RECORD
  5
1F
330
1
100
AcDbSymbolTableRecord
100
AcDbBlockTableRecord
  2
*MODEL_SPACE
  0
BLOCK_RECORD
  5
1B
330
1
100
AcDbSymbolTableRecord
100
AcDbBlockTableRecord
  2
*PAPER_SPACE
  0
ENDTAB
  0
ENDSEC
  0
SECTION
  2
BLOCKS
  0
BLOCK
  5
20
330
1F
100
AcDbEntity
  8
0
100
AcDbBlockBegin
  2
*MODEL_SPACE
 70
     0
 10
0.0
 20
0.0
 30
0.0
  3
*MODEL_SPACE
  1

  0
ENDBLK
  5
21
330
1F
100
AcDbEntity
  8
0
100
AcDbBlockEnd
  0
BLOCK
  5
1C
330
1B
100
AcDbEntity
 67
     1
  8
0
100
AcDbBlockBegin
  2
*PAPER_SPACE
  1

  0
ENDBLK
  5
1D
330
1B
100
AcDbEntity
 67
     1
  8
0
100
AcDbBlockEnd
  0
ENDSEC
  0
SECTION
  2
ENTITIES
  0
SPLINE
  5
100
100
AcDbEntity
  8
0
 62
2
100
AcDbSpline
 70
8
 71
3
 72
8
 73
4
 74
0
 40
0
 40
0
 40
0
 40
0
 40
1
 40
1
 40
1
 40
1
 10
5.556357
 20
5.798853
 30
0.0
 10
5.489411
 20
5.809251
 30
0.0
 10
5.422190
 20
5.806464
 30
0.0
 10
5.354754
 20
5.805667
 30
0.0
  0
SPLINE
  5
101
100
AcDbEntity
  8
0
 62
2
100
AcDbSpline
 70
8
 71
3
 72
8
 73
4
 74
0
 40
0
 40
0
 40
0
 40
0
 40
1
 40
1
 40
1
 40
1
 10
5.354754
 20
5.805667
 30
0.0
 10
5.241018
 20
5.800757
 30
0.0
 10
5.139768
 20
5.818378
 30
0.0
 10
5.030373
 20
5.821474
 30
0.0
  0
LWPOLYLINE
  5
102
100
AcDbEntity
  8
0
 62
2
100
AcDbPolyline
 90
88
 70
1
 10
-0.805712
 20
5.836308
 30
0.0
 10
-1.085996
 20
5.752255
 30
0.0
 10
-1.363893
 20
5.441042
 30
0.0
 10
-1.454116
 20
4.971683
 30
0.0
 10
-1.451528
 20
4.693781
 30
0.0
 10
-1.451731
 20
4.099150
 30
0.0
 10
-1.452973
 20
3.656252
 30
0.0
 10
-1.461757
 20
3.283540
 30
0.0
 10
-1.464971
 20
2.224875
 30
0.0
 10
-1.463322
 20
1.759921
 30
0.0
 10
-1.467150
 20
1.172185
 30
0.0
 10
-1.467653
 20
0.612170
 30
0.0
 10
-1.418037
 20
0.249675
 30
0.0
 10
-1.260349
 20
0.061134
 30
0.0
 10
-1.037952
 20
-0.061006
 30
0.0
 10
1.084042
 20
-0.324690
 30
0.0
 10
1.445700
 20
-0.353711
 30
0.0
 10
1.750994
 20
-0.370061
 30
0.0
 10
2.028378
 20
-0.387273
 30
0.0
 10
2.325049
 20
-0.405746
 30
0.0
 10
2.815895
 20
-0.422734
 30
0.0
 10
3.580680
 20
-0.438688
 30
0.0
 10
4.168864
 20
-0.453669
 30
0.0
 10
4.642740
 20
-0.451427
 30
0.0
 10
5.159654
 20
-0.444959
 30
0.0
 10
7.157516
 20
-0.396830
 30
0.0
 10
8.319374
 20
-0.303478
 30
0.0
 10
8.352891
 20
-0.300315
 30
0.0
 10
8.959193
 20
-0.242179
 30
0.0
 10
9.167452
 20
-0.220772
 30
0.0
 10
9.262939
 20
-0.209068
 30
0.0
 10
9.477907
 20
-0.166996
 30
0.0
 10
9.898139
 20
0.026404
 30
0.0
 10
10.053909
 20
0.495432
 30
0.0
 10
10.053374
 20
0.784927
 30
0.0
 10
10.054528
 20
1.145335
 30
0.0
 10
10.064244
 20
1.608808
 30
0.0
 10
10.062615
 20
1.975552
 30
0.0
 10
10.058901
 20
2.344672
 30
0.0
 10
10.076461
 20
2.853947
 30
0.0
 10
10.062415
 20
3.248238
 30
0.0
 10
10.093848
 20
3.656533
 30
0.0
 10
10.120651
 20
3.685148
 30
0.0
 10
10.151553
 20
3.693118
 30
0.0
 10
10.358048
 20
3.653759
 30
0.0
 10
10.827857
 20
3.561770
 30
0.0
 10
10.935503
 20
3.528183
 30
0.0
 10
11.625426
 20
3.389089
 30
0.0
 10
12.712493
 20
3.272430
 30
0.0
 10
13.671755
 20
3.278835
 30
0.0
 10
14.073390
 20
3.303068
 30
0.0
 10
14.314016
 20
3.338071
 30
0.0
 10
14.502821
 20
3.364621
 30
0.0
 10
14.731991
 20
3.412558
 30
0.0
 10
14.896786
 20
3.451311
 30
0.0
 10
15.013022
 20
3.465043
 30
0.0
 10
15.221569
 20
3.506277
 30
0.0
 10
15.776618
 20
3.638216
 30
0.0
 10
16.618596
 20
3.589615
 30
0.0
 10
17.487321
 20
3.378801
 30
0.0
 10
18.045490
 20
3.619454
 30
0.0
 10
18.432949
 20
4.191534
 30
0.0
 10
18.498881
 20
4.879901
 30
0.0
 10
18.391087
 20
5.134512
 30
0.0
 10
18.227931
 20
5.351367
 30
0.0
 10
17.747371
 20
5.601080
 30
0.0
 10
16.511217
 20
5.725524
 30
0.0
 10
16.112753
 20
5.731599
 30
0.0
 10
15.678898
 20
5.732598
 30
0.0
 10
15.181221
 20
5.735937
 30
0.0
 10
14.778198
 20
5.744375
 30
0.0
 10
13.908976
 20
5.749464
 30
0.0
 10
13.608178
 20
5.756930
 30
0.0
 10
13.109923
 20
5.751348
 30
0.0
 10
12.694070
 20
5.754464
 30
0.0
 10
12.305344
 20
5.763175
 30
0.0
 10
11.265952
 20
5.766431
 30
0.0
 10
10.845053
 20
5.769249
 30
0.0
 10
10.314750
 20
5.773158
 30
0.0
 10
9.363475
 20
5.778186
 30
0.0
 10
8.864183
 20
5.783170
 30
0.0
 10
8.352066
 20
5.786350
 30
0.0
 10
7.762530
 20
5.791152
 30
0.0
 10
7.320542
 20
5.793859
 30
0.0
 10
6.901787
 20
5.797305
 30
0.0
 10
6.329886
 20
5.792199
 30
0.0
 10
5.802790
 20
5.783567
 30
0.0
 10
5.556357
 20
5.798853
 30
0.0
  0
LWPOLYLINE
  5
103
100
AcDbEntity
  8
0
 62
2
100
AcDbPolyline
 90
12
 70
1
 10
5.030373
 20
5.821474
 30
0.0
 10
4.807444
 20
5.817339
 30
0.0
 10
4.360821
 20
5.817191
 30
0.0
 10
3.846015
 20
5.818772
 30
0.0
 10
3.258201
 20
5.813864
 30
0.0
 10
2.275977
 20
5.825508
 30
0.0
 10
1.356517
 20
5.834955
 30
0.0
 10
0.755655
 20
5.837335
 30
0.0
 10
0.262785
 20
5.844331
 30
0.0
 10
-0.496404
 20
5.849701
 30
0.0
 10
-0.805711
 20
5.836301
 30
0.0
 10
-0.805712
 20
5.836308
 30
0.0
  0
ENDSEC
  0
SECTION
  2
OBJECTS
  0
DICTIONARY
  5
C
330
0
100
AcDbDictionary
  3
ACAD_GROUP
350
D
  3
ACAD_MLINESTYLE
350
17
  0
DICTIONARY
  5
D
330
C
100
AcDbDictionary
  0
DICTIONARY
  5
1A
330
C
100
AcDbDictionary
  0
DICTIONARY
  5
17
330
C
100
AcDbDictionary
  3
STANDARD
350
18
  0
DICTIONARY
  5
19
330
C
100
AcDbDictionary
  0
ENDSEC
  0
EOF
