<?xml version="1.0" encoding="UTF-8" standalone="no"?>
<!-- Created with Inkscape (http://www.inkscape.org/) -->

<svg
   xmlns:dc="http://purl.org/dc/elements/1.1/"
   xmlns:cc="http://creativecommons.org/ns#"
   xmlns:rdf="http://www.w3.org/1999/02/22-rdf-syntax-ns#"
   xmlns:svg="http://www.w3.org/2000/svg"
   xmlns="http://www.w3.org/2000/svg"
   xmlns:sodipodi="http://sodipodi.sourceforge.net/DTD/sodipodi-0.dtd"
   xmlns:inkscape="http://www.inkscape.org/namespaces/inkscape"
   id="svg6540"
   version="1.1"
   inkscape:version="0.91 r"
   width="496.20001"
   height="496.20001"
   viewBox="0 0 496.20001 496.20001"
   sodipodi:docname="cleaver.svg">
  <metadata
     id="metadata6546">
    <rdf:RDF>
      <cc:Work
         rdf:about="">
        <dc:format>image/svg+xml</dc:format>
        <dc:type
           rdf:resource="http://purl.org/dc/dcmitype/StillImage" />
        <dc:title></dc:title>
      </cc:Work>
    </rdf:RDF>
  </metadata>
  <defs
     id="defs6544" />
  <sodipodi:namedview
     pagecolor="#ffffff"
     bordercolor="#666666"
     borderopacity="1"
     objecttolerance="10"
     gridtolerance="10"
     guidetolerance="10"
     inkscape:pageopacity="0"
     inkscape:pageshadow="2"
     inkscape:window-width="1500"
     inkscape:window-height="873"
     id="namedview6542"
     showgrid="false"
     inkscape:zoom="4"
     inkscape:cx="87.95212"
     inkscape:cy="341.71607"
     inkscape:window-x="0"
     inkscape:window-y="0"
     inkscape:window-maximized="1"
     inkscape:current-layer="svg6540" />
  <g
     id="g6550"
     transform="matrix(0.99397403,-0.10961583,0.10961583,0.99397403,103.78749,46.829079)">
    <path
       style="fill:#fcfcfc"
       d="M 0,248.1 0,0 l 248.1,0 248.10001,0 0,248.1 0,248.10001 -248.10001,0 -248.1,0 L 0,248.1 Z"
       id="path6554"
       inkscape:connector-curvature="0" />
    <path
       style="color:#000000;font-style:normal;font-variant:normal;font-weight:normal;font-stretch:normal;font-size:medium;line-height:normal;font-family:sans-serif;text-indent:0;text-align:start;text-decoration:none;text-decoration-line:none;text-decoration-style:solid;text-decoration-color:#000000;letter-spacing:normal;word-spacing:normal;text-transform:none;direction:ltr;block-progression:tb;writing-mode:lr-tb;baseline-shift:baseline;text-anchor:start;white-space:normal;clip-rule:nonzero;display:inline;overflow:visible;visibility:visible;opacity:1;isolation:auto;mix-blend-mode:normal;color-interpolation:sRGB;color-interpolation-filters:linearRGB;solid-color:#000000;solid-opacity:1;fill-opacity:1;fill-rule:nonzero;stroke:none;stroke-width:1;stroke-linecap:butt;stroke-linejoin:miter;stroke-miterlimit:4;stroke-dasharray:none;stroke-dashoffset:0;stroke-opacity:1;color-rendering:auto;image-rendering:auto;shape-rendering:auto;text-rendering:auto;enable-background:accumulate"
       d="m -43.237421,28.491684 c -4.48145,-0.0102 -6.109273,0.288999 -8.684349,1.593888 -4.020406,2.037299 -6.977255,4.695228 -9.364096,8.414796 -2.436752,3.797348 -3.484386,5.997204 -4.258405,13.778672 -0.34319,3.4502 -0.406875,6.10708 -0.841553,8.343434 -0.472703,2.431992 -1.585609,13.018473 -1.972843,17.833611 -0.382239,4.753094 -0.890584,9.196484 -1.502163,13.279379 -0.619736,4.137379 -1.288176,9.116136 -1.496224,11.149406 -2.195045,21.45289 -2.840831,27.14252 -3.597969,31.74104 -0.501915,3.04841 -1.163183,9.26593 -1.488411,13.95044 -0.319212,4.59773 -1.250531,12.57421 -2.058773,17.61481 -0.929831,5.79886 -1.574787,11.78834 -1.86735,16.79442 -0.292562,5.00607 -0.287593,8.91501 0.289089,11.03612 0.547571,2.01405 2.163418,4.20258 4.105825,6.17631 1.942407,1.97375 4.185512,3.68158 6.26617,4.39883 11.324249,3.90369 43.939458,11.64547 62.7710755,14.92707 3.9462231,0.68766 8.8255472,1.62674 10.7509346,2.0666 2.0606992,0.47072 6.0943298,1.13246 9.1023509,1.50013 2.927635,0.35783 6.739726,1.02863 8.262439,1.43371 1.782455,0.4742 5.661772,1.1397 8.836708,1.53529 3.10651,0.38707 9.726286,1.3488 14.665335,2.13301 12.110273,1.9228 17.148731,2.58728 22.884809,3.00806 5.356146,0.39293 10.976735,1.15768 17.59137,2.39475 2.607566,0.48764 8.909114,1.14284 14.219996,1.50013 5.253655,0.35345 12.291385,1.04241 15.524785,1.51575 10.9837,1.60788 21.06272,2.47491 60.07943,5.16451 4.70931,0.32465 20.46028,0.78883 35.15541,1.04307 0.38472,0.006 0.63372,0.01 1.01571,0.016 6.911,0.11741 13.47799,0.21108 18.3766,0.26174 2.58468,0.0268 4.74109,0.0434 6.31695,0.0468 1.57588,0.004 2.43537,0.008 2.90259,-0.0352 0.97241,-0.0902 3.9488,-0.33857 6.58651,-0.55082 5.54931,-0.4466 9.90707,-1.86583 13.24336,-4.41055 3.22238,-2.45781 5.68707,-8.16711 6.2232,-13.55196 0.21251,-2.13458 0.63713,-6.05106 0.94148,-8.68435 0.30544,-2.64261 0.85677,-7.50381 1.22666,-10.80562 0.367,-3.27627 1.19131,-9.53455 1.82438,-13.86841 0.6393,-4.37638 1.16416,-9.16709 1.16416,-11.00485 0,-1.35482 0.46032,-5.9311 1.10948,-11.08301 0.64914,-5.15188 1.48311,-10.98429 2.21113,-15.21616 0.49629,-2.88479 0.88106,-8.13199 0.88288,-11.87211 0.004,-7.32216 0.71532,-10.43359 2.29318,-12.1417 0.38167,-0.41315 0.66118,-0.64973 0.89852,-0.76958 0.23732,-0.11981 0.46906,-0.17442 0.9532,-0.13682 0.96826,0.0754 2.80316,0.65758 6.06303,1.86345 6.0422,2.23509 10.41188,3.60979 13.78636,4.31287 0.95472,0.19882 2.5569,0.92394 3.11745,1.3634 1.90662,1.49471 5.13462,2.44023 20.23222,6.45368 13.80892,3.67092 24.04287,5.92622 32.21766,7.09438 8.90643,1.27271 19.63752,2.34394 28.79156,2.98072 4.57702,0.31838 8.75864,0.53122 12.12605,0.60161 3.36742,0.0704 5.86661,0.0216 7.33266,-0.25392 1.43505,-0.26955 4.1784,-0.35667 5.7505,-0.17182 2.27918,0.26789 4.53936,0.0448 7.03187,-0.67974 2.02478,-0.58847 4.17151,-0.78595 5.07074,-0.61723 0.78527,0.14721 1.83722,0.0788 3.53157,-0.0274 1.69435,-0.10621 3.88884,-0.29345 6.39118,-0.54691 5.00469,-0.50696 11.23599,-1.26969 17.08352,-2.12128 10.22347,-1.48889 19.85413,0.24436 25.09202,4.24254 7.67091,5.85535 16.90745,9.22899 25.35767,9.19612 6.10217,-0.0236 13.44871,-2.22363 17.53668,-5.37156 4.39948,-3.38778 11.30798,-11.46316 13.5129,-15.87638 2.58072,-5.16547 4.70659,-15.21337 4.25427,-20.42756 -0.19142,-2.20601 -1.15348,-5.15687 -2.39083,-7.99287 -1.23735,-2.83601 -2.71338,-5.49122 -4.17614,-7.0436 -2.9062,-3.08421 -9.08375,-7.186782 -13.58713,-9.078906 -8.11194,-3.408277 -22.94323,-6.54827 -36.66334,-7.821 -3.59802,-0.333749 -9.00739,-1.014648 -11.93072,-1.500131 -3.03714,-0.504383 -8.83815,-1.15488 -13.00895,-1.464967 -4.08902,-0.303986 -10.84496,-1.094995 -14.91536,-1.746232 -4.13962,-0.662357 -9.51611,-1.372719 -12.05963,-1.586078 -3.85191,-0.323148 -19.1387,-2.097202 -26.05304,-3.027623 -1.31846,-0.177415 -5.36679,-0.726223 -8.99688,-1.218846 -3.67416,-0.498583 -10.37237,-1.159461 -14.96224,-1.480589 -4.52214,-0.316427 -10.23091,-1.000126 -12.46203,-1.468887 -2.47447,-0.519885 -7.62976,-1.199985 -11.62991,-1.547015 -6.35853,-0.551648 -18.84066,-1.967651 -31.16287,-3.535467 -2.32608,-0.295966 -7.98999,-0.957223 -12.61437,-1.476688 -4.61511,-0.518426 -11.77329,-1.362859 -15.89201,-1.871243 -9.8923,-1.221026 -14.84945,-1.793276 -28.51419,-3.297167 -6.26327,-0.6893 -13.04992,-1.508831 -14.95835,-1.800936 -2.06157,-0.315548 -8.90557,-1.109317 -15.34899,-1.789216 -6.42508,-0.677959 -14.40457,-1.625721 -17.6656,-2.093942 -3.33169,-0.478342 -9.2647,-1.168301 -13.24723,-1.543094 -3.9374,-0.370552 -9.61769,-1.046011 -12.54797,-1.488409 -3.05336,-0.461001 -10.71577,-1.233428 -17.16947,-1.738432 -6.6501,-0.520365 -11.94422,-1.016468 -15.8373,-1.484509 -3.8931,-0.46804 -6.45976,-0.948222 -7.3405,-1.27355 -0.61495,-0.22716 -1.45846,-0.376053 -2.52756,-0.527386 -1.06909,-0.151413 -2.31332,-0.275684 -3.4964,-0.34379 -1.11512,-0.06421 -2.3343,-0.199617 -3.37919,-0.359391 -1.04487,-0.159814 -1.95385,-0.369713 -2.26582,-0.488323 -0.41404,-0.157414 -0.88386,-0.242101 -1.55874,-0.355511 -0.67487,-0.11341 -1.51573,-0.22922 -2.47287,-0.34377 -1.91425,-0.22912 -4.29443,-0.452219 -6.6998,-0.613333 -4.74004,-0.317488 -10.85267,-0.995827 -13.39569,-1.472792 -2.77746,-0.520947 -9.6325,-1.290758 -15.434939,-1.750152 C 90.46527,43.947829 82.490937,43.135859 78.573956,42.606413 70.56032,41.523232 68.110447,41.221886 49.153419,39.008444 39.917701,37.913083 30.119893,36.484929 21.608064,35.683935 14.650099,35.034432 6.4781688,34.097801 3.5947781,33.625164 0.568375,33.129083 -6.0294786,32.307503 -11.164325,31.78516 c -11.38519,-1.158159 -17.671358,-1.895839 -22.751974,-2.672108 -2.252342,-0.344138 -6.361629,-0.614408 -9.321122,-0.621148 z"
       id="path6552"
       inkscape:connector-curvature="0"
       sodipodi:nodetypes="cssssssssssssssscscssssssscccccsssscssssccccsccssssccccsssscsscsssssscsssssssssssssssssscccsscssssccssscc" />
  </g>
</svg>
