  0
SECTION
  2
HEADER
  9
$ACADVER
  1
AC1014
  9
$HANDSEED
  5
FFFF
  9
$MEASUREMENT
 70
     1
  0
ENDSEC
  0
SECTION
  2
TABLES
  0
TABLE
  2
VPORT
  5
8
330
0
100
AcDbSymbolTable
 70
     4
  0
VPORT
  5
2E
330
8
100
AcDbSymbolTableRecord
100
AcDbViewportTableRecord
  2
*ACTIVE
 70
     0
 10
0.0
 20
0.0
 11
1.0
 21
1.0
 12
210.0
 22
148.5
 13
0.0
 23
0.0
 14
10.0
 24
10.0
 15
10.0
 25
10.0
 16
0.0
 26
0.0
 36
1.0
 17
0.0
 27
0.0
 37
0.0
 40
341.0
 41
1.24
 42
50.0
 43
0.0
 44
0.0
 50
0.0
 51
0.0
 71
     0
 72
   100
 73
     1
 74
     3
 75
     0
 76
     0
 77
     0
 78
     0
  0
ENDTAB
  0
TABLE
  2
LTYPE
  5
5
330
0
100
AcDbSymbolTable
 70
     1
  0
LTYPE
  5
14
330
5
100
AcDbSymbolTableRecord
100
AcDbLinetypeTableRecord
  2
BYBLOCK
 70
     0
  3

 72
    65
 73
     0
 40
0.0
  0
LTYPE
  5
15
330
5
100
AcDbSymbolTableRecord
100
AcDbLinetypeTableRecord
  2
BYLAYER
 70
     0
  3

 72
    65
 73
     0
 40
0.0
  0
LTYPE
  5
16
330
5
100
AcDbSymbolTableRecord
100
AcDbLinetypeTableRecord
  2
CONTINUOUS
 70
     0
  3
Solid line
 72
    65
 73
     0
 40
0.0
  0
ENDTAB
  0
TABLE
  2
LAYER
  5
2
100
AcDbSymbolTable
 70
1
  0
LAYER
  5
50
100
AcDbSymbolTableRecord
100
AcDbLayerTableRecord
  2
0
 70
0
  6
CONTINUOUS
  0
ENDTAB
  0
TABLE
  2
STYLE
  5
3
330
0
100
AcDbSymbolTable
 70
     1
  0
STYLE
  5
11
330
3
100
AcDbSymbolTableRecord
100
AcDbTextStyleTableRecord
  2
STANDARD
 70
     0
 40
0.0
 41
1.0
 50
0.0
 71
     0
 42
2.5
  3
txt
  4

  0
ENDTAB
  0
TABLE
  2
VIEW
  5
6
330
0
100
AcDbSymbolTable
 70
     0
  0
ENDTAB
  0
TABLE
  2
UCS
  5
7
330
0
100
AcDbSymbolTable
 70
     0
  0
ENDTAB
  0
TABLE
  2
APPID
  5
9
330
0
100
AcDbSymbolTable
 70
     2
  0
APPID
  5
12
330
9
100
AcDbSymbolTableRecord
100
AcDbRegAppTableRecord
  2
ACAD
 70
     0
  0
ENDTAB
  0
TABLE
  2
DIMSTYLE
  5
A
330
0
100
AcDbSymbolTable
 70
     1
  0
DIMSTYLE
105
27
330
A
100
AcDbSymbolTableRecord
100
AcDbDimStyleTableRecord
  2
ISO-25
 70
     0
  3

  4

  5

  6

  7

 40
1.0
 41
2.5
 42
0.625
 43
3.75
 44
1.25
 45
0.0
 46
0.0
 47
0.0
 48
0.0
140
2.5
141
2.5
142
0.0
143
0.03937007874016
144
1.0
145
0.0
146
1.0
147
0.625
 71
     0
 72
     0
 73
     0
 74
     0
 75
     0
 76
     0
 77
     1
 78
     8
170
     0
171
     3
172
     1
173
     0
174
     0
175
     0
176
     0
177
     0
178
     0
270
     2
271
     2
272
     2
273
     2
274
     3
340
11
275
     0
280
     0
281
     0
282
     0
283
     0
284
     8
285
     0
286
     0
287
     3
288
     0
  0
ENDTAB
  0
TABLE
  2
BLOCK_RECORD
  5
1
330
0
100
AcDbSymbolTable
 70
     1
  0
BLOCK_RECORD
  5
1F
330
1
100
AcDbSymbolTableRecord
100
AcDbBlockTableRecord
  2
*MODEL_SPACE
  0
BLOCK_RECORD
  5
1B
330
1
100
AcDbSymbolTableRecord
100
AcDbBlockTableRecord
  2
*PAPER_SPACE
  0
ENDTAB
  0
ENDSEC
  0
SECTION
  2
BLOCKS
  0
BLOCK
  5
20
330
1F
100
AcDbEntity
  8
0
100
AcDbBlockBegin
  2
*MODEL_SPACE
 70
     0
 10
0.0
 20
0.0
 30
0.0
  3
*MODEL_SPACE
  1

  0
ENDBLK
  5
21
330
1F
100
AcDbEntity
  8
0
100
AcDbBlockEnd
  0
BLOCK
  5
1C
330
1B
100
AcDbEntity
 67
     1
  8
0
100
AcDbBlockBegin
  2
*PAPER_SPACE
  1

  0
ENDBLK
  5
1D
330
1B
100
AcDbEntity
 67
     1
  8
0
100
AcDbBlockEnd
  0
ENDSEC
  0
SECTION
  2
ENTITIES
  0
SPLINE
  5
100
100
AcDbEntity
  8
0
 62
7
100
AcDbSpline
 70
8
 71
3
 72
8
 73
4
 74
0
 40
0
 40
0
 40
0
 40
0
 40
1
 40
1
 40
1
 40
1
 10
1.804353
 20
11.749234
 30
0.0
 10
1.678607
 20
11.735656
 30
0.0
 10
1.633868
 20
11.722227
 30
0.0
 10
1.565669
 20
11.677656
 30
0.0
  0
SPLINE
  5
101
100
AcDbEntity
  8
0
 62
7
100
AcDbSpline
 70
8
 71
3
 72
8
 73
4
 74
0
 40
0
 40
0
 40
0
 40
0
 40
1
 40
1
 40
1
 40
1
 10
1.565669
 20
11.677656
 30
0.0
 10
1.459190
 20
11.608068
 30
0.0
 10
1.384467
 20
11.524360
 30
0.0
 10
1.329018
 20
11.412634
 30
0.0
  0
SPLINE
  5
102
100
AcDbEntity
  8
0
 62
7
100
AcDbSpline
 70
8
 71
3
 72
8
 73
4
 74
0
 40
0
 40
0
 40
0
 40
0
 40
1
 40
1
 40
1
 40
1
 10
1.329018
 20
11.412634
 30
0.0
 10
1.272409
 20
11.298572
 30
0.0
 10
1.249826
 20
11.233620
 30
0.0
 10
1.252186
 20
11.012939
 30
0.0
  0
SPLINE
  5
103
100
AcDbEntity
  8
0
 62
7
100
AcDbSpline
 70
8
 71
3
 72
8
 73
4
 74
0
 40
0
 40
0
 40
0
 40
0
 40
1
 40
1
 40
1
 40
1
 10
1.252186
 20
11.012939
 30
0.0
 10
1.253232
 20
10.915091
 30
0.0
 10
1.259665
 20
10.840363
 30
0.0
 10
1.254390
 20
10.776284
 30
0.0
  0
SPLINE
  5
104
100
AcDbEntity
  8
0
 62
7
100
AcDbSpline
 70
8
 71
3
 72
8
 73
4
 74
0
 40
0
 40
0
 40
0
 40
0
 40
1
 40
1
 40
1
 40
1
 10
1.254390
 20
10.776284
 30
0.0
 10
1.248653
 20
10.706599
 30
0.0
 10
1.250184
 20
10.406182
 30
0.0
 10
1.254218
 20
10.269909
 30
0.0
  0
SPLINE
  5
105
100
AcDbEntity
  8
0
 62
7
100
AcDbSpline
 70
8
 71
3
 72
8
 73
4
 74
0
 40
0
 40
0
 40
0
 40
0
 40
1
 40
1
 40
1
 40
1
 10
1.254218
 20
10.269909
 30
0.0
 10
1.258199
 20
10.135392
 30
0.0
 10
1.257685
 20
10.009173
 30
0.0
 10
1.253160
 20
9.892747
 30
0.0
  0
SPLINE
  5
106
100
AcDbEntity
  8
0
 62
7
100
AcDbSpline
 70
8
 71
3
 72
8
 73
4
 74
0
 40
0
 40
0
 40
0
 40
0
 40
1
 40
1
 40
1
 40
1
 10
1.253160
 20
9.892747
 30
0.0
 10
1.248574
 20
9.774767
 30
0.0
 10
1.245225
 20
9.633035
 30
0.0
 10
1.245679
 20
9.575354
 30
0.0
  0
SPLINE
  5
107
100
AcDbEntity
  8
0
 62
7
100
AcDbSpline
 70
8
 71
3
 72
8
 73
4
 74
0
 40
0
 40
0
 40
0
 40
0
 40
1
 40
1
 40
1
 40
1
 10
1.245679
 20
9.575354
 30
0.0
 10
1.250470
 20
8.966763
 30
0.0
 10
1.249956
 20
8.805159
 30
0.0
 10
1.242943
 20
8.673818
 30
0.0
  0
SPLINE
  5
108
100
AcDbEntity
  8
0
 62
7
100
AcDbSpline
 70
8
 71
3
 72
8
 73
4
 74
0
 40
0
 40
0
 40
0
 40
0
 40
1
 40
1
 40
1
 40
1
 10
1.242943
 20
8.673818
 30
0.0
 10
1.238293
 20
8.586751
 30
0.0
 10
1.238978
 20
8.410290
 30
0.0
 10
1.244347
 20
8.277874
 30
0.0
  0
SPLINE
  5
109
100
AcDbEntity
  8
0
 62
7
100
AcDbSpline
 70
8
 71
3
 72
8
 73
4
 74
0
 40
0
 40
0
 40
0
 40
0
 40
1
 40
1
 40
1
 40
1
 10
1.244347
 20
8.277874
 30
0.0
 10
1.249616
 20
8.147910
 30
0.0
 10
1.248166
 20
7.921271
 30
0.0
 10
1.241087
 20
7.777371
 30
0.0
  0
SPLINE
  5
10a
100
AcDbEntity
  8
0
 62
7
100
AcDbSpline
 70
8
 71
3
 72
8
 73
4
 74
0
 40
0
 40
0
 40
0
 40
0
 40
1
 40
1
 40
1
 40
1
 10
1.241087
 20
7.777371
 30
0.0
 10
1.232942
 20
7.611824
 30
0.0
 10
1.233379
 20
7.441811
 30
0.0
 10
1.240659
 20
7.300475
 30
0.0
  0
SPLINE
  5
10b
100
AcDbEntity
  8
0
 62
7
100
AcDbSpline
 70
8
 71
3
 72
8
 73
4
 74
0
 40
0
 40
0
 40
0
 40
0
 40
1
 40
1
 40
1
 40
1
 10
1.240659
 20
7.300475
 30
0.0
 10
1.247939
 20
7.159139
 30
0.0
 10
1.260171
 20
7.049500
 30
0.0
 10
1.282910
 20
6.991782
 30
0.0
  0
SPLINE
  5
10c
100
AcDbEntity
  8
0
 62
7
100
AcDbSpline
 70
8
 71
3
 72
8
 73
4
 74
0
 40
0
 40
0
 40
0
 40
0
 40
1
 40
1
 40
1
 40
1
 10
1.282910
 20
6.991782
 30
0.0
 10
1.304501
 20
6.936978
 30
0.0
 10
1.356599
 20
6.880583
 30
0.0
 10
1.417194
 20
6.831225
 30
0.0
  0
SPLINE
  5
10d
100
AcDbEntity
  8
0
 62
7
100
AcDbSpline
 70
8
 71
3
 72
8
 73
4
 74
0
 40
0
 40
0
 40
0
 40
0
 40
1
 40
1
 40
1
 40
1
 10
1.417194
 20
6.831225
 30
0.0
 10
1.477789
 20
6.781866
 30
0.0
 10
1.545996
 20
6.740897
 30
0.0
 10
1.606582
 20
6.727214
 30
0.0
  0
SPLINE
  5
10e
100
AcDbEntity
  8
0
 62
7
100
AcDbSpline
 70
8
 71
3
 72
8
 73
4
 74
0
 40
0
 40
0
 40
0
 40
0
 40
1
 40
1
 40
1
 40
1
 10
1.606582
 20
6.727214
 30
0.0
 10
1.936328
 20
6.652739
 30
0.0
 10
2.875205
 20
6.536464
 30
0.0
 10
3.413624
 20
6.502666
 30
0.0
  0
SPLINE
  5
10f
100
AcDbEntity
  8
0
 62
7
100
AcDbSpline
 70
8
 71
3
 72
8
 73
4
 74
0
 40
0
 40
0
 40
0
 40
0
 40
1
 40
1
 40
1
 40
1
 10
3.413624
 20
6.502666
 30
0.0
 10
3.526452
 20
6.495583
 30
0.0
 10
3.666232
 20
6.484335
 30
0.0
 10
3.721604
 20
6.477952
 30
0.0
  0
SPLINE
  5
110
100
AcDbEntity
  8
0
 62
7
100
AcDbSpline
 70
8
 71
3
 72
8
 73
4
 74
0
 40
0
 40
0
 40
0
 40
0
 40
1
 40
1
 40
1
 40
1
 10
3.721604
 20
6.477952
 30
0.0
 10
3.780868
 20
6.471123
 30
0.0
 10
3.896067
 20
6.465038
 30
0.0
 10
3.981586
 20
6.464029
 30
0.0
  0
SPLINE
  5
111
100
AcDbEntity
  8
0
 62
7
100
AcDbSpline
 70
8
 71
3
 72
8
 73
4
 74
0
 40
0
 40
0
 40
0
 40
0
 40
1
 40
1
 40
1
 40
1
 10
3.981586
 20
6.464029
 30
0.0
 10
4.064819
 20
6.463049
 30
0.0
 10
4.173832
 20
6.456024
 30
0.0
 10
4.217800
 20
6.449372
 30
0.0
  0
SPLINE
  5
112
100
AcDbEntity
  8
0
 62
7
100
AcDbSpline
 70
8
 71
3
 72
8
 73
4
 74
0
 40
0
 40
0
 40
0
 40
0
 40
1
 40
1
 40
1
 40
1
 10
4.217800
 20
6.449372
 30
0.0
 10
4.269269
 20
6.441583
 30
0.0
 10
4.380151
 20
6.434916
 30
0.0
 10
4.470439
 20
6.433641
 30
0.0
  0
SPLINE
  5
113
100
AcDbEntity
  8
0
 62
7
100
AcDbSpline
 70
8
 71
3
 72
8
 73
4
 74
0
 40
0
 40
0
 40
0
 40
0
 40
1
 40
1
 40
1
 40
1
 10
4.470439
 20
6.433641
 30
0.0
 10
4.558780
 20
6.432393
 30
0.0
 10
4.747455
 20
6.425893
 30
0.0
 10
4.888432
 20
6.419174
 30
0.0
  0
SPLINE
  5
114
100
AcDbEntity
  8
0
 62
7
100
AcDbSpline
 70
8
 71
3
 72
8
 73
4
 74
0
 40
0
 40
0
 40
0
 40
0
 40
1
 40
1
 40
1
 40
1
 10
4.888432
 20
6.419174
 30
0.0
 10
5.234099
 20
6.402699
 30
0.0
 10
5.377495
 20
6.399646
 30
0.0
 10
5.539706
 20
6.405588
 30
0.0
  0
SPLINE
  5
115
100
AcDbEntity
  8
0
 62
7
100
AcDbSpline
 70
8
 71
3
 72
8
 73
4
 74
0
 40
0
 40
0
 40
0
 40
0
 40
1
 40
1
 40
1
 40
1
 10
5.539706
 20
6.405588
 30
0.0
 10
5.691173
 20
6.411135
 30
0.0
 10
5.851208
 20
6.407070
 30
0.0
 10
6.040590
 20
6.392830
 30
0.0
  0
SPLINE
  5
116
100
AcDbEntity
  8
0
 62
7
100
AcDbSpline
 70
8
 71
3
 72
8
 73
4
 74
0
 40
0
 40
0
 40
0
 40
0
 40
1
 40
1
 40
1
 40
1
 10
6.040590
 20
6.392830
 30
0.0
 10
6.115246
 20
6.387218
 30
0.0
 10
6.294045
 20
6.388333
 30
0.0
 10
6.444132
 20
6.394740
 30
0.0
  0
SPLINE
  5
117
100
AcDbEntity
  8
0
 62
7
100
AcDbSpline
 70
8
 71
3
 72
8
 73
4
 74
0
 40
0
 40
0
 40
0
 40
0
 40
1
 40
1
 40
1
 40
1
 10
6.444132
 20
6.394740
 30
0.0
 10
6.592602
 20
6.401077
 30
0.0
 10
6.792157
 20
6.403522
 30
0.0
 10
6.884325
 20
6.400247
 30
0.0
  0
SPLINE
  5
118
100
AcDbEntity
  8
0
 62
7
100
AcDbSpline
 70
8
 71
3
 72
8
 73
4
 74
0
 40
0
 40
0
 40
0
 40
0
 40
1
 40
1
 40
1
 40
1
 10
6.884325
 20
6.400247
 30
0.0
 10
7.197416
 20
6.389122
 30
0.0
 10
7.482836
 20
6.395980
 30
0.0
 10
8.585660
 20
6.441233
 30
0.0
  0
SPLINE
  5
119
100
AcDbEntity
  8
0
 62
7
100
AcDbSpline
 70
8
 71
3
 72
8
 73
4
 74
0
 40
0
 40
0
 40
0
 40
0
 40
1
 40
1
 40
1
 40
1
 10
8.585660
 20
6.441233
 30
0.0
 10
8.718770
 20
6.446695
 30
0.0
 10
9.162055
 20
6.482401
 30
0.0
 10
9.575071
 20
6.520730
 30
0.0
  0
SPLINE
  5
11a
100
AcDbEntity
  8
0
 62
7
100
AcDbSpline
 70
8
 71
3
 72
8
 73
4
 74
0
 40
0
 40
0
 40
0
 40
0
 40
1
 40
1
 40
1
 40
1
 10
9.575071
 20
6.520730
 30
0.0
 10
9.585882
 20
6.521752
 30
0.0
 10
9.592880
 20
6.522410
 30
0.0
 10
9.603614
 20
6.523423
 30
0.0
  0
SPLINE
  5
11b
100
AcDbEntity
  8
0
 62
7
100
AcDbSpline
 70
8
 71
3
 72
8
 73
4
 74
0
 40
0
 40
0
 40
0
 40
0
 40
1
 40
1
 40
1
 40
1
 10
9.603614
 20
6.523423
 30
0.0
 10
9.797845
 20
6.541509
 30
0.0
 10
9.982353
 20
6.559197
 30
0.0
 10
10.119927
 20
6.572931
 30
0.0
  0
SPLINE
  5
11c
100
AcDbEntity
  8
0
 62
7
100
AcDbSpline
 70
8
 71
3
 72
8
 73
4
 74
0
 40
0
 40
0
 40
0
 40
0
 40
1
 40
1
 40
1
 40
1
 10
10.119927
 20
6.572931
 30
0.0
 10
10.192515
 20
6.580175
 30
0.0
 10
10.253059
 20
6.586380
 30
0.0
 10
10.297276
 20
6.591160
 30
0.0
  0
SPLINE
  5
11d
100
AcDbEntity
  8
0
 62
7
100
AcDbSpline
 70
8
 71
3
 72
8
 73
4
 74
0
 40
0
 40
0
 40
0
 40
0
 40
1
 40
1
 40
1
 40
1
 10
10.297276
 20
6.591160
 30
0.0
 10
10.341495
 20
6.595923
 30
0.0
 10
10.365618
 20
6.598470
 30
0.0
 10
10.378591
 20
6.601127
 30
0.0
  0
SPLINE
  5
11e
100
AcDbEntity
  8
0
 62
7
100
AcDbSpline
 70
8
 71
3
 72
8
 73
4
 74
0
 40
0
 40
0
 40
0
 40
0
 40
1
 40
1
 40
1
 40
1
 10
10.378591
 20
6.601127
 30
0.0
 10
10.405590
 20
6.606665
 30
0.0
 10
10.488316
 20
6.622841
 30
0.0
 10
10.561652
 20
6.636955
 30
0.0
  0
SPLINE
  5
11f
100
AcDbEntity
  8
0
 62
7
100
AcDbSpline
 70
8
 71
3
 72
8
 73
4
 74
0
 40
0
 40
0
 40
0
 40
0
 40
1
 40
1
 40
1
 40
1
 10
10.561652
 20
6.636955
 30
0.0
 10
10.715941
 20
6.666650
 30
0.0
 10
10.833795
 20
6.719944
 30
0.0
 10
10.919513
 20
6.801650
 30
0.0
  0
SPLINE
  5
120
100
AcDbEntity
  8
0
 62
7
100
AcDbSpline
 70
8
 71
3
 72
8
 73
4
 74
0
 40
0
 40
0
 40
0
 40
0
 40
1
 40
1
 40
1
 40
1
 10
10.919513
 20
6.801650
 30
0.0
 10
11.002304
 20
6.880565
 30
0.0
 10
11.053781
 20
7.048348
 30
0.0
 10
11.052162
 20
7.201064
 30
0.0
  0
SPLINE
  5
121
100
AcDbEntity
  8
0
 62
7
100
AcDbSpline
 70
8
 71
3
 72
8
 73
4
 74
0
 40
0
 40
0
 40
0
 40
0
 40
1
 40
1
 40
1
 40
1
 10
11.052162
 20
7.201064
 30
0.0
 10
11.051520
 20
7.261601
 30
0.0
 10
11.051316
 20
7.372780
 30
0.0
 10
11.051707
 20
7.447591
 30
0.0
  0
SPLINE
  5
122
100
AcDbEntity
  8
0
 62
7
100
AcDbSpline
 70
8
 71
3
 72
8
 73
4
 74
0
 40
0
 40
0
 40
0
 40
0
 40
1
 40
1
 40
1
 40
1
 10
11.051707
 20
7.447591
 30
0.0
 10
11.052100
 20
7.522667
 30
0.0
 10
11.052528
 20
7.660739
 30
0.0
 10
11.052689
 20
7.754507
 30
0.0
  0
SPLINE
  5
123
100
AcDbEntity
  8
0
 62
7
100
AcDbSpline
 70
8
 71
3
 72
8
 73
4
 74
0
 40
0
 40
0
 40
0
 40
0
 40
1
 40
1
 40
1
 40
1
 10
11.052689
 20
7.754507
 30
0.0
 10
11.052849
 20
7.847548
 30
0.0
 10
11.056612
 20
8.025657
 30
0.0
 10
11.060964
 20
8.149189
 30
0.0
  0
SPLINE
  5
124
100
AcDbEntity
  8
0
 62
7
100
AcDbSpline
 70
8
 71
3
 72
8
 73
4
 74
0
 40
0
 40
0
 40
0
 40
0
 40
1
 40
1
 40
1
 40
1
 10
11.060964
 20
8.149189
 30
0.0
 10
11.065359
 20
8.273934
 30
0.0
 10
11.065262
 20
8.409947
 30
0.0
 10
11.059576
 20
8.461500
 30
0.0
  0
SPLINE
  5
125
100
AcDbEntity
  8
0
 62
7
100
AcDbSpline
 70
8
 71
3
 72
8
 73
4
 74
0
 40
0
 40
0
 40
0
 40
0
 40
1
 40
1
 40
1
 40
1
 10
11.059576
 20
8.461500
 30
0.0
 10
11.055385
 20
8.499506
 30
0.0
 10
11.054141
 20
8.629305
 30
0.0
 10
11.056413
 20
8.775835
 30
0.0
  0
SPLINE
  5
126
100
AcDbEntity
  8
0
 62
7
100
AcDbSpline
 70
8
 71
3
 72
8
 73
4
 74
0
 40
0
 40
0
 40
0
 40
0
 40
1
 40
1
 40
1
 40
1
 10
11.056413
 20
8.775835
 30
0.0
 10
11.058685
 20
8.922365
 30
0.0
 10
11.064037
 20
9.088556
 30
0.0
 10
11.071367
 20
9.209522
 30
0.0
  0
SPLINE
  5
127
100
AcDbEntity
  8
0
 62
7
100
AcDbSpline
 70
8
 71
3
 72
8
 73
4
 74
0
 40
0
 40
0
 40
0
 40
0
 40
1
 40
1
 40
1
 40
1
 10
11.071367
 20
9.209522
 30
0.0
 10
11.076365
 20
9.291981
 30
0.0
 10
11.070926
 20
9.440367
 30
0.0
 10
11.059406
 20
9.545291
 30
0.0
  0
SPLINE
  5
128
100
AcDbEntity
  8
0
 62
7
100
AcDbSpline
 70
8
 71
3
 72
8
 73
4
 74
0
 40
0
 40
0
 40
0
 40
0
 40
1
 40
1
 40
1
 40
1
 10
11.059406
 20
9.545291
 30
0.0
 10
11.036867
 20
9.750706
 30
0.0
 10
11.047195
 20
9.840189
 30
0.0
 10
11.086174
 20
9.892986
 30
0.0
  0
SPLINE
  5
129
100
AcDbEntity
  8
0
 62
7
100
AcDbSpline
 70
8
 71
3
 72
8
 73
4
 74
0
 40
0
 40
0
 40
0
 40
0
 40
1
 40
1
 40
1
 40
1
 10
11.086174
 20
9.892986
 30
0.0
 10
11.095602
 20
9.905757
 30
0.0
 10
11.102711
 20
9.913258
 30
0.0
 10
11.108998
 20
9.917354
 30
0.0
  0
SPLINE
  5
12a
100
AcDbEntity
  8
0
 62
7
100
AcDbSpline
 70
8
 71
3
 72
8
 73
4
 74
0
 40
0
 40
0
 40
0
 40
0
 40
1
 40
1
 40
1
 40
1
 10
11.108998
 20
9.917354
 30
0.0
 10
11.115285
 20
9.921449
 30
0.0
 10
11.121617
 20
9.923698
 30
0.0
 10
11.135314
 20
9.924141
 30
0.0
  0
SPLINE
  5
12b
100
AcDbEntity
  8
0
 62
7
100
AcDbSpline
 70
8
 71
3
 72
8
 73
4
 74
0
 40
0
 40
0
 40
0
 40
0
 40
1
 40
1
 40
1
 40
1
 10
11.135314
 20
9.924141
 30
0.0
 10
11.162709
 20
9.925021
 30
0.0
 10
11.215983
 20
9.914366
 30
0.0
 10
11.311160
 20
9.890624
 30
0.0
  0
SPLINE
  5
12c
100
AcDbEntity
  8
0
 62
7
100
AcDbSpline
 70
8
 71
3
 72
8
 73
4
 74
0
 40
0
 40
0
 40
0
 40
0
 40
1
 40
1
 40
1
 40
1
 10
11.311160
 20
9.890624
 30
0.0
 10
11.487571
 20
9.846617
 30
0.0
 10
11.614403
 20
9.821572
 30
0.0
 10
11.711239
 20
9.812288
 30
0.0
  0
SPLINE
  5
12d
100
AcDbEntity
  8
0
 62
7
100
AcDbSpline
 70
8
 71
3
 72
8
 73
4
 74
0
 40
0
 40
0
 40
0
 40
0
 40
1
 40
1
 40
1
 40
1
 10
11.711239
 20
9.812288
 30
0.0
 10
11.738637
 20
9.809664
 30
0.0
 10
11.785824
 20
9.794280
 30
0.0
 10
11.802908
 20
9.783686
 30
0.0
  0
SPLINE
  5
12e
100
AcDbEntity
  8
0
 62
7
100
AcDbSpline
 70
8
 71
3
 72
8
 73
4
 74
0
 40
0
 40
0
 40
0
 40
0
 40
1
 40
1
 40
1
 40
1
 10
11.802908
 20
9.783686
 30
0.0
 10
11.861017
 20
9.747654
 30
0.0
 10
11.954495
 20
9.731117
 30
0.0
 10
12.390431
 20
9.665237
 30
0.0
  0
SPLINE
  5
12f
100
AcDbEntity
  8
0
 62
7
100
AcDbSpline
 70
8
 71
3
 72
8
 73
4
 74
0
 40
0
 40
0
 40
0
 40
0
 40
1
 40
1
 40
1
 40
1
 10
12.390431
 20
9.665237
 30
0.0
 10
12.789157
 20
9.604979
 30
0.0
 10
13.083219
 20
9.573373
 30
0.0
 10
13.316153
 20
9.565893
 30
0.0
  0
SPLINE
  5
130
100
AcDbEntity
  8
0
 62
7
100
AcDbSpline
 70
8
 71
3
 72
8
 73
4
 74
0
 40
0
 40
0
 40
0
 40
0
 40
1
 40
1
 40
1
 40
1
 10
13.316153
 20
9.565893
 30
0.0
 10
13.569935
 20
9.557743
 30
0.0
 10
13.874279
 20
9.560891
 30
0.0
 10
14.133040
 20
9.571347
 30
0.0
  0
SPLINE
  5
131
100
AcDbEntity
  8
0
 62
7
100
AcDbSpline
 70
8
 71
3
 72
8
 73
4
 74
0
 40
0
 40
0
 40
0
 40
0
 40
1
 40
1
 40
1
 40
1
 10
14.133040
 20
9.571347
 30
0.0
 10
14.262420
 20
9.576575
 30
0.0
 10
14.380382
 20
9.583541
 30
0.0
 10
14.475063
 20
9.591984
 30
0.0
  0
SPLINE
  5
132
100
AcDbEntity
  8
0
 62
7
100
AcDbSpline
 70
8
 71
3
 72
8
 73
4
 74
0
 40
0
 40
0
 40
0
 40
0
 40
1
 40
1
 40
1
 40
1
 10
14.475063
 20
9.591984
 30
0.0
 10
14.569744
 20
9.600426
 30
0.0
 10
14.639700
 20
9.609527
 30
0.0
 10
14.679974
 20
9.621791
 30
0.0
  0
SPLINE
  5
133
100
AcDbEntity
  8
0
 62
7
100
AcDbSpline
 70
8
 71
3
 72
8
 73
4
 74
0
 40
0
 40
0
 40
0
 40
0
 40
1
 40
1
 40
1
 40
1
 10
14.679974
 20
9.621791
 30
0.0
 10
14.719396
 20
9.633792
 30
0.0
 10
14.796084
 20
9.644723
 30
0.0
 10
14.840756
 20
9.644401
 30
0.0
  0
SPLINE
  5
134
100
AcDbEntity
  8
0
 62
7
100
AcDbSpline
 70
8
 71
3
 72
8
 73
4
 74
0
 40
0
 40
0
 40
0
 40
0
 40
1
 40
1
 40
1
 40
1
 10
14.840756
 20
9.644401
 30
0.0
 10
14.905521
 20
9.643937
 30
0.0
 10
14.968234
 20
9.657187
 30
0.0
 10
15.035913
 20
9.685223
 30
0.0
  0
SPLINE
  5
135
100
AcDbEntity
  8
0
 62
7
100
AcDbSpline
 70
8
 71
3
 72
8
 73
4
 74
0
 40
0
 40
0
 40
0
 40
0
 40
1
 40
1
 40
1
 40
1
 10
15.035913
 20
9.685223
 30
0.0
 10
15.090891
 20
9.707994
 30
0.0
 10
15.150501
 20
9.720175
 30
0.0
 10
15.176248
 20
9.718224
 30
0.0
  0
SPLINE
  5
136
100
AcDbEntity
  8
0
 62
7
100
AcDbSpline
 70
8
 71
3
 72
8
 73
4
 74
0
 40
0
 40
0
 40
0
 40
0
 40
1
 40
1
 40
1
 40
1
 10
15.176248
 20
9.718224
 30
0.0
 10
15.198732
 20
9.716524
 30
0.0
 10
15.228030
 20
9.721697
 30
0.0
 10
15.275232
 20
9.729918
 30
0.0
  0
SPLINE
  5
137
100
AcDbEntity
  8
0
 62
7
100
AcDbSpline
 70
8
 71
3
 72
8
 73
4
 74
0
 40
0
 40
0
 40
0
 40
0
 40
1
 40
1
 40
1
 40
1
 10
15.275232
 20
9.729918
 30
0.0
 10
15.322433
 20
9.738139
 30
0.0
 10
15.383414
 20
9.750180
 30
0.0
 10
15.452826
 20
9.765032
 30
0.0
  0
SPLINE
  5
138
100
AcDbEntity
  8
0
 62
7
100
AcDbSpline
 70
8
 71
3
 72
8
 73
4
 74
0
 40
0
 40
0
 40
0
 40
0
 40
1
 40
1
 40
1
 40
1
 10
15.452826
 20
9.765032
 30
0.0
 10
15.591650
 20
9.794736
 30
0.0
 10
15.764092
 20
9.835409
 30
0.0
 10
15.925493
 20
9.877388
 30
0.0
  0
SPLINE
  5
139
100
AcDbEntity
  8
0
 62
7
100
AcDbSpline
 70
8
 71
3
 72
8
 73
4
 74
0
 40
0
 40
0
 40
0
 40
0
 40
1
 40
1
 40
1
 40
1
 10
15.925493
 20
9.877388
 30
0.0
 10
16.207678
 20
9.950782
 30
0.0
 10
16.483200
 20
9.931954
 30
0.0
 10
16.642503
 20
9.836000
 30
0.0
  0
SPLINE
  5
13a
100
AcDbEntity
  8
0
 62
7
100
AcDbSpline
 70
8
 71
3
 72
8
 73
4
 74
0
 40
0
 40
0
 40
0
 40
0
 40
1
 40
1
 40
1
 40
1
 10
16.642503
 20
9.836000
 30
0.0
 10
16.875803
 20
9.695476
 30
0.0
 10
17.145345
 20
9.629412
 30
0.0
 10
17.382290
 20
9.656476
 30
0.0
  0
SPLINE
  5
13b
100
AcDbEntity
  8
0
 62
7
100
AcDbSpline
 70
8
 71
3
 72
8
 73
4
 74
0
 40
0
 40
0
 40
0
 40
0
 40
1
 40
1
 40
1
 40
1
 10
17.382290
 20
9.656476
 30
0.0
 10
17.553396
 20
9.676015
 30
0.0
 10
17.752676
 20
9.760458
 30
0.0
 10
17.857614
 20
9.861411
 30
0.0
  0
SPLINE
  5
13c
100
AcDbEntity
  8
0
 62
7
100
AcDbSpline
 70
8
 71
3
 72
8
 73
4
 74
0
 40
0
 40
0
 40
0
 40
0
 40
1
 40
1
 40
1
 40
1
 10
17.857614
 20
9.861411
 30
0.0
 10
17.970548
 20
9.970056
 30
0.0
 10
18.139365
 20
10.217960
 30
0.0
 10
18.187565
 20
10.348581
 30
0.0
  0
SPLINE
  5
13d
100
AcDbEntity
  8
0
 62
7
100
AcDbSpline
 70
8
 71
3
 72
8
 73
4
 74
0
 40
0
 40
0
 40
0
 40
0
 40
1
 40
1
 40
1
 40
1
 10
18.187565
 20
10.348581
 30
0.0
 10
18.243980
 20
10.501468
 30
0.0
 10
18.272531
 20
10.789909
 30
0.0
 10
18.243711
 20
10.934779
 30
0.0
  0
SPLINE
  5
13e
100
AcDbEntity
  8
0
 62
7
100
AcDbSpline
 70
8
 71
3
 72
8
 73
4
 74
0
 40
0
 40
0
 40
0
 40
0
 40
1
 40
1
 40
1
 40
1
 10
18.243711
 20
10.934779
 30
0.0
 10
18.231517
 20
10.996071
 30
0.0
 10
18.195401
 20
11.075872
 30
0.0
 10
18.151917
 20
11.151600
 30
0.0
  0
SPLINE
  5
13f
100
AcDbEntity
  8
0
 62
7
100
AcDbSpline
 70
8
 71
3
 72
8
 73
4
 74
0
 40
0
 40
0
 40
0
 40
0
 40
1
 40
1
 40
1
 40
1
 10
18.151917
 20
11.151600
 30
0.0
 10
18.108433
 20
11.227329
 30
0.0
 10
18.058813
 20
11.297247
 30
0.0
 10
18.012977
 20
11.336269
 30
0.0
  0
SPLINE
  5
140
100
AcDbEntity
  8
0
 62
7
100
AcDbSpline
 70
8
 71
3
 72
8
 73
4
 74
0
 40
0
 40
0
 40
0
 40
0
 40
1
 40
1
 40
1
 40
1
 10
18.012977
 20
11.336269
 30
0.0
 10
17.921910
 20
11.413797
 30
0.0
 10
17.735925
 20
11.509772
 30
0.0
 10
17.603742
 20
11.548919
 30
0.0
  0
SPLINE
  5
141
100
AcDbEntity
  8
0
 62
7
100
AcDbSpline
 70
8
 71
3
 72
8
 73
4
 74
0
 40
0
 40
0
 40
0
 40
0
 40
1
 40
1
 40
1
 40
1
 10
17.603742
 20
11.548919
 30
0.0
 10
17.365641
 20
11.619433
 30
0.0
 10
16.939877
 20
11.661635
 30
0.0
 10
16.551061
 20
11.654893
 30
0.0
  0
SPLINE
  5
142
100
AcDbEntity
  8
0
 62
7
100
AcDbSpline
 70
8
 71
3
 72
8
 73
4
 74
0
 40
0
 40
0
 40
0
 40
0
 40
1
 40
1
 40
1
 40
1
 10
16.551061
 20
11.654893
 30
0.0
 10
16.449097
 20
11.653125
 30
0.0
 10
16.295246
 20
11.655491
 30
0.0
 10
16.211738
 20
11.660066
 30
0.0
  0
SPLINE
  5
143
100
AcDbEntity
  8
0
 62
7
100
AcDbSpline
 70
8
 71
3
 72
8
 73
4
 74
0
 40
0
 40
0
 40
0
 40
0
 40
1
 40
1
 40
1
 40
1
 10
16.211738
 20
11.660066
 30
0.0
 10
16.124979
 20
11.664819
 30
0.0
 10
15.960236
 20
11.665121
 30
0.0
 10
15.842277
 20
11.660917
 30
0.0
  0
SPLINE
  5
144
100
AcDbEntity
  8
0
 62
7
100
AcDbSpline
 70
8
 71
3
 72
8
 73
4
 74
0
 40
0
 40
0
 40
0
 40
0
 40
1
 40
1
 40
1
 40
1
 10
15.842277
 20
11.660917
 30
0.0
 10
15.726631
 20
11.656795
 30
0.0
 10
15.534665
 20
11.658084
 30
0.0
 10
15.418467
 20
11.663760
 30
0.0
  0
SPLINE
  5
145
100
AcDbEntity
  8
0
 62
7
100
AcDbSpline
 70
8
 71
3
 72
8
 73
4
 74
0
 40
0
 40
0
 40
0
 40
0
 40
1
 40
1
 40
1
 40
1
 10
15.418467
 20
11.663760
 30
0.0
 10
15.300292
 20
11.669535
 30
0.0
 10
15.147273
 20
11.672829
 30
0.0
 10
15.075261
 20
11.670946
 30
0.0
  0
SPLINE
  5
146
100
AcDbEntity
  8
0
 62
7
100
AcDbSpline
 70
8
 71
3
 72
8
 73
4
 74
0
 40
0
 40
0
 40
0
 40
0
 40
1
 40
1
 40
1
 40
1
 10
15.075261
 20
11.670946
 30
0.0
 10
14.966207
 20
11.668094
 30
0.0
 10
14.531892
 20
11.670569
 30
0.0
 10
14.335051
 20
11.675279
 30
0.0
  0
SPLINE
  5
147
100
AcDbEntity
  8
0
 62
7
100
AcDbSpline
 70
8
 71
3
 72
8
 73
4
 74
0
 40
0
 40
0
 40
0
 40
0
 40
1
 40
1
 40
1
 40
1
 10
14.335051
 20
11.675279
 30
0.0
 10
14.297517
 20
11.676177
 30
0.0
 10
14.182255
 20
11.679049
 30
0.0
 10
14.078899
 20
11.681638
 30
0.0
  0
SPLINE
  5
148
100
AcDbEntity
  8
0
 62
7
100
AcDbSpline
 70
8
 71
3
 72
8
 73
4
 74
0
 40
0
 40
0
 40
0
 40
0
 40
1
 40
1
 40
1
 40
1
 10
14.078899
 20
11.681638
 30
0.0
 10
13.974288
 20
11.684258
 30
0.0
 10
13.784344
 20
11.682075
 30
0.0
 10
13.654595
 20
11.676884
 30
0.0
  0
SPLINE
  5
149
100
AcDbEntity
  8
0
 62
7
100
AcDbSpline
 70
8
 71
3
 72
8
 73
4
 74
0
 40
0
 40
0
 40
0
 40
0
 40
1
 40
1
 40
1
 40
1
 10
13.654595
 20
11.676884
 30
0.0
 10
13.526761
 20
11.671771
 30
0.0
 10
13.364502
 20
11.673289
 30
0.0
 10
13.300464
 20
11.679537
 30
0.0
  0
SPLINE
  5
14a
100
AcDbEntity
  8
0
 62
7
100
AcDbSpline
 70
8
 71
3
 72
8
 73
4
 74
0
 40
0
 40
0
 40
0
 40
0
 40
1
 40
1
 40
1
 40
1
 10
13.300464
 20
11.679537
 30
0.0
 10
13.229442
 20
11.686466
 30
0.0
 10
13.082721
 20
11.689596
 30
0.0
 10
12.969434
 20
11.686956
 30
0.0
  0
SPLINE
  5
14b
100
AcDbEntity
  8
0
 62
7
100
AcDbSpline
 70
8
 71
3
 72
8
 73
4
 74
0
 40
0
 40
0
 40
0
 40
0
 40
1
 40
1
 40
1
 40
1
 10
12.969434
 20
11.686956
 30
0.0
 10
12.789357
 20
11.682760
 30
0.0
 10
12.434826
 20
11.683867
 30
0.0
 10
12.084311
 20
11.689728
 30
0.0
  0
SPLINE
  5
14c
100
AcDbEntity
  8
0
 62
7
100
AcDbSpline
 70
8
 71
3
 72
8
 73
4
 74
0
 40
0
 40
0
 40
0
 40
0
 40
1
 40
1
 40
1
 40
1
 10
12.084311
 20
11.689728
 30
0.0
 10
12.018144
 20
11.690834
 30
0.0
 10
11.857214
 20
11.691862
 30
0.0
 10
11.725883
 20
11.692128
 30
0.0
  0
SPLINE
  5
14d
100
AcDbEntity
  8
0
 62
7
100
AcDbSpline
 70
8
 71
3
 72
8
 73
4
 74
0
 40
0
 40
0
 40
0
 40
0
 40
1
 40
1
 40
1
 40
1
 10
11.725883
 20
11.692128
 30
0.0
 10
11.594815
 20
11.692394
 30
0.0
 10
11.391401
 20
11.693937
 30
0.0
 10
11.274289
 20
11.695457
 30
0.0
  0
SPLINE
  5
14e
100
AcDbEntity
  8
0
 62
7
100
AcDbSpline
 70
8
 71
3
 72
8
 73
4
 74
0
 40
0
 40
0
 40
0
 40
0
 40
1
 40
1
 40
1
 40
1
 10
11.274289
 20
11.695457
 30
0.0
 10
10.993011
 20
11.699107
 30
0.0
 10
10.852182
 20
11.699824
 30
0.0
 10
10.464204
 20
11.699738
 30
0.0
  0
SPLINE
  5
14f
100
AcDbEntity
  8
0
 62
7
100
AcDbSpline
 70
8
 71
3
 72
8
 73
4
 74
0
 40
0
 40
0
 40
0
 40
0
 40
1
 40
1
 40
1
 40
1
 10
10.464204
 20
11.699738
 30
0.0
 10
10.286374
 20
11.699698
 30
0.0
 10
10.093458
 20
11.701693
 30
0.0
 10
10.039019
 20
11.703983
 30
0.0
  0
SPLINE
  5
150
100
AcDbEntity
  8
0
 62
7
100
AcDbSpline
 70
8
 71
3
 72
8
 73
4
 74
0
 40
0
 40
0
 40
0
 40
0
 40
1
 40
1
 40
1
 40
1
 10
10.039019
 20
11.703983
 30
0.0
 10
9.980211
 20
11.706457
 30
0.0
 10
9.785767
 20
11.707552
 30
0.0
 10
9.602911
 20
11.706691
 30
0.0
  0
SPLINE
  5
151
100
AcDbEntity
  8
0
 62
7
100
AcDbSpline
 70
8
 71
3
 72
8
 73
4
 74
0
 40
0
 40
0
 40
0
 40
0
 40
1
 40
1
 40
1
 40
1
 10
9.602911
 20
11.706691
 30
0.0
 10
9.420577
 20
11.705832
 30
0.0
 10
9.193803
 20
11.707734
 30
0.0
 10
9.100875
 20
11.710780
 30
0.0
  0
SPLINE
  5
152
100
AcDbEntity
  8
0
 62
7
100
AcDbSpline
 70
8
 71
3
 72
8
 73
4
 74
0
 40
0
 40
0
 40
0
 40
0
 40
1
 40
1
 40
1
 40
1
 10
9.100875
 20
11.710780
 30
0.0
 10
9.005935
 20
11.713892
 30
0.0
 10
8.837366
 20
11.714892
 30
0.0
 10
8.724488
 20
11.713085
 30
0.0
  0
SPLINE
  5
153
100
AcDbEntity
  8
0
 62
7
100
AcDbSpline
 70
8
 71
3
 72
8
 73
4
 74
0
 40
0
 40
0
 40
0
 40
0
 40
1
 40
1
 40
1
 40
1
 10
8.724488
 20
11.713085
 30
0.0
 10
8.612890
 20
11.711299
 30
0.0
 10
8.451456
 20
11.712675
 30
0.0
 10
8.367886
 20
11.716020
 30
0.0
  0
SPLINE
  5
154
100
AcDbEntity
  8
0
 62
7
100
AcDbSpline
 70
8
 71
3
 72
8
 73
4
 74
0
 40
0
 40
0
 40
0
 40
0
 40
1
 40
1
 40
1
 40
1
 10
8.367886
 20
11.716020
 30
0.0
 10
8.280807
 20
11.719506
 30
0.0
 10
8.063470
 20
11.717470
 30
0.0
 10
7.880868
 20
11.711671
 30
0.0
  0
SPLINE
  5
155
100
AcDbEntity
  8
0
 62
7
100
AcDbSpline
 70
8
 71
3
 72
8
 73
4
 74
0
 40
0
 40
0
 40
0
 40
0
 40
1
 40
1
 40
1
 40
1
 10
7.880868
 20
11.711671
 30
0.0
 10
7.692708
 20
11.705696
 30
0.0
 10
7.542662
 20
11.703235
 30
0.0
 10
7.432005
 20
11.704321
 30
0.0
  0
SPLINE
  5
156
100
AcDbEntity
  8
0
 62
7
100
AcDbSpline
 70
8
 71
3
 72
8
 73
4
 74
0
 40
0
 40
0
 40
0
 40
0
 40
1
 40
1
 40
1
 40
1
 10
7.432005
 20
11.704321
 30
0.0
 10
7.321347
 20
11.705407
 30
0.0
 10
7.247861
 20
11.710936
 30
0.0
 10
7.222148
 20
11.717338
 30
0.0
  0
SPLINE
  5
157
100
AcDbEntity
  8
0
 62
7
100
AcDbSpline
 70
8
 71
3
 72
8
 73
4
 74
0
 40
0
 40
0
 40
0
 40
0
 40
1
 40
1
 40
1
 40
1
 10
7.222148
 20
11.717338
 30
0.0
 10
7.204195
 20
11.721808
 30
0.0
 10
7.180072
 20
11.723375
 30
0.0
 10
7.149613
 20
11.724313
 30
0.0
  0
SPLINE
  5
158
100
AcDbEntity
  8
0
 62
7
100
AcDbSpline
 70
8
 71
3
 72
8
 73
4
 74
0
 40
0
 40
0
 40
0
 40
0
 40
1
 40
1
 40
1
 40
1
 10
7.149613
 20
11.724313
 30
0.0
 10
7.119154
 20
11.725253
 30
0.0
 10
7.083866
 20
11.724890
 30
0.0
 10
7.050468
 20
11.723141
 30
0.0
  0
SPLINE
  5
159
100
AcDbEntity
  8
0
 62
7
100
AcDbSpline
 70
8
 71
3
 72
8
 73
4
 74
0
 40
0
 40
0
 40
0
 40
0
 40
1
 40
1
 40
1
 40
1
 10
7.050468
 20
11.723141
 30
0.0
 10
7.018988
 20
11.721492
 30
0.0
 10
6.984368
 20
11.721519
 30
0.0
 10
6.954562
 20
11.722768
 30
0.0
  0
SPLINE
  5
15a
100
AcDbEntity
  8
0
 62
7
100
AcDbSpline
 70
8
 71
3
 72
8
 73
4
 74
0
 40
0
 40
0
 40
0
 40
0
 40
1
 40
1
 40
1
 40
1
 10
6.954562
 20
11.722768
 30
0.0
 10
6.924757
 20
11.724019
 30
0.0
 10
6.898609
 20
11.727095
 30
0.0
 10
6.889491
 20
11.729457
 30
0.0
  0
SPLINE
  5
15b
100
AcDbEntity
  8
0
 62
7
100
AcDbSpline
 70
8
 71
3
 72
8
 73
4
 74
0
 40
0
 40
0
 40
0
 40
0
 40
1
 40
1
 40
1
 40
1
 10
6.889491
 20
11.729457
 30
0.0
 10
6.877389
 20
11.732592
 30
0.0
 10
6.863948
 20
11.733515
 30
0.0
 10
6.844665
 20
11.734608
 30
0.0
  0
SPLINE
  5
15c
100
AcDbEntity
  8
0
 62
7
100
AcDbSpline
 70
8
 71
3
 72
8
 73
4
 74
0
 40
0
 40
0
 40
0
 40
0
 40
1
 40
1
 40
1
 40
1
 10
6.844665
 20
11.734608
 30
0.0
 10
6.825382
 20
11.735702
 30
0.0
 10
6.801436
 20
11.736349
 30
0.0
 10
6.774232
 20
11.736602
 30
0.0
  0
SPLINE
  5
15d
100
AcDbEntity
  8
0
 62
7
100
AcDbSpline
 70
8
 71
3
 72
8
 73
4
 74
0
 40
0
 40
0
 40
0
 40
0
 40
1
 40
1
 40
1
 40
1
 10
6.774232
 20
11.736602
 30
0.0
 10
6.719824
 20
11.737107
 30
0.0
 10
6.652365
 20
11.736002
 30
0.0
 10
6.584391
 20
11.733080
 30
0.0
  0
SPLINE
  5
15e
100
AcDbEntity
  8
0
 62
7
100
AcDbSpline
 70
8
 71
3
 72
8
 73
4
 74
0
 40
0
 40
0
 40
0
 40
0
 40
1
 40
1
 40
1
 40
1
 10
6.584391
 20
11.733080
 30
0.0
 10
6.450440
 20
11.727323
 30
0.0
 10
6.276869
 20
11.727442
 30
0.0
 10
6.204057
 20
11.732954
 30
0.0
  0
SPLINE
  5
15f
100
AcDbEntity
  8
0
 62
7
100
AcDbSpline
 70
8
 71
3
 72
8
 73
4
 74
0
 40
0
 40
0
 40
0
 40
0
 40
1
 40
1
 40
1
 40
1
 10
6.204057
 20
11.732954
 30
0.0
 10
6.124531
 20
11.738976
 30
0.0
 10
5.929851
 20
11.739364
 30
0.0
 10
5.765659
 20
11.734300
 30
0.0
  0
SPLINE
  5
160
100
AcDbEntity
  8
0
 62
7
100
AcDbSpline
 70
8
 71
3
 72
8
 73
4
 74
0
 40
0
 40
0
 40
0
 40
0
 40
1
 40
1
 40
1
 40
1
 10
5.765659
 20
11.734300
 30
0.0
 10
5.602817
 20
11.729278
 30
0.0
 10
5.376607
 20
11.727387
 30
0.0
 10
5.265090
 20
11.730121
 30
0.0
  0
SPLINE
  5
161
100
AcDbEntity
  8
0
 62
7
100
AcDbSpline
 70
8
 71
3
 72
8
 73
4
 74
0
 40
0
 40
0
 40
0
 40
0
 40
1
 40
1
 40
1
 40
1
 10
5.265090
 20
11.730121
 30
0.0
 10
5.036939
 20
11.735716
 30
0.0
 10
4.967283
 20
11.736590
 30
0.0
 10
4.428650
 20
11.740036
 30
0.0
  0
SPLINE
  5
162
100
AcDbEntity
  8
0
 62
7
100
AcDbSpline
 70
8
 71
3
 72
8
 73
4
 74
0
 40
0
 40
0
 40
0
 40
0
 40
1
 40
1
 40
1
 40
1
 10
4.428650
 20
11.740036
 30
0.0
 10
4.166179
 20
11.742192
 30
0.0
 10
3.886911
 20
11.751944
 30
0.0
 10
3.645658
 20
11.748082
 30
0.0
  0
SPLINE
  5
163
100
AcDbEntity
  8
0
 62
7
100
AcDbSpline
 70
8
 71
3
 72
8
 73
4
 74
0
 40
0
 40
0
 40
0
 40
0
 40
1
 40
1
 40
1
 40
1
 10
3.645658
 20
11.748082
 30
0.0
 10
3.448463
 20
11.744777
 30
0.0
 10
3.216325
 20
11.745770
 30
0.0
 10
3.133978
 20
11.750109
 30
0.0
  0
SPLINE
  5
164
100
AcDbEntity
  8
0
 62
7
100
AcDbSpline
 70
8
 71
3
 72
8
 73
4
 74
0
 40
0
 40
0
 40
0
 40
0
 40
1
 40
1
 40
1
 40
1
 10
3.133978
 20
11.750109
 30
0.0
 10
3.047546
 20
11.754662
 30
0.0
 10
2.859920
 20
11.757298
 30
0.0
 10
2.714261
 20
11.756066
 30
0.0
  0
SPLINE
  5
165
100
AcDbEntity
  8
0
 62
7
100
AcDbSpline
 70
8
 71
3
 72
8
 73
4
 74
0
 40
0
 40
0
 40
0
 40
0
 40
1
 40
1
 40
1
 40
1
 10
2.714261
 20
11.756066
 30
0.0
 10
2.391299
 20
11.753334
 30
0.0
 10
2.212676
 20
11.754580
 30
0.0
 10
2.067753
 20
11.760639
 30
0.0
  0
SPLINE
  5
166
100
AcDbEntity
  8
0
 62
7
100
AcDbSpline
 70
8
 71
3
 72
8
 73
4
 74
0
 40
0
 40
0
 40
0
 40
0
 40
1
 40
1
 40
1
 40
1
 10
2.067753
 20
11.760639
 30
0.0
 10
2.003505
 20
11.763325
 30
0.0
 10
1.887394
 20
11.758194
 30
0.0
 10
1.804353
 20
11.749228
 30
0.0
  0
LWPOLYLINE
  5
167
100
AcDbEntity
  8
0
 62
7
100
AcDbPolyline
 90
10
 70
1
 10
3.696636
 20
5.722506
 30
0.0
 10
2.929114
 20
12.682246
 30
0.0
 10
9.888853
 20
13.449769
 30
0.0
 10
16.848594
 20
14.217292
 30
0.0
 10
17.616116
 20
7.257552
 30
0.0
 10
18.383639
 20
0.297812
 30
0.0
 10
11.423899
 20
-0.469711
 30
0.0
 10
4.464159
 20
-1.237234
 30
0.0
 10
3.696636
 20
5.722506
 30
0.0
 10
3.696636
 20
5.722506
 30
0.0
  0
LWPOLYLINE
  5
168
100
AcDbEntity
  8
0
 62
7
100
AcDbPolyline
 90
2
 70
1
 10
1.804353
 20
11.749228
 30
0.0
 10
1.804353
 20
11.749234
 30
0.0
  0
ENDSEC
  0
SECTION
  2
OBJECTS
  0
DICTIONARY
  5
C
330
0
100
AcDbDictionary
  3
ACAD_GROUP
350
D
  3
ACAD_MLINESTYLE
350
17
  0
DICTIONARY
  5
D
330
C
100
AcDbDictionary
  0
DICTIONARY
  5
1A
330
C
100
AcDbDictionary
  0
DICTIONARY
  5
17
330
C
100
AcDbDictionary
  3
STANDARD
350
18
  0
DICTIONARY
  5
19
330
C
100
AcDbDictionary
  0
ENDSEC
  0
EOF
