  0
SECTION
  2
HEADER
  9
$ACADVER
  1
AC1014
  9
$HANDSEED
  5
FFFF
  9
$MEASUREMENT
 70
     1
  0
ENDSEC
  0
SECTION
  2
TABLES
  0
TABLE
  2
VPORT
  5
8
330
0
100
AcDbSymbolTable
 70
     4
  0
VPORT
  5
2E
330
8
100
AcDbSymbolTableRecord
100
AcDbViewportTableRecord
  2
*ACTIVE
 70
     0
 10
0.0
 20
0.0
 11
1.0
 21
1.0
 12
210.0
 22
148.5
 13
0.0
 23
0.0
 14
10.0
 24
10.0
 15
10.0
 25
10.0
 16
0.0
 26
0.0
 36
1.0
 17
0.0
 27
0.0
 37
0.0
 40
341.0
 41
1.24
 42
50.0
 43
0.0
 44
0.0
 50
0.0
 51
0.0
 71
     0
 72
   100
 73
     1
 74
     3
 75
     0
 76
     0
 77
     0
 78
     0
  0
ENDTAB
  0
TABLE
  2
LTYPE
  5
5
330
0
100
AcDbSymbolTable
 70
     1
  0
LTYPE
  5
14
330
5
100
AcDbSymbolTableRecord
100
AcDbLinetypeTableRecord
  2
BYBLOCK
 70
     0
  3

 72
    65
 73
     0
 40
0.0
  0
LTYPE
  5
15
330
5
100
AcDbSymbolTableRecord
100
AcDbLinetypeTableRecord
  2
BYLAYER
 70
     0
  3

 72
    65
 73
     0
 40
0.0
  0
LTYPE
  5
16
330
5
100
AcDbSymbolTableRecord
100
AcDbLinetypeTableRecord
  2
CONTINUOUS
 70
     0
  3
Solid line
 72
    65
 73
     0
 40
0.0
  0
ENDTAB
  0
TABLE
  2
LAYER
  5
2
100
AcDbSymbolTable
 70
1
  0
LAYER
  5
50
100
AcDbSymbolTableRecord
100
AcDbLayerTableRecord
  2
0
 70
0
  6
CONTINUOUS
  0
ENDTAB
  0
TABLE
  2
STYLE
  5
3
330
0
100
AcDbSymbolTable
 70
     1
  0
STYLE
  5
11
330
3
100
AcDbSymbolTableRecord
100
AcDbTextStyleTableRecord
  2
STANDARD
 70
     0
 40
0.0
 41
1.0
 50
0.0
 71
     0
 42
2.5
  3
txt
  4

  0
ENDTAB
  0
TABLE
  2
VIEW
  5
6
330
0
100
AcDbSymbolTable
 70
     0
  0
ENDTAB
  0
TABLE
  2
UCS
  5
7
330
0
100
AcDbSymbolTable
 70
     0
  0
ENDTAB
  0
TABLE
  2
APPID
  5
9
330
0
100
AcDbSymbolTable
 70
     2
  0
APPID
  5
12
330
9
100
AcDbSymbolTableRecord
100
AcDbRegAppTableRecord
  2
ACAD
 70
     0
  0
ENDTAB
  0
TABLE
  2
DIMSTYLE
  5
A
330
0
100
AcDbSymbolTable
 70
     1
  0
DIMSTYLE
105
27
330
A
100
AcDbSymbolTableRecord
100
AcDbDimStyleTableRecord
  2
ISO-25
 70
     0
  3

  4

  5

  6

  7

 40
1.0
 41
2.5
 42
0.625
 43
3.75
 44
1.25
 45
0.0
 46
0.0
 47
0.0
 48
0.0
140
2.5
141
2.5
142
0.0
143
0.03937007874016
144
1.0
145
0.0
146
1.0
147
0.625
 71
     0
 72
     0
 73
     0
 74
     0
 75
     0
 76
     0
 77
     1
 78
     8
170
     0
171
     3
172
     1
173
     0
174
     0
175
     0
176
     0
177
     0
178
     0
270
     2
271
     2
272
     2
273
     2
274
     3
340
11
275
     0
280
     0
281
     0
282
     0
283
     0
284
     8
285
     0
286
     0
287
     3
288
     0
  0
ENDTAB
  0
TABLE
  2
BLOCK_RECORD
  5
1
330
0
100
AcDbSymbolTable
 70
     1
  0
BLOCK_RECORD
  5
1F
330
1
100
AcDbSymbolTableRecord
100
AcDbBlockTableRecord
  2
*MODEL_SPACE
  0
BLOCK_RECORD
  5
1B
330
1
100
AcDbSymbolTableRecord
100
AcDbBlockTableRecord
  2
*PAPER_SPACE
  0
ENDTAB
  0
ENDSEC
  0
SECTION
  2
BLOCKS
  0
BLOCK
  5
20
330
1F
100
AcDbEntity
  8
0
100
AcDbBlockBegin
  2
*MODEL_SPACE
 70
     0
 10
0.0
 20
0.0
 30
0.0
  3
*MODEL_SPACE
  1

  0
ENDBLK
  5
21
330
1F
100
AcDbEntity
  8
0
100
AcDbBlockEnd
  0
BLOCK
  5
1C
330
1B
100
AcDbEntity
 67
     1
  8
0
100
AcDbBlockBegin
  2
*PAPER_SPACE
  1

  0
ENDBLK
  5
1D
330
1B
100
AcDbEntity
 67
     1
  8
0
100
AcDbBlockEnd
  0
ENDSEC
  0
SECTION
  2
ENTITIES
  0
SPLINE
  5
100
100
AcDbEntity
  8
0
 62
7
100
AcDbSpline
 70
8
 71
3
 72
8
 73
4
 74
0
 40
0
 40
0
 40
0
 40
0
 40
1
 40
1
 40
1
 40
1
 10
11.231562
 20
7.075509
 30
0.0
 10
10.415877
 20
7.095496
 30
0.0
 10
8.836129
 20
7.082223
 30
0.0
 10
5.611371
 20
7.057320
 30
0.0
  0
SPLINE
  5
101
100
AcDbEntity
  8
0
 62
7
100
AcDbSpline
 70
8
 71
3
 72
8
 73
4
 74
0
 40
0
 40
0
 40
0
 40
0
 40
1
 40
1
 40
1
 40
1
 10
5.611371
 20
7.057320
 30
0.0
 10
4.712926
 20
7.050380
 30
0.0
 10
3.214097
 20
7.042153
 30
0.0
 10
2.281480
 20
7.038577
 30
0.0
  0
SPLINE
  5
102
100
AcDbEntity
  8
0
 62
7
100
AcDbSpline
 70
8
 71
3
 72
8
 73
4
 74
0
 40
0
 40
0
 40
0
 40
0
 40
1
 40
1
 40
1
 40
1
 10
2.281480
 20
7.038577
 30
0.0
 10
1.645442
 20
7.036150
 30
0.0
 10
1.212781
 20
7.025194
 30
0.0
 10
0.921081
 20
7.000543
 30
0.0
  0
SPLINE
  5
103
100
AcDbEntity
  8
0
 62
7
100
AcDbSpline
 70
8
 71
3
 72
8
 73
4
 74
0
 40
0
 40
0
 40
0
 40
0
 40
1
 40
1
 40
1
 40
1
 10
0.921081
 20
7.000543
 30
0.0
 10
0.775231
 20
6.988219
 30
0.0
 10
0.664420
 20
6.972883
 30
0.0
 10
0.576571
 20
6.950383
 30
0.0
  0
SPLINE
  5
104
100
AcDbEntity
  8
0
 62
7
100
AcDbSpline
 70
8
 71
3
 72
8
 73
4
 74
0
 40
0
 40
0
 40
0
 40
0
 40
1
 40
1
 40
1
 40
1
 10
0.576571
 20
6.950383
 30
0.0
 10
0.488723
 20
6.927884
 30
0.0
 10
0.416256
 20
6.903397
 30
0.0
 10
0.359944
 20
6.831320
 30
0.0
  0
SPLINE
  5
105
100
AcDbEntity
  8
0
 62
7
100
AcDbSpline
 70
8
 71
3
 72
8
 73
4
 74
0
 40
0
 40
0
 40
0
 40
0
 40
1
 40
1
 40
1
 40
1
 10
0.359944
 20
6.831320
 30
0.0
 10
0.323227
 20
6.784326
 30
0.0
 10
0.318566
 20
6.751962
 30
0.0
 10
0.308681
 20
6.712258
 30
0.0
  0
SPLINE
  5
106
100
AcDbEntity
  8
0
 62
7
100
AcDbSpline
 70
8
 71
3
 72
8
 73
4
 74
0
 40
0
 40
0
 40
0
 40
0
 40
1
 40
1
 40
1
 40
1
 10
0.308681
 20
6.712258
 30
0.0
 10
0.298795
 20
6.672553
 30
0.0
 10
0.290976
 20
6.627795
 30
0.0
 10
0.283876
 20
6.575557
 30
0.0
  0
SPLINE
  5
107
100
AcDbEntity
  8
0
 62
7
100
AcDbSpline
 70
8
 71
3
 72
8
 73
4
 74
0
 40
0
 40
0
 40
0
 40
0
 40
1
 40
1
 40
1
 40
1
 10
0.283876
 20
6.575557
 30
0.0
 10
0.269676
 20
6.471079
 30
0.0
 10
0.258867
 20
6.338363
 30
0.0
 10
0.250252
 20
6.184745
 30
0.0
  0
SPLINE
  5
108
100
AcDbEntity
  8
0
 62
7
100
AcDbSpline
 70
8
 71
3
 72
8
 73
4
 74
0
 40
0
 40
0
 40
0
 40
0
 40
1
 40
1
 40
1
 40
1
 10
0.250252
 20
6.184745
 30
0.0
 10
0.233021
 20
5.877508
 30
0.0
 10
0.225836
 20
5.487532
 30
0.0
 10
0.227652
 20
5.098300
 30
0.0
  0
SPLINE
  5
109
100
AcDbEntity
  8
0
 62
7
100
AcDbSpline
 70
8
 71
3
 72
8
 73
4
 74
0
 40
0
 40
0
 40
0
 40
0
 40
1
 40
1
 40
1
 40
1
 10
0.227652
 20
5.098300
 30
0.0
 10
0.229468
 20
4.709067
 30
0.0
 10
0.240083
 20
4.321313
 30
0.0
 10
0.260174
 20
4.017366
 30
0.0
  0
SPLINE
  5
10a
100
AcDbEntity
  8
0
 62
7
100
AcDbSpline
 70
8
 71
3
 72
8
 73
4
 74
0
 40
0
 40
0
 40
0
 40
0
 40
1
 40
1
 40
1
 40
1
 10
0.260174
 20
4.017366
 30
0.0
 10
0.270219
 20
3.865393
 30
0.0
 10
0.282425
 20
3.734862
 30
0.0
 10
0.297656
 20
3.632618
 30
0.0
  0
SPLINE
  5
10b
100
AcDbEntity
  8
0
 62
7
100
AcDbSpline
 70
8
 71
3
 72
8
 73
4
 74
0
 40
0
 40
0
 40
0
 40
0
 40
1
 40
1
 40
1
 40
1
 10
0.297656
 20
3.632618
 30
0.0
 10
0.305272
 20
3.581496
 30
0.0
 10
0.313587
 20
3.537558
 30
0.0
 10
0.324114
 20
3.498673
 30
0.0
  0
SPLINE
  5
10c
100
AcDbEntity
  8
0
 62
7
100
AcDbSpline
 70
8
 71
3
 72
8
 73
4
 74
0
 40
0
 40
0
 40
0
 40
0
 40
1
 40
1
 40
1
 40
1
 10
0.324114
 20
3.498673
 30
0.0
 10
0.334642
 20
3.459787
 30
0.0
 10
0.337759
 20
3.428153
 30
0.0
 10
0.383095
 20
3.379059
 30
0.0
  0
SPLINE
  5
10d
100
AcDbEntity
  8
0
 62
7
100
AcDbSpline
 70
8
 71
3
 72
8
 73
4
 74
0
 40
0
 40
0
 40
0
 40
0
 40
1
 40
1
 40
1
 40
1
 10
0.383095
 20
3.379059
 30
0.0
 10
0.436248
 20
3.321499
 30
0.0
 10
0.497476
 20
3.294449
 30
0.0
 10
0.572161
 20
3.267714
 30
0.0
  0
SPLINE
  5
10e
100
AcDbEntity
  8
0
 62
7
100
AcDbSpline
 70
8
 71
3
 72
8
 73
4
 74
0
 40
0
 40
0
 40
0
 40
0
 40
1
 40
1
 40
1
 40
1
 10
0.572161
 20
3.267714
 30
0.0
 10
0.646847
 20
3.240979
 30
0.0
 10
0.735913
 20
3.218698
 30
0.0
 10
0.842257
 20
3.198260
 30
0.0
  0
SPLINE
  5
10f
100
AcDbEntity
  8
0
 62
7
100
AcDbSpline
 70
8
 71
3
 72
8
 73
4
 74
0
 40
0
 40
0
 40
0
 40
0
 40
1
 40
1
 40
1
 40
1
 10
0.842257
 20
3.198260
 30
0.0
 10
1.054945
 20
3.157384
 30
0.0
 10
1.335412
 20
3.125381
 30
0.0
 10
1.678450
 20
3.100695
 30
0.0
  0
SPLINE
  5
110
100
AcDbEntity
  8
0
 62
7
100
AcDbSpline
 70
8
 71
3
 72
8
 73
4
 74
0
 40
0
 40
0
 40
0
 40
0
 40
1
 40
1
 40
1
 40
1
 10
1.678450
 20
3.100695
 30
0.0
 10
2.364528
 20
3.051323
 30
0.0
 10
3.300228
 20
3.033094
 30
0.0
 10
4.413581
 20
3.051086
 30
0.0
  0
SPLINE
  5
111
100
AcDbEntity
  8
0
 62
7
100
AcDbSpline
 70
8
 71
3
 72
8
 73
4
 74
0
 40
0
 40
0
 40
0
 40
0
 40
1
 40
1
 40
1
 40
1
 10
4.413581
 20
3.051086
 30
0.0
 10
5.048245
 20
3.061342
 30
0.0
 10
5.744336
 20
3.105798
 30
0.0
 10
6.295981
 20
3.162983
 30
0.0
  0
SPLINE
  5
112
100
AcDbEntity
  8
0
 62
7
100
AcDbSpline
 70
8
 71
3
 72
8
 73
4
 74
0
 40
0
 40
0
 40
0
 40
0
 40
1
 40
1
 40
1
 40
1
 10
6.295981
 20
3.162983
 30
0.0
 10
6.571803
 20
3.191575
 30
0.0
 10
6.811177
 20
3.223230
 30
0.0
 10
6.991063
 20
3.256138
 30
0.0
  0
SPLINE
  5
113
100
AcDbEntity
  8
0
 62
7
100
AcDbSpline
 70
8
 71
3
 72
8
 73
4
 74
0
 40
0
 40
0
 40
0
 40
0
 40
1
 40
1
 40
1
 40
1
 10
6.991063
 20
3.256138
 30
0.0
 10
7.081006
 20
3.272592
 30
0.0
 10
7.155721
 20
3.289038
 30
0.0
 10
7.216510
 20
3.307401
 30
0.0
  0
SPLINE
  5
114
100
AcDbEntity
  8
0
 62
7
100
AcDbSpline
 70
8
 71
3
 72
8
 73
4
 74
0
 40
0
 40
0
 40
0
 40
0
 40
1
 40
1
 40
1
 40
1
 10
7.216510
 20
3.307401
 30
0.0
 10
7.246905
 20
3.316582
 30
0.0
 10
7.274035
 20
3.326265
 30
0.0
 10
7.300295
 20
3.338820
 30
0.0
  0
SPLINE
  5
115
100
AcDbEntity
  8
0
 62
7
100
AcDbSpline
 70
8
 71
3
 72
8
 73
4
 74
0
 40
0
 40
0
 40
0
 40
0
 40
1
 40
1
 40
1
 40
1
 10
7.300295
 20
3.338820
 30
0.0
 10
7.326556
 20
3.351376
 30
0.0
 10
7.354285
 20
3.361980
 30
0.0
 10
7.386285
 20
3.406620
 30
0.0
  0
SPLINE
  5
116
100
AcDbEntity
  8
0
 62
7
100
AcDbSpline
 70
8
 71
3
 72
8
 73
4
 74
0
 40
0
 40
0
 40
0
 40
0
 40
1
 40
1
 40
1
 40
1
 10
7.386285
 20
3.406620
 30
0.0
 10
7.412912
 20
3.443765
 30
0.0
 10
7.409692
 20
3.454526
 30
0.0
 10
7.412743
 20
3.467254
 30
0.0
  0
SPLINE
  5
117
100
AcDbEntity
  8
0
 62
7
100
AcDbSpline
 70
8
 71
3
 72
8
 73
4
 74
0
 40
0
 40
0
 40
0
 40
0
 40
1
 40
1
 40
1
 40
1
 10
7.412743
 20
3.467254
 30
0.0
 10
7.415794
 20
3.479982
 30
0.0
 10
7.417690
 20
3.490672
 30
0.0
 10
7.419358
 20
3.502531
 30
0.0
  0
SPLINE
  5
118
100
AcDbEntity
  8
0
 62
7
100
AcDbSpline
 70
8
 71
3
 72
8
 73
4
 74
0
 40
0
 40
0
 40
0
 40
0
 40
1
 40
1
 40
1
 40
1
 10
7.419358
 20
3.502531
 30
0.0
 10
7.422691
 20
3.526249
 30
0.0
 10
7.425260
 20
3.553587
 30
0.0
 10
7.427627
 20
3.586316
 30
0.0
  0
SPLINE
  5
119
100
AcDbEntity
  8
0
 62
7
100
AcDbSpline
 70
8
 71
3
 72
8
 73
4
 74
0
 40
0
 40
0
 40
0
 40
0
 40
1
 40
1
 40
1
 40
1
 10
7.427627
 20
3.586316
 30
0.0
 10
7.432363
 20
3.651774
 30
0.0
 10
7.436252
 20
3.738702
 30
0.0
 10
7.439204
 20
3.843182
 30
0.0
  0
SPLINE
  5
11a
100
AcDbEntity
  8
0
 62
7
100
AcDbSpline
 70
8
 71
3
 72
8
 73
4
 74
0
 40
0
 40
0
 40
0
 40
0
 40
1
 40
1
 40
1
 40
1
 10
7.439204
 20
3.843182
 30
0.0
 10
7.445103
 20
4.052143
 30
0.0
 10
7.447242
 20
4.330295
 30
0.0
 10
7.444716
 20
4.629215
 30
0.0
  0
SPLINE
  5
11b
100
AcDbEntity
  8
0
 62
7
100
AcDbSpline
 70
8
 71
3
 72
8
 73
4
 74
0
 40
0
 40
0
 40
0
 40
0
 40
1
 40
1
 40
1
 40
1
 10
7.444716
 20
4.629215
 30
0.0
 10
7.442204
 20
4.925587
 30
0.0
 10
7.443248
 20
5.198436
 30
0.0
 10
7.446917
 20
5.398161
 30
0.0
  0
SPLINE
  5
11c
100
AcDbEntity
  8
0
 62
7
100
AcDbSpline
 70
8
 71
3
 72
8
 73
4
 74
0
 40
0
 40
0
 40
0
 40
0
 40
1
 40
1
 40
1
 40
1
 10
7.446917
 20
5.398161
 30
0.0
 10
7.448385
 20
5.478512
 30
0.0
 10
7.450216
 20
5.536124
 30
0.0
 10
7.452429
 20
5.588881
 30
0.0
  0
SPLINE
  5
11d
100
AcDbEntity
  8
0
 62
7
100
AcDbSpline
 70
8
 71
3
 72
8
 73
4
 74
0
 40
0
 40
0
 40
0
 40
0
 40
1
 40
1
 40
1
 40
1
 10
7.452429
 20
5.588881
 30
0.0
 10
7.480578
 20
5.584989
 30
0.0
 10
7.501525
 20
5.582647
 30
0.0
 10
7.537867
 20
5.576754
 30
0.0
  0
SPLINE
  5
11e
100
AcDbEntity
  8
0
 62
7
100
AcDbSpline
 70
8
 71
3
 72
8
 73
4
 74
0
 40
0
 40
0
 40
0
 40
0
 40
1
 40
1
 40
1
 40
1
 10
7.537867
 20
5.576754
 30
0.0
 10
7.672929
 20
5.554854
 30
0.0
 10
7.857852
 20
5.520136
 30
0.0
 10
8.057663
 20
5.478087
 30
0.0
  0
SPLINE
  5
11f
100
AcDbEntity
  8
0
 62
7
100
AcDbSpline
 70
8
 71
3
 72
8
 73
4
 74
0
 40
0
 40
0
 40
0
 40
0
 40
1
 40
1
 40
1
 40
1
 10
8.057663
 20
5.478087
 30
0.0
 10
8.869113
 20
5.307322
 30
0.0
 10
9.983477
 20
5.342114
 30
0.0
 10
10.702394
 20
5.565730
 30
0.0
  0
SPLINE
  5
120
100
AcDbEntity
  8
0
 62
7
100
AcDbSpline
 70
8
 71
3
 72
8
 73
4
 74
0
 40
0
 40
0
 40
0
 40
0
 40
1
 40
1
 40
1
 40
1
 10
10.702394
 20
5.565730
 30
0.0
 10
10.954085
 20
5.644017
 30
0.0
 10
11.136327
 20
5.641616
 30
0.0
 10
11.291092
 20
5.577307
 30
0.0
  0
SPLINE
  5
121
100
AcDbEntity
  8
0
 62
7
100
AcDbSpline
 70
8
 71
3
 72
8
 73
4
 74
0
 40
0
 40
0
 40
0
 40
0
 40
1
 40
1
 40
1
 40
1
 10
11.291092
 20
5.577307
 30
0.0
 10
11.469191
 20
5.503301
 30
0.0
 10
11.686227
 20
5.452748
 30
0.0
 10
11.853332
 20
5.464859
 30
0.0
  0
SPLINE
  5
122
100
AcDbEntity
  8
0
 62
7
100
AcDbSpline
 70
8
 71
3
 72
8
 73
4
 74
0
 40
0
 40
0
 40
0
 40
0
 40
1
 40
1
 40
1
 40
1
 10
11.853332
 20
5.464859
 30
0.0
 10
12.177733
 20
5.488365
 30
0.0
 10
12.405740
 20
5.750699
 30
0.0
 10
12.497702
 20
6.035918
 30
0.0
  0
SPLINE
  5
123
100
AcDbEntity
  8
0
 62
7
100
AcDbSpline
 70
8
 71
3
 72
8
 73
4
 74
0
 40
0
 40
0
 40
0
 40
0
 40
1
 40
1
 40
1
 40
1
 10
12.497702
 20
6.035918
 30
0.0
 10
12.589665
 20
6.321136
 30
0.0
 10
12.555915
 20
6.667023
 30
0.0
 10
12.300367
 20
6.866048
 30
0.0
  0
SPLINE
  5
124
100
AcDbEntity
  8
0
 62
7
100
AcDbSpline
 70
8
 71
3
 72
8
 73
4
 74
0
 40
0
 40
0
 40
0
 40
0
 40
1
 40
1
 40
1
 40
1
 10
12.300367
 20
6.866048
 30
0.0
 10
12.235396
 20
6.916644
 30
0.0
 10
12.152207
 20
6.981099
 30
0.0
 10
12.003814
 20
7.014876
 30
0.0
  0
SPLINE
  5
125
100
AcDbEntity
  8
0
 62
7
100
AcDbSpline
 70
8
 71
3
 72
8
 73
4
 74
0
 40
0
 40
0
 40
0
 40
0
 40
1
 40
1
 40
1
 40
1
 10
12.003814
 20
7.014876
 30
0.0
 10
11.855421
 20
7.048654
 30
0.0
 10
11.639404
 20
7.065517
 30
0.0
 10
11.231561
 20
7.075510
 30
0.0
  0
SPLINE
  5
126
100
AcDbEntity
  8
0
 62
7
100
AcDbSpline
 70
8
 71
3
 72
8
 73
4
 74
0
 40
0
 40
0
 40
0
 40
0
 40
1
 40
1
 40
1
 40
1
 10
11.224397
 20
6.793287
 30
0.0
 10
11.626208
 20
6.783440
 30
0.0
 10
11.834111
 20
6.764269
 30
0.0
 10
11.941528
 20
6.739819
 30
0.0
  0
SPLINE
  5
127
100
AcDbEntity
  8
0
 62
7
100
AcDbSpline
 70
8
 71
3
 72
8
 73
4
 74
0
 40
0
 40
0
 40
0
 40
0
 40
1
 40
1
 40
1
 40
1
 10
11.941528
 20
6.739819
 30
0.0
 10
12.048945
 20
6.715370
 30
0.0
 10
12.053927
 20
6.700056
 30
0.0
 10
12.126736
 20
6.643356
 30
0.0
  0
SPLINE
  5
128
100
AcDbEntity
  8
0
 62
7
100
AcDbSpline
 70
8
 71
3
 72
8
 73
4
 74
0
 40
0
 40
0
 40
0
 40
0
 40
1
 40
1
 40
1
 40
1
 10
12.126736
 20
6.643356
 30
0.0
 10
12.132101
 20
6.639176
 30
0.0
 10
12.131616
 20
6.630210
 30
0.0
 10
12.136659
 20
6.625717
 30
0.0
  0
SPLINE
  5
129
100
AcDbEntity
  8
0
 62
7
100
AcDbSpline
 70
8
 71
3
 72
8
 73
4
 74
0
 40
0
 40
0
 40
0
 40
0
 40
1
 40
1
 40
1
 40
1
 10
12.136659
 20
6.625717
 30
0.0
 10
12.068373
 20
6.699100
 30
0.0
 10
11.981056
 20
6.725120
 30
0.0
 10
11.883652
 20
6.742024
 30
0.0
  0
SPLINE
  5
12a
100
AcDbEntity
  8
0
 62
7
100
AcDbSpline
 70
8
 71
3
 72
8
 73
4
 74
0
 40
0
 40
0
 40
0
 40
0
 40
1
 40
1
 40
1
 40
1
 10
11.883652
 20
6.742024
 30
0.0
 10
11.817573
 20
6.753490
 30
0.0
 10
11.724809
 20
6.756894
 30
0.0
 10
11.578278
 20
6.761867
 30
0.0
  0
SPLINE
  5
12b
100
AcDbEntity
  8
0
 62
7
100
AcDbSpline
 70
8
 71
3
 72
8
 73
4
 74
0
 40
0
 40
0
 40
0
 40
0
 40
1
 40
1
 40
1
 40
1
 10
11.578278
 20
6.761867
 30
0.0
 10
11.431748
 20
6.766842
 30
0.0
 10
11.241850
 20
6.770553
 30
0.0
 10
11.023205
 20
6.773443
 30
0.0
  0
SPLINE
  5
12c
100
AcDbEntity
  8
0
 62
7
100
AcDbSpline
 70
8
 71
3
 72
8
 73
4
 74
0
 40
0
 40
0
 40
0
 40
0
 40
1
 40
1
 40
1
 40
1
 10
11.023205
 20
6.773443
 30
0.0
 10
10.585914
 20
6.779218
 30
0.0
 10
10.034121
 20
6.781292
 30
0.0
 10
9.490826
 20
6.779506
 30
0.0
  0
SPLINE
  5
12d
100
AcDbEntity
  8
0
 62
7
100
AcDbSpline
 70
8
 71
3
 72
8
 73
4
 74
0
 40
0
 40
0
 40
0
 40
0
 40
1
 40
1
 40
1
 40
1
 10
9.490826
 20
6.779506
 30
0.0
 10
8.947531
 20
6.777728
 30
0.0
 10
8.413274
 20
6.772061
 30
0.0
 10
8.010813
 20
6.763520
 30
0.0
  0
SPLINE
  5
12e
100
AcDbEntity
  8
0
 62
7
100
AcDbSpline
 70
8
 71
3
 72
8
 73
4
 74
0
 40
0
 40
0
 40
0
 40
0
 40
1
 40
1
 40
1
 40
1
 10
8.010813
 20
6.763520
 30
0.0
 10
7.809582
 20
6.759250
 30
0.0
 10
7.641287
 20
6.754543
 30
0.0
 10
7.520231
 20
6.748639
 30
0.0
  0
SPLINE
  5
12f
100
AcDbEntity
  8
0
 62
7
100
AcDbSpline
 70
8
 71
3
 72
8
 73
4
 74
0
 40
0
 40
0
 40
0
 40
0
 40
1
 40
1
 40
1
 40
1
 10
7.520231
 20
6.748639
 30
0.0
 10
7.459703
 20
6.745687
 30
0.0
 10
7.411571
 20
6.742407
 30
0.0
 10
7.374159
 20
6.738716
 30
0.0
  0
SPLINE
  5
130
100
AcDbEntity
  8
0
 62
7
100
AcDbSpline
 70
8
 71
3
 72
8
 73
4
 74
0
 40
0
 40
0
 40
0
 40
0
 40
1
 40
1
 40
1
 40
1
 10
7.374159
 20
6.738716
 30
0.0
 10
7.355454
 20
6.736882
 30
0.0
 10
7.339911
 20
6.735174
 30
0.0
 10
7.323448
 20
6.732101
 30
0.0
  0
SPLINE
  5
131
100
AcDbEntity
  8
0
 62
7
100
AcDbSpline
 70
8
 71
3
 72
8
 73
4
 74
0
 40
0
 40
0
 40
0
 40
0
 40
1
 40
1
 40
1
 40
1
 10
7.323448
 20
6.732101
 30
0.0
 10
7.315215
 20
6.730577
 30
0.0
 10
7.306853
 20
6.729075
 30
0.0
 10
7.294233
 20
6.724935
 30
0.0
  0
SPLINE
  5
132
100
AcDbEntity
  8
0
 62
7
100
AcDbSpline
 70
8
 71
3
 72
8
 73
4
 74
0
 40
0
 40
0
 40
0
 40
0
 40
1
 40
1
 40
1
 40
1
 10
7.294233
 20
6.724935
 30
0.0
 10
7.287923
 20
6.722875
 30
0.0
 10
7.280444
 20
6.720230
 30
0.0
 10
7.269429
 20
6.714462
 30
0.0
  0
SPLINE
  5
133
100
AcDbEntity
  8
0
 62
7
100
AcDbSpline
 70
8
 71
3
 72
8
 73
4
 74
0
 40
0
 40
0
 40
0
 40
0
 40
1
 40
1
 40
1
 40
1
 10
7.269429
 20
6.714462
 30
0.0
 10
7.263922
 20
6.711577
 30
0.0
 10
7.257468
 20
6.707652
 30
0.0
 10
7.249586
 20
6.701784
 30
0.0
  0
SPLINE
  5
134
100
AcDbEntity
  8
0
 62
7
100
AcDbSpline
 70
8
 71
3
 72
8
 73
4
 74
0
 40
0
 40
0
 40
0
 40
0
 40
1
 40
1
 40
1
 40
1
 10
7.249586
 20
6.701784
 30
0.0
 10
7.241700
 20
6.695917
 30
0.0
 10
7.222202
 20
6.675001
 30
0.0
 10
7.222024
 20
6.674776
 30
0.0
  0
SPLINE
  5
135
100
AcDbEntity
  8
0
 62
7
100
AcDbSpline
 70
8
 71
3
 72
8
 73
4
 74
0
 40
0
 40
0
 40
0
 40
0
 40
1
 40
1
 40
1
 40
1
 10
7.222024
 20
6.674776
 30
0.0
 10
7.188230
 20
6.631521
 30
0.0
 10
7.187616
 20
6.609495
 30
0.0
 10
7.181234
 20
6.583274
 30
0.0
  0
SPLINE
  5
136
100
AcDbEntity
  8
0
 62
7
100
AcDbSpline
 70
8
 71
3
 72
8
 73
4
 74
0
 40
0
 40
0
 40
0
 40
0
 40
1
 40
1
 40
1
 40
1
 10
7.181234
 20
6.583274
 30
0.0
 10
7.174853
 20
6.557053
 30
0.0
 10
7.170472
 20
6.530042
 30
0.0
 10
7.166902
 20
6.500041
 30
0.0
  0
SPLINE
  5
137
100
AcDbEntity
  8
0
 62
7
100
AcDbSpline
 70
8
 71
3
 72
8
 73
4
 74
0
 40
0
 40
0
 40
0
 40
0
 40
1
 40
1
 40
1
 40
1
 10
7.166902
 20
6.500041
 30
0.0
 10
7.159762
 20
6.440038
 30
0.0
 10
7.156280
 20
6.370167
 30
0.0
 10
7.157533
 20
6.298296
 30
0.0
  0
LWPOLYLINE
  5
138
100
AcDbEntity
  8
0
 62
7
100
AcDbPolyline
 90
2
 70
1
 10
11.231561
 20
7.075510
 30
0.0
 10
11.231562
 20
7.075509
 30
0.0
  0
SPLINE
  5
139
100
AcDbEntity
  8
0
 62
7
100
AcDbSpline
 70
8
 71
3
 72
8
 73
4
 74
0
 40
0
 40
0
 40
0
 40
0
 40
1
 40
1
 40
1
 40
1
 10
8.036170
 20
5.777949
 30
0.0
 10
8.907867
 20
5.610799
 30
0.0
 10
9.835093
 20
5.638290
 30
0.0
 10
10.615307
 20
5.857875
 30
0.0
  0
SPLINE
  5
13a
100
AcDbEntity
  8
0
 62
7
100
AcDbSpline
 70
8
 71
3
 72
8
 73
4
 74
0
 40
0
 40
0
 40
0
 40
0
 40
1
 40
1
 40
1
 40
1
 10
10.615307
 20
5.857875
 30
0.0
 10
10.761515
 20
5.899024
 30
0.0
 10
10.899392
 20
5.923188
 30
0.0
 10
11.010528
 20
5.930084
 30
0.0
  0
SPLINE
  5
13b
100
AcDbEntity
  8
0
 62
7
100
AcDbSpline
 70
8
 71
3
 72
8
 73
4
 74
0
 40
0
 40
0
 40
0
 40
0
 40
1
 40
1
 40
1
 40
1
 10
11.010528
 20
5.930084
 30
0.0
 10
11.121664
 20
5.936979
 30
0.0
 10
11.207244
 20
5.921566
 30
0.0
 10
11.231565
 20
5.910241
 30
0.0
  0
SPLINE
  5
13c
100
AcDbEntity
  8
0
 62
7
100
AcDbSpline
 70
8
 71
3
 72
8
 73
4
 74
0
 40
0
 40
0
 40
0
 40
0
 40
1
 40
1
 40
1
 40
1
 10
11.231565
 20
5.910241
 30
0.0
 10
11.394292
 20
5.834457
 30
0.0
 10
11.568109
 20
5.790472
 30
0.0
 10
11.722698
 20
5.779051
 30
0.0
  0
SPLINE
  5
13d
100
AcDbEntity
  8
0
 62
7
100
AcDbSpline
 70
8
 71
3
 72
8
 73
4
 74
0
 40
0
 40
0
 40
0
 40
0
 40
1
 40
1
 40
1
 40
1
 10
11.722698
 20
5.779051
 30
0.0
 10
11.793142
 20
5.773847
 30
0.0
 10
11.858393
 20
5.777527
 30
0.0
 10
11.921136
 20
5.788974
 30
0.0
  0
SPLINE
  5
13e
100
AcDbEntity
  8
0
 62
7
100
AcDbSpline
 70
8
 71
3
 72
8
 73
4
 74
0
 40
0
 40
0
 40
0
 40
0
 40
1
 40
1
 40
1
 40
1
 10
11.921136
 20
5.788974
 30
0.0
 10
11.890591
 20
5.777392
 30
0.0
 10
11.865547
 20
5.748894
 30
0.0
 10
11.832941
 20
5.746531
 30
0.0
  0
SPLINE
  5
13f
100
AcDbEntity
  8
0
 62
7
100
AcDbSpline
 70
8
 71
3
 72
8
 73
4
 74
0
 40
0
 40
0
 40
0
 40
0
 40
1
 40
1
 40
1
 40
1
 10
11.832941
 20
5.746531
 30
0.0
 10
11.764302
 20
5.741555
 30
0.0
 10
11.533005
 20
5.782635
 30
0.0
 10
11.399686
 20
5.838033
 30
0.0
  0
SPLINE
  5
140
100
AcDbEntity
  8
0
 62
7
100
AcDbSpline
 70
8
 71
3
 72
8
 73
4
 74
0
 40
0
 40
0
 40
0
 40
0
 40
1
 40
1
 40
1
 40
1
 10
11.399686
 20
5.838033
 30
0.0
 10
11.171667
 20
5.932782
 30
0.0
 10
10.910470
 20
5.925506
 30
0.0
 10
10.618614
 20
5.834725
 30
0.0
  0
SPLINE
  5
141
100
AcDbEntity
  8
0
 62
7
100
AcDbSpline
 70
8
 71
3
 72
8
 73
4
 74
0
 40
0
 40
0
 40
0
 40
0
 40
1
 40
1
 40
1
 40
1
 10
10.618614
 20
5.834725
 30
0.0
 10
9.974002
 20
5.634222
 30
0.0
 10
8.866600
 20
5.596308
 30
0.0
 10
8.116096
 20
5.754248
 30
0.0
  0
SPLINE
  5
142
100
AcDbEntity
  8
0
 62
7
100
AcDbSpline
 70
8
 71
3
 72
8
 73
4
 74
0
 40
0
 40
0
 40
0
 40
0
 40
1
 40
1
 40
1
 40
1
 10
8.116096
 20
5.754248
 30
0.0
 10
7.912661
 20
5.797059
 30
0.0
 10
7.724507
 20
5.832739
 30
0.0
 10
7.583072
 20
5.855671
 30
0.0
  0
SPLINE
  5
143
100
AcDbEntity
  8
0
 62
7
100
AcDbSpline
 70
8
 71
3
 72
8
 73
4
 74
0
 40
0
 40
0
 40
0
 40
0
 40
1
 40
1
 40
1
 40
1
 10
7.583072
 20
5.855671
 30
0.0
 10
7.512354
 20
5.867138
 30
0.0
 10
7.453523
 20
5.875241
 30
0.0
 10
7.407785
 20
5.879926
 30
0.0
  0
SPLINE
  5
144
100
AcDbEntity
  8
0
 62
7
100
AcDbSpline
 70
8
 71
3
 72
8
 73
4
 74
0
 40
0
 40
0
 40
0
 40
0
 40
1
 40
1
 40
1
 40
1
 10
7.407785
 20
5.879926
 30
0.0
 10
7.384917
 20
5.882268
 30
0.0
 10
7.365946
 20
5.884207
 30
0.0
 10
7.346049
 20
5.884337
 30
0.0
  0
SPLINE
  5
145
100
AcDbEntity
  8
0
 62
7
100
AcDbSpline
 70
8
 71
3
 72
8
 73
4
 74
0
 40
0
 40
0
 40
0
 40
0
 40
1
 40
1
 40
1
 40
1
 10
7.346049
 20
5.884337
 30
0.0
 10
7.336101
 20
5.884401
 30
0.0
 10
7.326401
 20
5.884268
 30
0.0
 10
7.311322
 20
5.882135
 30
0.0
  0
SPLINE
  5
146
100
AcDbEntity
  8
0
 62
7
100
AcDbSpline
 70
8
 71
3
 72
8
 73
4
 74
0
 40
0
 40
0
 40
0
 40
0
 40
1
 40
1
 40
1
 40
1
 10
7.311322
 20
5.882135
 30
0.0
 10
7.296243
 20
5.879990
 30
0.0
 10
7.273413
 20
5.890675
 30
0.0
 10
7.222577
 20
5.838038
 30
0.0
  0
SPLINE
  5
147
100
AcDbEntity
  8
0
 62
7
100
AcDbSpline
 70
8
 71
3
 72
8
 73
4
 74
0
 40
0
 40
0
 40
0
 40
0
 40
1
 40
1
 40
1
 40
1
 10
7.222577
 20
5.838038
 30
0.0
 10
7.222450
 20
5.837906
 30
0.0
 10
7.209936
 20
5.823521
 30
0.0
 10
7.206041
 20
5.817642
 30
0.0
  0
SPLINE
  5
148
100
AcDbEntity
  8
0
 62
7
100
AcDbSpline
 70
8
 71
3
 72
8
 73
4
 74
0
 40
0
 40
0
 40
0
 40
0
 40
1
 40
1
 40
1
 40
1
 10
7.206041
 20
5.817642
 30
0.0
 10
7.202147
 20
5.811763
 30
0.0
 10
7.199398
 20
5.806528
 30
0.0
 10
7.197222
 20
5.802207
 30
0.0
  0
SPLINE
  5
149
100
AcDbEntity
  8
0
 62
7
100
AcDbSpline
 70
8
 71
3
 72
8
 73
4
 74
0
 40
0
 40
0
 40
0
 40
0
 40
1
 40
1
 40
1
 40
1
 10
7.197222
 20
5.802207
 30
0.0
 10
7.192873
 20
5.793568
 30
0.0
 10
7.190714
 20
5.787560
 30
0.0
 10
7.188953
 20
5.782364
 30
0.0
  0
SPLINE
  5
14a
100
AcDbEntity
  8
0
 62
7
100
AcDbSpline
 70
8
 71
3
 72
8
 73
4
 74
0
 40
0
 40
0
 40
0
 40
0
 40
1
 40
1
 40
1
 40
1
 10
7.188953
 20
5.782364
 30
0.0
 10
7.185431
 20
5.771970
 30
0.0
 10
7.184113
 20
5.765256
 30
0.0
 10
7.182891
 20
5.759213
 30
0.0
  0
SPLINE
  5
14b
100
AcDbEntity
  8
0
 62
7
100
AcDbSpline
 70
8
 71
3
 72
8
 73
4
 74
0
 40
0
 40
0
 40
0
 40
0
 40
1
 40
1
 40
1
 40
1
 10
7.182891
 20
5.759213
 30
0.0
 10
7.180435
 20
5.747132
 30
0.0
 10
7.179095
 20
5.737906
 30
0.0
 10
7.177929
 20
5.727243
 30
0.0
  0
SPLINE
  5
14c
100
AcDbEntity
  8
0
 62
7
100
AcDbSpline
 70
8
 71
3
 72
8
 73
4
 74
0
 40
0
 40
0
 40
0
 40
0
 40
1
 40
1
 40
1
 40
1
 10
7.177929
 20
5.727243
 30
0.0
 10
7.175587
 20
5.705915
 30
0.0
 10
7.174029
 20
5.680819
 30
0.0
 10
7.172417
 20
5.650073
 30
0.0
  0
SPLINE
  5
14d
100
AcDbEntity
  8
0
 62
7
100
AcDbSpline
 70
8
 71
3
 72
8
 73
4
 74
0
 40
0
 40
0
 40
0
 40
0
 40
1
 40
1
 40
1
 40
1
 10
7.172417
 20
5.650073
 30
0.0
 10
7.169194
 20
5.588580
 30
0.0
 10
7.166570
 20
5.504851
 30
0.0
 10
7.164701
 20
5.403128
 30
0.0
  0
SPLINE
  5
14e
100
AcDbEntity
  8
0
 62
7
100
AcDbSpline
 70
8
 71
3
 72
8
 73
4
 74
0
 40
0
 40
0
 40
0
 40
0
 40
1
 40
1
 40
1
 40
1
 10
7.164701
 20
5.403128
 30
0.0
 10
7.160965
 20
5.199683
 30
0.0
 10
7.159974
 20
4.924961
 30
0.0
 10
7.162500
 20
4.626466
 30
0.0
  0
SPLINE
  5
14f
100
AcDbEntity
  8
0
 62
7
100
AcDbSpline
 70
8
 71
3
 72
8
 73
4
 74
0
 40
0
 40
0
 40
0
 40
0
 40
1
 40
1
 40
1
 40
1
 10
7.162500
 20
4.626466
 30
0.0
 10
7.165012
 20
4.330519
 30
0.0
 10
7.162747
 20
4.054902
 30
0.0
 10
7.156988
 20
3.850906
 30
0.0
  0
SPLINE
  5
150
100
AcDbEntity
  8
0
 62
7
100
AcDbSpline
 70
8
 71
3
 72
8
 73
4
 74
0
 40
0
 40
0
 40
0
 40
0
 40
1
 40
1
 40
1
 40
1
 10
7.156988
 20
3.850906
 30
0.0
 10
7.154110
 20
3.748908
 30
0.0
 10
7.150173
 20
3.664881
 30
0.0
 10
7.145965
 20
3.606718
 30
0.0
  0
SPLINE
  5
151
100
AcDbEntity
  8
0
 62
7
100
AcDbSpline
 70
8
 71
3
 72
8
 73
4
 74
0
 40
0
 40
0
 40
0
 40
0
 40
1
 40
1
 40
1
 40
1
 10
7.145965
 20
3.606718
 30
0.0
 10
7.145118
 20
3.595144
 30
0.0
 10
7.144610
 20
3.590160
 30
0.0
 10
7.143763
 20
3.580810
 30
0.0
  0
SPLINE
  5
152
100
AcDbEntity
  8
0
 62
7
100
AcDbSpline
 70
8
 71
3
 72
8
 73
4
 74
0
 40
0
 40
0
 40
0
 40
0
 40
1
 40
1
 40
1
 40
1
 10
7.143763
 20
3.580810
 30
0.0
 10
7.139871
 20
3.579540
 30
0.0
 10
7.139361
 20
3.578834
 30
0.0
 10
7.134944
 20
3.577502
 30
0.0
  0
SPLINE
  5
153
100
AcDbEntity
  8
0
 62
7
100
AcDbSpline
 70
8
 71
3
 72
8
 73
4
 74
0
 40
0
 40
0
 40
0
 40
0
 40
1
 40
1
 40
1
 40
1
 10
7.134944
 20
3.577502
 30
0.0
 10
7.091597
 20
3.564407
 30
0.0
 10
7.024183
 20
3.549288
 30
0.0
 10
6.940365
 20
3.533956
 30
0.0
  0
SPLINE
  5
154
100
AcDbEntity
  8
0
 62
7
100
AcDbSpline
 70
8
 71
3
 72
8
 73
4
 74
0
 40
0
 40
0
 40
0
 40
0
 40
1
 40
1
 40
1
 40
1
 10
6.940365
 20
3.533956
 30
0.0
 10
6.772728
 20
3.503289
 30
0.0
 10
6.538490
 20
3.471666
 30
0.0
 10
6.267331
 20
3.443557
 30
0.0
  0
SPLINE
  5
155
100
AcDbEntity
  8
0
 62
7
100
AcDbSpline
 70
8
 71
3
 72
8
 73
4
 74
0
 40
0
 40
0
 40
0
 40
0
 40
1
 40
1
 40
1
 40
1
 10
6.267331
 20
3.443557
 30
0.0
 10
5.725012
 20
3.387339
 30
0.0
 10
5.033947
 20
3.343410
 30
0.0
 10
4.409184
 20
3.333314
 30
0.0
  0
SPLINE
  5
156
100
AcDbEntity
  8
0
 62
7
100
AcDbSpline
 70
8
 71
3
 72
8
 73
4
 74
0
 40
0
 40
0
 40
0
 40
0
 40
1
 40
1
 40
1
 40
1
 10
4.409184
 20
3.333314
 30
0.0
 10
4.243601
 20
3.330633
 30
0.0
 10
4.161413
 20
3.341558
 30
0.0
 10
4.004041
 20
3.340480
 30
0.0
  0
SPLINE
  5
157
100
AcDbEntity
  8
0
 62
7
100
AcDbSpline
 70
8
 71
3
 72
8
 73
4
 74
0
 40
0
 40
0
 40
0
 40
0
 40
1
 40
1
 40
1
 40
1
 10
4.004041
 20
3.340480
 30
0.0
 10
4.806201
 20
3.352257
 30
0.0
 10
5.618832
 20
3.392517
 30
0.0
 10
6.271741
 20
3.461747
 30
0.0
  0
SPLINE
  5
158
100
AcDbEntity
  8
0
 62
7
100
AcDbSpline
 70
8
 71
3
 72
8
 73
4
 74
0
 40
0
 40
0
 40
0
 40
0
 40
1
 40
1
 40
1
 40
1
 10
6.271741
 20
3.461747
 30
0.0
 10
6.578625
 20
3.494287
 30
0.0
 10
6.763674
 20
3.518198
 30
0.0
 10
6.899024
 20
3.563722
 30
0.0
  0
SPLINE
  5
159
100
AcDbEntity
  8
0
 62
7
100
AcDbSpline
 70
8
 71
3
 72
8
 73
4
 74
0
 40
0
 40
0
 40
0
 40
0
 40
1
 40
1
 40
1
 40
1
 10
6.899024
 20
3.563722
 30
0.0
 10
6.966698
 20
3.586483
 30
0.0
 10
7.025708
 20
3.616896
 30
0.0
 10
7.072105
 20
3.665697
 30
0.0
  0
SPLINE
  5
15a
100
AcDbEntity
  8
0
 62
7
100
AcDbSpline
 70
8
 71
3
 72
8
 73
4
 74
0
 40
0
 40
0
 40
0
 40
0
 40
1
 40
1
 40
1
 40
1
 10
7.072105
 20
3.665697
 30
0.0
 10
7.118502
 20
3.714498
 30
0.0
 10
7.143126
 20
3.777671
 30
0.0
 10
7.152583
 20
3.832164
 30
0.0
  0
SPLINE
  5
15b
100
AcDbEntity
  8
0
 62
7
100
AcDbSpline
 70
8
 71
3
 72
8
 73
4
 74
0
 40
0
 40
0
 40
0
 40
0
 40
1
 40
1
 40
1
 40
1
 10
7.152583
 20
3.832164
 30
0.0
 10
7.162057
 20
3.886763
 30
0.0
 10
7.164619
 20
3.977360
 30
0.0
 10
7.102422
 20
4.044933
 30
0.0
  0
SPLINE
  5
15c
100
AcDbEntity
  8
0
 62
7
100
AcDbSpline
 70
8
 71
3
 72
8
 73
4
 74
0
 40
0
 40
0
 40
0
 40
0
 40
1
 40
1
 40
1
 40
1
 10
7.102422
 20
4.044933
 30
0.0
 10
7.040225
 20
4.112505
 30
0.0
 10
6.965485
 20
4.124604
 30
0.0
 10
6.881936
 20
4.132576
 30
0.0
  0
SPLINE
  5
15d
100
AcDbEntity
  8
0
 62
7
100
AcDbSpline
 70
8
 71
3
 72
8
 73
4
 74
0
 40
0
 40
0
 40
0
 40
0
 40
1
 40
1
 40
1
 40
1
 10
6.881936
 20
4.132576
 30
0.0
 10
6.714838
 20
4.148522
 30
0.0
 10
6.456653
 20
4.130685
 30
0.0
 10
5.983455
 20
4.094542
 30
0.0
  0
SPLINE
  5
15e
100
AcDbEntity
  8
0
 62
7
100
AcDbSpline
 70
8
 71
3
 72
8
 73
4
 74
0
 40
0
 40
0
 40
0
 40
0
 40
1
 40
1
 40
1
 40
1
 10
5.983455
 20
4.094542
 30
0.0
 10
5.122419
 20
4.028753
 30
0.0
 10
4.189718
 20
4.014587
 30
0.0
 10
3.297934
 20
4.025089
 30
0.0
  0
SPLINE
  5
15f
100
AcDbEntity
  8
0
 62
7
100
AcDbSpline
 70
8
 71
3
 72
8
 73
4
 74
0
 40
0
 40
0
 40
0
 40
0
 40
1
 40
1
 40
1
 40
1
 10
3.297934
 20
4.025089
 30
0.0
 10
3.843652
 20
4.019549
 30
0.0
 10
4.650590
 20
4.042911
 30
0.0
 10
5.360031
 20
4.078006
 30
0.0
  0
SPLINE
  5
160
100
AcDbEntity
  8
0
 62
7
100
AcDbSpline
 70
8
 71
3
 72
8
 73
4
 74
0
 40
0
 40
0
 40
0
 40
0
 40
1
 40
1
 40
1
 40
1
 10
5.360031
 20
4.078006
 30
0.0
 10
5.716933
 20
4.095661
 30
0.0
 10
6.048272
 20
4.115937
 30
0.0
 10
6.307570
 20
4.136986
 30
0.0
  0
SPLINE
  5
161
100
AcDbEntity
  8
0
 62
7
100
AcDbSpline
 70
8
 71
3
 72
8
 73
4
 74
0
 40
0
 40
0
 40
0
 40
0
 40
1
 40
1
 40
1
 40
1
 10
6.307570
 20
4.136986
 30
0.0
 10
6.437219
 20
4.147510
 30
0.0
 10
6.548762
 20
4.158234
 30
0.0
 10
6.637748
 20
4.168956
 30
0.0
  0
SPLINE
  5
162
100
AcDbEntity
  8
0
 62
7
100
AcDbSpline
 70
8
 71
3
 72
8
 73
4
 74
0
 40
0
 40
0
 40
0
 40
0
 40
1
 40
1
 40
1
 40
1
 10
6.637748
 20
4.168956
 30
0.0
 10
6.726733
 20
4.179678
 30
0.0
 10
6.787327
 20
4.187620
 30
0.0
 10
6.841697
 20
4.204234
 30
0.0
  0
SPLINE
  5
163
100
AcDbEntity
  8
0
 62
7
100
AcDbSpline
 70
8
 71
3
 72
8
 73
4
 74
0
 40
0
 40
0
 40
0
 40
0
 40
1
 40
1
 40
1
 40
1
 10
6.841697
 20
4.204234
 30
0.0
 10
6.894100
 20
4.220247
 30
0.0
 10
6.947712
 20
4.237895
 30
0.0
 10
6.999345
 20
4.278097
 30
0.0
  0
SPLINE
  5
164
100
AcDbEntity
  8
0
 62
7
100
AcDbSpline
 70
8
 71
3
 72
8
 73
4
 74
0
 40
0
 40
0
 40
0
 40
0
 40
1
 40
1
 40
1
 40
1
 10
6.999345
 20
4.278097
 30
0.0
 10
7.050978
 20
4.318298
 30
0.0
 10
7.089339
 20
4.381182
 30
0.0
 10
7.108485
 20
4.446218
 30
0.0
  0
SPLINE
  5
165
100
AcDbEntity
  8
0
 62
7
100
AcDbSpline
 70
8
 71
3
 72
8
 73
4
 74
0
 40
0
 40
0
 40
0
 40
0
 40
1
 40
1
 40
1
 40
1
 10
7.108485
 20
4.446218
 30
0.0
 10
7.146779
 20
4.576288
 30
0.0
 10
7.143018
 20
4.730553
 30
0.0
 10
7.139905
 20
5.013969
 30
0.0
  0
SPLINE
  5
166
100
AcDbEntity
  8
0
 62
7
100
AcDbSpline
 70
8
 71
3
 72
8
 73
4
 74
0
 40
0
 40
0
 40
0
 40
0
 40
1
 40
1
 40
1
 40
1
 10
7.139905
 20
5.013969
 30
0.0
 10
7.136233
 20
5.348245
 30
0.0
 10
7.136704
 20
5.824376
 30
0.0
 10
7.141005
 20
6.066790
 30
0.0
  0
SPLINE
  5
167
100
AcDbEntity
  8
0
 62
7
100
AcDbSpline
 70
8
 71
3
 72
8
 73
4
 74
0
 40
0
 40
0
 40
0
 40
0
 40
1
 40
1
 40
1
 40
1
 10
7.141005
 20
6.066790
 30
0.0
 10
7.143291
 20
6.195199
 30
0.0
 10
7.137963
 20
6.317861
 30
0.0
 10
7.126674
 20
6.416812
 30
0.0
  0
SPLINE
  5
168
100
AcDbEntity
  8
0
 62
7
100
AcDbSpline
 70
8
 71
3
 72
8
 73
4
 74
0
 40
0
 40
0
 40
0
 40
0
 40
1
 40
1
 40
1
 40
1
 10
7.126674
 20
6.416812
 30
0.0
 10
7.121030
 20
6.466287
 30
0.0
 10
7.114479
 20
6.509588
 30
0.0
 10
7.104624
 20
6.548553
 30
0.0
  0
SPLINE
  5
169
100
AcDbEntity
  8
0
 62
7
100
AcDbSpline
 70
8
 71
3
 72
8
 73
4
 74
0
 40
0
 40
0
 40
0
 40
0
 40
1
 40
1
 40
1
 40
1
 10
7.104624
 20
6.548553
 30
0.0
 10
7.094772
 20
6.587517
 30
0.0
 10
7.103072
 20
6.620568
 30
0.0
 10
7.033517
 20
6.678639
 30
0.0
  0
SPLINE
  5
16a
100
AcDbEntity
  8
0
 62
7
100
AcDbSpline
 70
8
 71
3
 72
8
 73
4
 74
0
 40
0
 40
0
 40
0
 40
0
 40
1
 40
1
 40
1
 40
1
 10
7.033517
 20
6.678639
 30
0.0
 10
6.998356
 20
6.707991
 30
0.0
 10
6.984970
 20
6.706503
 30
0.0
 10
6.972332
 20
6.710059
 30
0.0
  0
SPLINE
  5
16b
100
AcDbEntity
  8
0
 62
7
100
AcDbSpline
 70
8
 71
3
 72
8
 73
4
 74
0
 40
0
 40
0
 40
0
 40
0
 40
1
 40
1
 40
1
 40
1
 10
6.972332
 20
6.710059
 30
0.0
 10
6.959695
 20
6.713615
 30
0.0
 10
6.949227
 20
6.714952
 30
0.0
 10
6.938708
 20
6.716674
 30
0.0
  0
SPLINE
  5
16c
100
AcDbEntity
  8
0
 62
7
100
AcDbSpline
 70
8
 71
3
 72
8
 73
4
 74
0
 40
0
 40
0
 40
0
 40
0
 40
1
 40
1
 40
1
 40
1
 10
6.938708
 20
6.716674
 30
0.0
 10
6.917672
 20
6.720117
 30
0.0
 10
6.895455
 20
6.722660
 30
0.0
 10
6.868153
 20
6.724943
 30
0.0
  0
SPLINE
  5
16d
100
AcDbEntity
  8
0
 62
7
100
AcDbSpline
 70
8
 71
3
 72
8
 73
4
 74
0
 40
0
 40
0
 40
0
 40
0
 40
1
 40
1
 40
1
 40
1
 10
6.868153
 20
6.724943
 30
0.0
 10
6.813548
 20
6.729504
 30
0.0
 10
6.741279
 20
6.733331
 30
0.0
 10
6.651525
 20
6.736517
 30
0.0
  0
SPLINE
  5
16e
100
AcDbEntity
  8
0
 62
7
100
AcDbSpline
 70
8
 71
3
 72
8
 73
4
 74
0
 40
0
 40
0
 40
0
 40
0
 40
1
 40
1
 40
1
 40
1
 10
6.651525
 20
6.736517
 30
0.0
 10
6.472018
 20
6.742889
 30
0.0
 10
6.223719
 20
6.746812
 30
0.0
 10
5.928882
 20
6.749194
 30
0.0
  0
SPLINE
  5
16f
100
AcDbEntity
  8
0
 62
7
100
AcDbSpline
 70
8
 71
3
 72
8
 73
4
 74
0
 40
0
 40
0
 40
0
 40
0
 40
1
 40
1
 40
1
 40
1
 10
5.928882
 20
6.749194
 30
0.0
 10
5.339208
 20
6.753958
 30
0.0
 10
4.563331
 20
6.751650
 30
0.0
 10
3.789615
 20
6.743683
 30
0.0
  0
SPLINE
  5
170
100
AcDbEntity
  8
0
 62
7
100
AcDbSpline
 70
8
 71
3
 72
8
 73
4
 74
0
 40
0
 40
0
 40
0
 40
0
 40
1
 40
1
 40
1
 40
1
 10
3.789615
 20
6.743683
 30
0.0
 10
3.015900
 20
6.735707
 30
0.0
 10
2.244474
 20
6.722488
 30
0.0
 10
1.663027
 20
6.705649
 30
0.0
  0
SPLINE
  5
171
100
AcDbEntity
  8
0
 62
7
100
AcDbSpline
 70
8
 71
3
 72
8
 73
4
 74
0
 40
0
 40
0
 40
0
 40
0
 40
1
 40
1
 40
1
 40
1
 10
1.663027
 20
6.705649
 30
0.0
 10
1.372304
 20
6.697230
 30
0.0
 10
1.129296
 20
6.687561
 30
0.0
 10
0.955818
 20
6.677536
 30
0.0
  0
SPLINE
  5
172
100
AcDbEntity
  8
0
 62
7
100
AcDbSpline
 70
8
 71
3
 72
8
 73
4
 74
0
 40
0
 40
0
 40
0
 40
0
 40
1
 40
1
 40
1
 40
1
 10
0.955818
 20
6.677536
 30
0.0
 10
0.869079
 20
6.672524
 30
0.0
 10
0.800182
 20
6.667853
 30
0.0
 10
0.748561
 20
6.662102
 30
0.0
  0
SPLINE
  5
173
100
AcDbEntity
  8
0
 62
7
100
AcDbSpline
 70
8
 71
3
 72
8
 73
4
 74
0
 40
0
 40
0
 40
0
 40
0
 40
1
 40
1
 40
1
 40
1
 10
0.748561
 20
6.662102
 30
0.0
 10
0.722750
 20
6.659226
 30
0.0
 10
0.701777
 20
6.656062
 30
0.0
 10
0.680761
 20
6.651628
 30
0.0
  0
SPLINE
  5
174
100
AcDbEntity
  8
0
 62
7
100
AcDbSpline
 70
8
 71
3
 72
8
 73
4
 74
0
 40
0
 40
0
 40
0
 40
0
 40
1
 40
1
 40
1
 40
1
 10
0.680761
 20
6.651628
 30
0.0
 10
0.670254
 20
6.649399
 30
0.0
 10
0.660155
 20
6.647240
 30
0.0
 10
0.644381
 20
6.641155
 30
0.0
  0
SPLINE
  5
175
100
AcDbEntity
  8
0
 62
7
100
AcDbSpline
 70
8
 71
3
 72
8
 73
4
 74
0
 40
0
 40
0
 40
0
 40
0
 40
1
 40
1
 40
1
 40
1
 10
0.644381
 20
6.641155
 30
0.0
 10
0.636494
 20
6.638113
 30
0.0
 10
0.626998
 20
6.634475
 30
0.0
 10
0.612962
 20
6.625170
 30
0.0
  0
SPLINE
  5
176
100
AcDbEntity
  8
0
 62
7
100
AcDbSpline
 70
8
 71
3
 72
8
 73
4
 74
0
 40
0
 40
0
 40
0
 40
0
 40
1
 40
1
 40
1
 40
1
 10
0.612962
 20
6.625170
 30
0.0
 10
0.605944
 20
6.620516
 30
0.0
 10
0.597715
 20
6.614691
 30
0.0
 10
0.588157
 20
6.604774
 30
0.0
  0
SPLINE
  5
177
100
AcDbEntity
  8
0
 62
7
100
AcDbSpline
 70
8
 71
3
 72
8
 73
4
 74
0
 40
0
 40
0
 40
0
 40
0
 40
1
 40
1
 40
1
 40
1
 10
0.588157
 20
6.604774
 30
0.0
 10
0.582598
 20
6.599005
 30
0.0
 10
0.577625
 20
6.589661
 30
0.0
 10
0.571069
 20
6.578866
 30
0.0
  0
SPLINE
  5
178
100
AcDbEntity
  8
0
 62
7
100
AcDbSpline
 70
8
 71
3
 72
8
 73
4
 74
0
 40
0
 40
0
 40
0
 40
0
 40
1
 40
1
 40
1
 40
1
 10
0.571069
 20
6.578866
 30
0.0
 10
0.575031
 20
6.602446
 30
0.0
 10
0.579017
 20
6.629889
 30
0.0
 10
0.582645
 20
6.644460
 30
0.0
  0
SPLINE
  5
179
100
AcDbEntity
  8
0
 62
7
100
AcDbSpline
 70
8
 71
3
 72
8
 73
4
 74
0
 40
0
 40
0
 40
0
 40
0
 40
1
 40
1
 40
1
 40
1
 10
0.582645
 20
6.644460
 30
0.0
 10
0.588558
 20
6.668212
 30
0.0
 10
0.601076
 20
6.680729
 30
0.0
 10
0.582645
 20
6.657138
 30
0.0
  0
SPLINE
  5
17a
100
AcDbEntity
  8
0
 62
7
100
AcDbSpline
 70
8
 71
3
 72
8
 73
4
 74
0
 40
0
 40
0
 40
0
 40
0
 40
1
 40
1
 40
1
 40
1
 10
0.582645
 20
6.657138
 30
0.0
 10
0.569166
 20
6.639885
 30
0.0
 10
0.585239
 20
6.661269
 30
0.0
 10
0.646586
 20
6.676981
 30
0.0
  0
SPLINE
  5
17b
100
AcDbEntity
  8
0
 62
7
100
AcDbSpline
 70
8
 71
3
 72
8
 73
4
 74
0
 40
0
 40
0
 40
0
 40
0
 40
1
 40
1
 40
1
 40
1
 10
0.646586
 20
6.676981
 30
0.0
 10
0.707932
 20
6.692692
 30
0.0
 10
0.807355
 20
6.707809
 30
0.0
 10
0.944793
 20
6.719424
 30
0.0
  0
SPLINE
  5
17c
100
AcDbEntity
  8
0
 62
7
100
AcDbSpline
 70
8
 71
3
 72
8
 73
4
 74
0
 40
0
 40
0
 40
0
 40
0
 40
1
 40
1
 40
1
 40
1
 10
0.944793
 20
6.719424
 30
0.0
 10
1.219670
 20
6.742654
 30
0.0
 10
1.649279
 20
6.753929
 30
0.0
 10
2.282593
 20
6.756356
 30
0.0
  0
SPLINE
  5
17d
100
AcDbEntity
  8
0
 62
7
100
AcDbSpline
 70
8
 71
3
 72
8
 73
4
 74
0
 40
0
 40
0
 40
0
 40
0
 40
1
 40
1
 40
1
 40
1
 10
2.282593
 20
6.756356
 30
0.0
 10
3.215786
 20
6.759931
 30
0.0
 10
4.714519
 20
6.768153
 30
0.0
 10
5.613587
 20
6.775098
 30
0.0
  0
SPLINE
  5
17e
100
AcDbEntity
  8
0
 62
7
100
AcDbSpline
 70
8
 71
3
 72
8
 73
4
 74
0
 40
0
 40
0
 40
0
 40
0
 40
1
 40
1
 40
1
 40
1
 10
5.613587
 20
6.775098
 30
0.0
 10
8.838403
 20
6.800004
 30
0.0
 10
10.420785
 20
6.812979
 30
0.0
 10
11.224407
 20
6.793287
 30
0.0
  0
LWPOLYLINE
  5
17f
100
AcDbEntity
  8
0
 62
7
100
AcDbPolyline
 90
3
 70
1
 10
7.157533
 20
6.298296
 30
0.0
 10
7.164148
 20
5.944967
 30
0.0
 10
8.036170
 20
5.777949
 30
0.0
  0
SPLINE
  5
180
100
AcDbEntity
  8
0
 62
7
100
AcDbSpline
 70
8
 71
3
 72
8
 73
4
 74
0
 40
0
 40
0
 40
0
 40
0
 40
1
 40
1
 40
1
 40
1
 10
12.164219
 20
6.577762
 30
0.0
 10
12.254624
 20
6.462968
 30
0.0
 10
12.285353
 20
6.296421
 30
0.0
 10
12.229262
 20
6.122458
 30
0.0
  0
SPLINE
  5
181
100
AcDbEntity
  8
0
 62
7
100
AcDbSpline
 70
8
 71
3
 72
8
 73
4
 74
0
 40
0
 40
0
 40
0
 40
0
 40
1
 40
1
 40
1
 40
1
 10
12.229262
 20
6.122458
 30
0.0
 10
12.222204
 20
6.100569
 30
0.0
 10
12.204630
 20
6.087524
 30
0.0
 10
12.195638
 20
6.066785
 30
0.0
  0
SPLINE
  5
182
100
AcDbEntity
  8
0
 62
7
100
AcDbSpline
 70
8
 71
3
 72
8
 73
4
 74
0
 40
0
 40
0
 40
0
 40
0
 40
1
 40
1
 40
1
 40
1
 10
12.195638
 20
6.066785
 30
0.0
 10
12.197558
 20
6.076045
 30
0.0
 10
12.204178
 20
6.083557
 30
0.0
 10
12.206112
 20
6.093243
 30
0.0
  0
SPLINE
  5
183
100
AcDbEntity
  8
0
 62
7
100
AcDbSpline
 70
8
 71
3
 72
8
 73
4
 74
0
 40
0
 40
0
 40
0
 40
0
 40
1
 40
1
 40
1
 40
1
 10
12.206112
 20
6.093243
 30
0.0
 10
12.220370
 20
6.164702
 30
0.0
 10
12.228430
 20
6.243875
 30
0.0
 10
12.227058
 20
6.322549
 30
0.0
  0
SPLINE
  5
184
100
AcDbEntity
  8
0
 62
7
100
AcDbSpline
 70
8
 71
3
 72
8
 73
4
 74
0
 40
0
 40
0
 40
0
 40
0
 40
1
 40
1
 40
1
 40
1
 10
12.227058
 20
6.322549
 30
0.0
 10
12.225337
 20
6.420505
 30
0.0
 10
12.209470
 20
6.500487
 30
0.0
 10
12.164219
 20
6.577762
 30
0.0
  0
LWPOLYLINE
  5
185
100
AcDbEntity
  8
0
 62
7
100
AcDbPolyline
 90
2
 70
1
 10
11.224407
 20
6.793287
 30
0.0
 10
11.224397
 20
6.793287
 30
0.0
  0
SPLINE
  5
186
100
AcDbEntity
  8
0
 62
7
100
AcDbSpline
 70
8
 71
3
 72
8
 73
4
 74
0
 40
0
 40
0
 40
0
 40
0
 40
1
 40
1
 40
1
 40
1
 10
9.491927
 20
6.497284
 30
0.0
 10
10.033976
 20
6.499062
 30
0.0
 10
10.584426
 20
6.496974
 30
0.0
 10
11.019345
 20
6.491222
 30
0.0
  0
SPLINE
  5
187
100
AcDbEntity
  8
0
 62
7
100
AcDbSpline
 70
8
 71
3
 72
8
 73
4
 74
0
 40
0
 40
0
 40
0
 40
0
 40
1
 40
1
 40
1
 40
1
 10
11.019345
 20
6.491222
 30
0.0
 10
11.236804
 20
6.488349
 30
0.0
 10
11.425683
 20
6.484508
 30
0.0
 10
11.568907
 20
6.479645
 30
0.0
  0
SPLINE
  5
188
100
AcDbEntity
  8
0
 62
7
100
AcDbSpline
 70
8
 71
3
 72
8
 73
4
 74
0
 40
0
 40
0
 40
0
 40
0
 40
1
 40
1
 40
1
 40
1
 10
11.568907
 20
6.479645
 30
0.0
 10
11.712130
 20
6.474783
 30
0.0
 10
11.820415
 20
6.466310
 30
0.0
 10
11.835695
 20
6.463660
 30
0.0
  0
SPLINE
  5
189
100
AcDbEntity
  8
0
 62
7
100
AcDbSpline
 70
8
 71
3
 72
8
 73
4
 74
0
 40
0
 40
0
 40
0
 40
0
 40
1
 40
1
 40
1
 40
1
 10
11.835695
 20
6.463660
 30
0.0
 10
11.926158
 20
6.447960
 30
0.0
 10
11.939972
 20
6.433349
 30
0.0
 10
11.933811
 20
6.441060
 30
0.0
  0
SPLINE
  5
18a
100
AcDbEntity
  8
0
 62
7
100
AcDbSpline
 70
8
 71
3
 72
8
 73
4
 74
0
 40
0
 40
0
 40
0
 40
0
 40
1
 40
1
 40
1
 40
1
 10
11.933811
 20
6.441060
 30
0.0
 10
11.927650
 20
6.448770
 30
0.0
 10
11.943068
 20
6.418956
 30
0.0
 10
11.944835
 20
6.317588
 30
0.0
  0
SPLINE
  5
18b
100
AcDbEntity
  8
0
 62
7
100
AcDbSpline
 70
8
 71
3
 72
8
 73
4
 74
0
 40
0
 40
0
 40
0
 40
0
 40
1
 40
1
 40
1
 40
1
 10
11.944835
 20
6.317588
 30
0.0
 10
11.945794
 20
6.261829
 30
0.0
 10
11.939413
 20
6.198551
 30
0.0
 10
11.929400
 20
6.148365
 30
0.0
  0
SPLINE
  5
18c
100
AcDbEntity
  8
0
 62
7
100
AcDbSpline
 70
8
 71
3
 72
8
 73
4
 74
0
 40
0
 40
0
 40
0
 40
0
 40
1
 40
1
 40
1
 40
1
 10
11.929400
 20
6.148365
 30
0.0
 10
11.919387
 20
6.098178
 30
0.0
 10
11.895422
 20
6.055926
 30
0.0
 10
11.907350
 20
6.071194
 30
0.0
  0
SPLINE
  5
18d
100
AcDbEntity
  8
0
 62
7
100
AcDbSpline
 70
8
 71
3
 72
8
 73
4
 74
0
 40
0
 40
0
 40
0
 40
0
 40
1
 40
1
 40
1
 40
1
 10
11.907350
 20
6.071194
 30
0.0
 10
11.916923
 20
6.083446
 30
0.0
 10
11.911484
 20
6.072323
 30
0.0
 10
11.880891
 20
6.065683
 30
0.0
  0
SPLINE
  5
18e
100
AcDbEntity
  8
0
 62
7
100
AcDbSpline
 70
8
 71
3
 72
8
 73
4
 74
0
 40
0
 40
0
 40
0
 40
0
 40
1
 40
1
 40
1
 40
1
 10
11.880891
 20
6.065683
 30
0.0
 10
11.850299
 20
6.059056
 30
0.0
 10
11.800535
 20
6.055926
 30
0.0
 10
11.743088
 20
6.060171
 30
0.0
  0
SPLINE
  5
18f
100
AcDbEntity
  8
0
 62
7
100
AcDbSpline
 70
8
 71
3
 72
8
 73
4
 74
0
 40
0
 40
0
 40
0
 40
0
 40
1
 40
1
 40
1
 40
1
 10
11.743088
 20
6.060171
 30
0.0
 10
11.628193
 20
6.068660
 30
0.0
 10
11.480468
 20
6.105534
 30
0.0
 10
11.350622
 20
6.166004
 30
0.0
  0
SPLINE
  5
190
100
AcDbEntity
  8
0
 62
7
100
AcDbSpline
 70
8
 71
3
 72
8
 73
4
 74
0
 40
0
 40
0
 40
0
 40
0
 40
1
 40
1
 40
1
 40
1
 10
11.350622
 20
6.166004
 30
0.0
 10
11.246520
 20
6.214486
 30
0.0
 10
11.129597
 20
6.220238
 30
0.0
 10
10.992884
 20
6.211755
 30
0.0
  0
SPLINE
  5
191
100
AcDbEntity
  8
0
 62
7
100
AcDbSpline
 70
8
 71
3
 72
8
 73
4
 74
0
 40
0
 40
0
 40
0
 40
0
 40
1
 40
1
 40
1
 40
1
 10
10.992884
 20
6.211755
 30
0.0
 10
10.856170
 20
6.203271
 30
0.0
 10
10.701399
 20
6.175420
 30
0.0
 10
10.538682
 20
6.129624
 30
0.0
  0
SPLINE
  5
192
100
AcDbEntity
  8
0
 62
7
100
AcDbSpline
 70
8
 71
3
 72
8
 73
4
 74
0
 40
0
 40
0
 40
0
 40
0
 40
1
 40
1
 40
1
 40
1
 10
10.538682
 20
6.129624
 30
0.0
 10
9.809096
 20
5.924288
 30
0.0
 10
8.918972
 20
5.896182
 30
0.0
 10
8.089633
 20
6.055210
 30
0.0
  0
LWPOLYLINE
  5
193
100
AcDbEntity
  8
0
 62
7
100
AcDbPolyline
 90
2
 70
1
 10
12.164219
 20
6.577762
 30
0.0
 10
12.164219
 20
6.577762
 30
0.0
  0
SPLINE
  5
194
100
AcDbEntity
  8
0
 62
7
100
AcDbSpline
 70
8
 71
3
 72
8
 73
4
 74
0
 40
0
 40
0
 40
0
 40
0
 40
1
 40
1
 40
1
 40
1
 10
7.439754
 20
6.303257
 30
0.0
 10
7.438766
 20
6.360470
 30
0.0
 10
7.442519
 20
6.417178
 30
0.0
 10
7.447470
 20
6.460904
 30
0.0
  0
SPLINE
  5
195
100
AcDbEntity
  8
0
 62
7
100
AcDbSpline
 70
8
 71
3
 72
8
 73
4
 74
0
 40
0
 40
0
 40
0
 40
0
 40
1
 40
1
 40
1
 40
1
 10
7.447470
 20
6.460904
 30
0.0
 10
7.473567
 20
6.462823
 30
0.0
 10
7.496023
 20
6.464565
 30
0.0
 10
7.534010
 20
6.466416
 30
0.0
  0
SPLINE
  5
196
100
AcDbEntity
  8
0
 62
7
100
AcDbSpline
 70
8
 71
3
 72
8
 73
4
 74
0
 40
0
 40
0
 40
0
 40
0
 40
1
 40
1
 40
1
 40
1
 10
7.534010
 20
6.466416
 30
0.0
 10
7.650141
 20
6.472080
 30
0.0
 10
7.816495
 20
6.477059
 30
0.0
 10
8.016324
 20
6.481298
 30
0.0
  0
SPLINE
  5
197
100
AcDbEntity
  8
0
 62
7
100
AcDbSpline
 70
8
 71
3
 72
8
 73
4
 74
0
 40
0
 40
0
 40
0
 40
0
 40
1
 40
1
 40
1
 40
1
 10
8.016324
 20
6.481298
 30
0.0
 10
8.415982
 20
6.489778
 30
0.0
 10
8.949879
 20
6.495502
 30
0.0
 10
9.491927
 20
6.497283
 30
0.0
  0
LWPOLYLINE
  5
198
100
AcDbEntity
  8
0
 62
7
100
AcDbPolyline
 90
3
 70
1
 10
8.089633
 20
6.055210
 30
0.0
 10
7.441955
 20
6.179233
 30
0.0
 10
7.439754
 20
6.303257
 30
0.0
  0
SPLINE
  5
199
100
AcDbEntity
  8
0
 62
7
100
AcDbSpline
 70
8
 71
3
 72
8
 73
4
 74
0
 40
0
 40
0
 40
0
 40
0
 40
1
 40
1
 40
1
 40
1
 10
5.926667
 20
6.466967
 30
0.0
 10
6.220089
 20
6.464597
 30
0.0
 10
6.466937
 20
6.460490
 30
0.0
 10
6.641593
 20
6.454290
 30
0.0
  0
SPLINE
  5
19a
100
AcDbEntity
  8
0
 62
7
100
AcDbSpline
 70
8
 71
3
 72
8
 73
4
 74
0
 40
0
 40
0
 40
0
 40
0
 40
1
 40
1
 40
1
 40
1
 10
6.641593
 20
6.454290
 30
0.0
 10
6.725595
 20
6.451307
 30
0.0
 10
6.790540
 20
6.448067
 30
0.0
 10
6.836723
 20
6.444367
 30
0.0
  0
SPLINE
  5
19b
100
AcDbEntity
  8
0
 62
7
100
AcDbSpline
 70
8
 71
3
 72
8
 73
4
 74
0
 40
0
 40
0
 40
0
 40
0
 40
1
 40
1
 40
1
 40
1
 10
6.836723
 20
6.444367
 30
0.0
 10
6.840115
 20
6.425983
 30
0.0
 10
6.843674
 20
6.410874
 30
0.0
 10
6.846646
 20
6.384836
 30
0.0
  0
SPLINE
  5
19c
100
AcDbEntity
  8
0
 62
7
100
AcDbSpline
 70
8
 71
3
 72
8
 73
4
 74
0
 40
0
 40
0
 40
0
 40
0
 40
1
 40
1
 40
1
 40
1
 10
6.846646
 20
6.384836
 30
0.0
 10
6.856058
 20
6.302341
 30
0.0
 10
6.860850
 20
6.189328
 30
0.0
 10
6.858773
 20
6.072297
 30
0.0
  0
SPLINE
  5
19d
100
AcDbEntity
  8
0
 62
7
100
AcDbSpline
 70
8
 71
3
 72
8
 73
4
 74
0
 40
0
 40
0
 40
0
 40
0
 40
1
 40
1
 40
1
 40
1
 10
6.858773
 20
6.072297
 30
0.0
 10
6.854362
 20
5.823830
 30
0.0
 10
6.853964
 20
5.348713
 30
0.0
 10
6.857672
 20
5.011207
 30
0.0
  0
SPLINE
  5
19e
100
AcDbEntity
  8
0
 62
7
100
AcDbSpline
 70
8
 71
3
 72
8
 73
4
 74
0
 40
0
 40
0
 40
0
 40
0
 40
1
 40
1
 40
1
 40
1
 10
6.857672
 20
5.011207
 30
0.0
 10
6.860757
 20
4.730400
 30
0.0
 10
6.852866
 20
4.577214
 30
0.0
 10
6.837829
 20
4.526138
 30
0.0
  0
SPLINE
  5
19f
100
AcDbEntity
  8
0
 62
7
100
AcDbSpline
 70
8
 71
3
 72
8
 73
4
 74
0
 40
0
 40
0
 40
0
 40
0
 40
1
 40
1
 40
1
 40
1
 10
6.837829
 20
4.526138
 30
0.0
 10
6.830311
 20
4.500599
 30
0.0
 10
6.829958
 20
4.504093
 30
0.0
 10
6.825702
 20
4.500783
 30
0.0
  0
SPLINE
  5
1a0
100
AcDbEntity
  8
0
 62
7
100
AcDbSpline
 70
8
 71
3
 72
8
 73
4
 74
0
 40
0
 40
0
 40
0
 40
0
 40
1
 40
1
 40
1
 40
1
 10
6.825702
 20
4.500783
 30
0.0
 10
6.821446
 20
4.497470
 30
0.0
 10
6.801823
 20
4.487239
 30
0.0
 10
6.759556
 20
4.474325
 30
0.0
  0
SPLINE
  5
1a1
100
AcDbEntity
  8
0
 62
7
100
AcDbSpline
 70
8
 71
3
 72
8
 73
4
 74
0
 40
0
 40
0
 40
0
 40
0
 40
1
 40
1
 40
1
 40
1
 10
6.759556
 20
4.474325
 30
0.0
 10
6.750291
 20
4.471494
 30
0.0
 10
6.687248
 20
4.458986
 30
0.0
 10
6.604114
 20
4.448970
 30
0.0
  0
SPLINE
  5
1a2
100
AcDbEntity
  8
0
 62
7
100
AcDbSpline
 70
8
 71
3
 72
8
 73
4
 74
0
 40
0
 40
0
 40
0
 40
0
 40
1
 40
1
 40
1
 40
1
 10
6.604114
 20
4.448970
 30
0.0
 10
6.520979
 20
4.438954
 30
0.0
 10
6.412292
 20
4.428438
 30
0.0
 10
6.284960
 20
4.418102
 30
0.0
  0
SPLINE
  5
1a3
100
AcDbEntity
  8
0
 62
7
100
AcDbSpline
 70
8
 71
3
 72
8
 73
4
 74
0
 40
0
 40
0
 40
0
 40
0
 40
1
 40
1
 40
1
 40
1
 10
6.284960
 20
4.418102
 30
0.0
 10
6.030295
 20
4.397429
 30
0.0
 10
5.700996
 20
4.377222
 30
0.0
 10
5.346240
 20
4.359673
 30
0.0
  0
SPLINE
  5
1a4
100
AcDbEntity
  8
0
 62
7
100
AcDbSpline
 70
8
 71
3
 72
8
 73
4
 74
0
 40
0
 40
0
 40
0
 40
0
 40
1
 40
1
 40
1
 40
1
 10
5.346240
 20
4.359673
 30
0.0
 10
4.636729
 20
4.324575
 30
0.0
 10
3.822340
 20
4.300940
 30
0.0
 10
3.288003
 20
4.306756
 30
0.0
  0
SPLINE
  5
1a5
100
AcDbEntity
  8
0
 62
7
100
AcDbSpline
 70
8
 71
3
 72
8
 73
4
 74
0
 40
0
 40
0
 40
0
 40
0
 40
1
 40
1
 40
1
 40
1
 10
3.288003
 20
4.306756
 30
0.0
 10
2.892573
 20
4.311060
 30
0.0
 10
2.267029
 20
4.343759
 30
0.0
 10
1.734678
 20
4.382273
 30
0.0
  0
SPLINE
  5
1a6
100
AcDbEntity
  8
0
 62
7
100
AcDbSpline
 70
8
 71
3
 72
8
 73
4
 74
0
 40
0
 40
0
 40
0
 40
0
 40
1
 40
1
 40
1
 40
1
 10
1.734678
 20
4.382273
 30
0.0
 10
1.468502
 20
4.401529
 30
0.0
 10
1.224882
 20
4.422206
 30
0.0
 10
1.045659
 20
4.441253
 30
0.0
  0
SPLINE
  5
1a7
100
AcDbEntity
  8
0
 62
7
100
AcDbSpline
 70
8
 71
3
 72
8
 73
4
 74
0
 40
0
 40
0
 40
0
 40
0
 40
1
 40
1
 40
1
 40
1
 10
1.045659
 20
4.441253
 30
0.0
 10
0.957895
 20
4.450580
 30
0.0
 10
0.886696
 20
4.459335
 30
0.0
 10
0.836197
 20
4.467161
 30
0.0
  0
SPLINE
  5
1a8
100
AcDbEntity
  8
0
 62
7
100
AcDbSpline
 70
8
 71
3
 72
8
 73
4
 74
0
 40
0
 40
0
 40
0
 40
0
 40
1
 40
1
 40
1
 40
1
 10
0.836197
 20
4.467161
 30
0.0
 10
0.831731
 20
4.521880
 30
0.0
 10
0.827830
 20
4.600031
 30
0.0
 10
0.824070
 20
4.694261
 30
0.0
  0
SPLINE
  5
1a9
100
AcDbEntity
  8
0
 62
7
100
AcDbSpline
 70
8
 71
3
 72
8
 73
4
 74
0
 40
0
 40
0
 40
0
 40
0
 40
1
 40
1
 40
1
 40
1
 10
0.824070
 20
4.694261
 30
0.0
 10
0.816368
 20
4.887309
 30
0.0
 10
0.810866
 20
5.144361
 30
0.0
 10
0.808085
 20
5.403676
 30
0.0
  0
SPLINE
  5
1aa
100
AcDbEntity
  8
0
 62
7
100
AcDbSpline
 70
8
 71
3
 72
8
 73
4
 74
0
 40
0
 40
0
 40
0
 40
0
 40
1
 40
1
 40
1
 40
1
 10
0.808085
 20
5.403676
 30
0.0
 10
0.805305
 20
5.662990
 30
0.0
 10
0.805163
 20
5.924816
 30
0.0
 10
0.808635
 20
6.126870
 30
0.0
  0
SPLINE
  5
1ab
100
AcDbEntity
  8
0
 62
7
100
AcDbSpline
 70
8
 71
3
 72
8
 73
4
 74
0
 40
0
 40
0
 40
0
 40
0
 40
1
 40
1
 40
1
 40
1
 10
0.808635
 20
6.126870
 30
0.0
 10
0.810371
 20
6.227897
 30
0.0
 10
0.812949
 20
6.313862
 30
0.0
 10
0.816352
 20
6.376019
 30
0.0
  0
SPLINE
  5
1ac
100
AcDbEntity
  8
0
 62
7
100
AcDbSpline
 70
8
 71
3
 72
8
 73
4
 74
0
 40
0
 40
0
 40
0
 40
0
 40
1
 40
1
 40
1
 40
1
 10
0.816352
 20
6.376019
 30
0.0
 10
0.816545
 20
6.379550
 30
0.0
 10
0.816705
 20
6.380913
 30
0.0
 10
0.816903
 20
6.384289
 30
0.0
  0
SPLINE
  5
1ad
100
AcDbEntity
  8
0
 62
7
100
AcDbSpline
 70
8
 71
3
 72
8
 73
4
 74
0
 40
0
 40
0
 40
0
 40
0
 40
1
 40
1
 40
1
 40
1
 10
0.816903
 20
6.384289
 30
0.0
 10
0.858163
 20
6.388172
 30
0.0
 10
0.904356
 20
6.391934
 30
0.0
 10
0.972345
 20
6.395865
 30
0.0
  0
SPLINE
  5
1ae
100
AcDbEntity
  8
0
 62
7
100
AcDbSpline
 70
8
 71
3
 72
8
 73
4
 74
0
 40
0
 40
0
 40
0
 40
0
 40
1
 40
1
 40
1
 40
1
 10
0.972345
 20
6.395865
 30
0.0
 10
1.140630
 20
6.405591
 30
0.0
 10
1.382016
 20
6.415048
 30
0.0
 10
1.671286
 20
6.423427
 30
0.0
  0
SPLINE
  5
1af
100
AcDbEntity
  8
0
 62
7
100
AcDbSpline
 70
8
 71
3
 72
8
 73
4
 74
0
 40
0
 40
0
 40
0
 40
0
 40
1
 40
1
 40
1
 40
1
 10
1.671286
 20
6.423427
 30
0.0
 10
2.249827
 20
6.440183
 30
0.0
 10
3.020515
 20
6.453498
 30
0.0
 10
3.792914
 20
6.461461
 30
0.0
  0
SPLINE
  5
1b0
100
AcDbEntity
  8
0
 62
7
100
AcDbSpline
 70
8
 71
3
 72
8
 73
4
 74
0
 40
0
 40
0
 40
0
 40
0
 40
1
 40
1
 40
1
 40
1
 10
3.792914
 20
6.461461
 30
0.0
 10
4.565311
 20
6.469419
 30
0.0
 10
5.339822
 20
6.471708
 30
0.0
 10
5.926667
 20
6.466967
 30
0.0
  0
LWPOLYLINE
  5
1b1
100
AcDbEntity
  8
0
 62
7
100
AcDbPolyline
 90
2
 70
1
 10
9.491927
 20
6.497283
 30
0.0
 10
9.491927
 20
6.497284
 30
0.0
  0
SPLINE
  5
1b2
100
AcDbEntity
  8
0
 62
7
100
AcDbSpline
 70
8
 71
3
 72
8
 73
4
 74
0
 40
0
 40
0
 40
0
 40
0
 40
1
 40
1
 40
1
 40
1
 10
1.206610
 20
6.394207
 30
0.0
 10
1.086048
 20
6.379404
 30
0.0
 10
0.985675
 20
6.364836
 30
0.0
 10
0.905647
 20
6.279003
 30
0.0
  0
SPLINE
  5
1b3
100
AcDbEntity
  8
0
 62
7
100
AcDbSpline
 70
8
 71
3
 72
8
 73
4
 74
0
 40
0
 40
0
 40
0
 40
0
 40
1
 40
1
 40
1
 40
1
 10
0.905647
 20
6.279003
 30
0.0
 10
0.825619
 20
6.193170
 30
0.0
 10
0.825913
 20
6.080359
 30
0.0
 10
0.838950
 20
5.974181
 30
0.0
  0
SPLINE
  5
1b4
100
AcDbEntity
  8
0
 62
7
100
AcDbSpline
 70
8
 71
3
 72
8
 73
4
 74
0
 40
0
 40
0
 40
0
 40
0
 40
1
 40
1
 40
1
 40
1
 10
0.838950
 20
5.974181
 30
0.0
 10
0.855793
 20
5.837001
 30
0.0
 10
0.930382
 20
5.724406
 30
0.0
 10
1.027465
 20
5.650066
 30
0.0
  0
SPLINE
  5
1b5
100
AcDbEntity
  8
0
 62
7
100
AcDbSpline
 70
8
 71
3
 72
8
 73
4
 74
0
 40
0
 40
0
 40
0
 40
0
 40
1
 40
1
 40
1
 40
1
 10
1.027465
 20
5.650066
 30
0.0
 10
1.124549
 20
5.575726
 30
0.0
 10
1.267992
 20
5.531390
 30
0.0
 10
1.395126
 20
5.604867
 30
0.0
  0
SPLINE
  5
1b6
100
AcDbEntity
  8
0
 62
7
100
AcDbSpline
 70
8
 71
3
 72
8
 73
4
 74
0
 40
0
 40
0
 40
0
 40
0
 40
1
 40
1
 40
1
 40
1
 10
1.395126
 20
5.604867
 30
0.0
 10
1.503378
 20
5.667430
 30
0.0
 10
1.590684
 20
5.736295
 30
0.0
 10
1.634905
 20
5.840787
 30
0.0
  0
SPLINE
  5
1b7
100
AcDbEntity
  8
0
 62
7
100
AcDbSpline
 70
8
 71
3
 72
8
 73
4
 74
0
 40
0
 40
0
 40
0
 40
0
 40
1
 40
1
 40
1
 40
1
 10
1.634905
 20
5.840787
 30
0.0
 10
1.679125
 20
5.945278
 30
0.0
 10
1.659927
 20
6.061593
 30
0.0
 10
1.614510
 20
6.164350
 30
0.0
  0
SPLINE
  5
1b8
100
AcDbEntity
  8
0
 62
7
100
AcDbSpline
 70
8
 71
3
 72
8
 73
4
 74
0
 40
0
 40
0
 40
0
 40
0
 40
1
 40
1
 40
1
 40
1
 10
1.614510
 20
6.164350
 30
0.0
 10
1.580232
 20
6.241903
 30
0.0
 10
1.532810
 20
6.314849
 30
0.0
 10
1.455208
 20
6.358378
 30
0.0
  0
SPLINE
  5
1b9
100
AcDbEntity
  8
0
 62
7
100
AcDbSpline
 70
8
 71
3
 72
8
 73
4
 74
0
 40
0
 40
0
 40
0
 40
0
 40
1
 40
1
 40
1
 40
1
 10
1.455208
 20
6.358378
 30
0.0
 10
1.377606
 20
6.401907
 30
0.0
 10
1.291323
 20
6.404608
 30
0.0
 10
1.206610
 20
6.394207
 30
0.0
  0
LWPOLYLINE
  5
1ba
100
AcDbEntity
  8
0
 62
7
100
AcDbPolyline
 90
2
 70
1
 10
5.926667
 20
6.466967
 30
0.0
 10
5.926667
 20
6.466967
 30
0.0
  0
SPLINE
  5
1bb
100
AcDbEntity
  8
0
 62
7
100
AcDbSpline
 70
8
 71
3
 72
8
 73
4
 74
0
 40
0
 40
0
 40
0
 40
0
 40
1
 40
1
 40
1
 40
1
 10
1.241337
 20
6.114190
 30
0.0
 10
1.297417
 20
6.121076
 30
0.0
 10
1.313615
 20
6.114110
 30
0.0
 10
1.317405
 20
6.111988
 30
0.0
  0
SPLINE
  5
1bc
100
AcDbEntity
  8
0
 62
7
100
AcDbSpline
 70
8
 71
3
 72
8
 73
4
 74
0
 40
0
 40
0
 40
0
 40
0
 40
1
 40
1
 40
1
 40
1
 10
1.317405
 20
6.111988
 30
0.0
 10
1.321194
 20
6.109872
 30
0.0
 10
1.334246
 20
6.100694
 30
0.0
 10
1.356541
 20
6.050252
 30
0.0
  0
SPLINE
  5
1bd
100
AcDbEntity
  8
0
 62
7
100
AcDbSpline
 70
8
 71
3
 72
8
 73
4
 74
0
 40
0
 40
0
 40
0
 40
0
 40
1
 40
1
 40
1
 40
1
 10
1.356541
 20
6.050252
 30
0.0
 10
1.385231
 20
5.985342
 30
0.0
 10
1.381552
 20
5.967150
 30
0.0
 10
1.374731
 20
5.951033
 30
0.0
  0
SPLINE
  5
1be
100
AcDbEntity
  8
0
 62
7
100
AcDbSpline
 70
8
 71
3
 72
8
 73
4
 74
0
 40
0
 40
0
 40
0
 40
0
 40
1
 40
1
 40
1
 40
1
 10
1.374731
 20
5.951033
 30
0.0
 10
1.367910
 20
5.934915
 30
0.0
 10
1.337794
 20
5.897478
 30
0.0
 10
1.254015
 20
5.849058
 30
0.0
  0
SPLINE
  5
1bf
100
AcDbEntity
  8
0
 62
7
100
AcDbSpline
 70
8
 71
3
 72
8
 73
4
 74
0
 40
0
 40
0
 40
0
 40
0
 40
1
 40
1
 40
1
 40
1
 10
1.254015
 20
5.849058
 30
0.0
 10
1.255609
 20
5.849990
 30
0.0
 10
1.237403
 20
5.844376
 30
0.0
 10
1.198893
 20
5.873863
 30
0.0
  0
SPLINE
  5
1c0
100
AcDbEntity
  8
0
 62
7
100
AcDbSpline
 70
8
 71
3
 72
8
 73
4
 74
0
 40
0
 40
0
 40
0
 40
0
 40
1
 40
1
 40
1
 40
1
 10
1.198893
 20
5.873863
 30
0.0
 10
1.160384
 20
5.903351
 30
0.0
 10
1.124985
 20
5.959350
 30
0.0
 10
1.118967
 20
6.008359
 30
0.0
  0
SPLINE
  5
1c1
100
AcDbEntity
  8
0
 62
7
100
AcDbSpline
 70
8
 71
3
 72
8
 73
4
 74
0
 40
0
 40
0
 40
0
 40
0
 40
1
 40
1
 40
1
 40
1
 10
1.118967
 20
6.008359
 30
0.0
 10
1.108932
 20
6.090090
 30
0.0
 10
1.119554
 20
6.094949
 30
0.0
 10
1.111801
 20
6.086632
 30
0.0
  0
SPLINE
  5
1c2
100
AcDbEntity
  8
0
 62
7
100
AcDbSpline
 70
8
 71
3
 72
8
 73
4
 74
0
 40
0
 40
0
 40
0
 40
0
 40
1
 40
1
 40
1
 40
1
 10
1.111801
 20
6.086632
 30
0.0
 10
1.104047
 20
6.078315
 30
0.0
 10
1.137993
 20
6.101502
 30
0.0
 10
1.241337
 20
6.114194
 30
0.0
  0
LWPOLYLINE
  5
1c3
100
AcDbEntity
  8
0
 62
7
100
AcDbPolyline
 90
2
 70
1
 10
1.206610
 20
6.394207
 30
0.0
 10
1.206610
 20
6.394207
 30
0.0
  0
SPLINE
  5
1c4
100
AcDbEntity
  8
0
 62
7
100
AcDbSpline
 70
8
 71
3
 72
8
 73
4
 74
0
 40
0
 40
0
 40
0
 40
0
 40
1
 40
1
 40
1
 40
1
 10
0.526411
 20
5.892601
 30
0.0
 10
0.525527
 20
5.732978
 30
0.0
 10
0.523975
 20
5.576742
 30
0.0
 10
0.525860
 20
5.400917
 30
0.0
  0
SPLINE
  5
1c5
100
AcDbEntity
  8
0
 62
7
100
AcDbSpline
 70
8
 71
3
 72
8
 73
4
 74
0
 40
0
 40
0
 40
0
 40
0
 40
1
 40
1
 40
1
 40
1
 10
0.525860
 20
5.400917
 30
0.0
 10
0.528663
 20
5.139544
 30
0.0
 10
0.533964
 20
4.880230
 30
0.0
 10
0.541846
 20
4.682684
 30
0.0
  0
SPLINE
  5
1c6
100
AcDbEntity
  8
0
 62
7
100
AcDbSpline
 70
8
 71
3
 72
8
 73
4
 74
0
 40
0
 40
0
 40
0
 40
0
 40
1
 40
1
 40
1
 40
1
 10
0.541846
 20
4.682684
 30
0.0
 10
0.545786
 20
4.583910
 30
0.0
 10
0.550404
 20
4.500967
 30
0.0
 10
0.555626
 20
4.438495
 30
0.0
  0
SPLINE
  5
1c7
100
AcDbEntity
  8
0
 62
7
100
AcDbSpline
 70
8
 71
3
 72
8
 73
4
 74
0
 40
0
 40
0
 40
0
 40
0
 40
1
 40
1
 40
1
 40
1
 10
0.555626
 20
4.438495
 30
0.0
 10
0.558237
 20
4.407259
 30
0.0
 10
0.560747
 20
4.381725
 30
0.0
 10
0.564445
 20
4.358569
 30
0.0
  0
SPLINE
  5
1c8
100
AcDbEntity
  8
0
 62
7
100
AcDbSpline
 70
8
 71
3
 72
8
 73
4
 74
0
 40
0
 40
0
 40
0
 40
0
 40
1
 40
1
 40
1
 40
1
 10
0.564445
 20
4.358569
 30
0.0
 10
0.566294
 20
4.346989
 30
0.0
 10
0.568115
 20
4.336372
 30
0.0
 10
0.572162
 20
4.322189
 30
0.0
  0
SPLINE
  5
1c9
100
AcDbEntity
  8
0
 62
7
100
AcDbSpline
 70
8
 71
3
 72
8
 73
4
 74
0
 40
0
 40
0
 40
0
 40
0
 40
1
 40
1
 40
1
 40
1
 10
0.572162
 20
4.322189
 30
0.0
 10
0.576210
 20
4.308004
 30
0.0
 10
0.561768
 20
4.290503
 30
0.0
 10
0.625630
 20
4.240609
 30
0.0
  0
SPLINE
  5
1ca
100
AcDbEntity
  8
0
 62
7
100
AcDbSpline
 70
8
 71
3
 72
8
 73
4
 74
0
 40
0
 40
0
 40
0
 40
0
 40
1
 40
1
 40
1
 40
1
 10
0.625630
 20
4.240609
 30
0.0
 10
0.679831
 20
4.198263
 30
0.0
 10
0.689161
 20
4.208429
 30
0.0
 10
0.711620
 20
4.203126
 30
0.0
  0
SPLINE
  5
1cb
100
AcDbEntity
  8
0
 62
7
100
AcDbSpline
 70
8
 71
3
 72
8
 73
4
 74
0
 40
0
 40
0
 40
0
 40
0
 40
1
 40
1
 40
1
 40
1
 10
0.711620
 20
4.203126
 30
0.0
 10
0.734079
 20
4.197823
 30
0.0
 10
0.758781
 20
4.193415
 30
0.0
 10
0.788239
 20
4.188795
 30
0.0
  0
SPLINE
  5
1cc
100
AcDbEntity
  8
0
 62
7
100
AcDbSpline
 70
8
 71
3
 72
8
 73
4
 74
0
 40
0
 40
0
 40
0
 40
0
 40
1
 40
1
 40
1
 40
1
 10
0.788239
 20
4.188795
 30
0.0
 10
0.847156
 20
4.179555
 30
0.0
 10
0.923632
 20
4.170487
 30
0.0
 10
1.015891
 20
4.160683
 30
0.0
  0
SPLINE
  5
1cd
100
AcDbEntity
  8
0
 62
7
100
AcDbSpline
 70
8
 71
3
 72
8
 73
4
 74
0
 40
0
 40
0
 40
0
 40
0
 40
1
 40
1
 40
1
 40
1
 10
1.015891
 20
4.160683
 30
0.0
 10
1.200408
 20
4.141074
 30
0.0
 10
1.445950
 20
4.120013
 30
0.0
 10
1.714281
 20
4.100601
 30
0.0
  0
SPLINE
  5
1ce
100
AcDbEntity
  8
0
 62
7
100
AcDbSpline
 70
8
 71
3
 72
8
 73
4
 74
0
 40
0
 40
0
 40
0
 40
0
 40
1
 40
1
 40
1
 40
1
 10
1.714281
 20
4.100601
 30
0.0
 10
2.234374
 20
4.062973
 30
0.0
 10
2.828833
 20
4.032732
 30
0.0
 10
3.236737
 20
4.026738
 30
0.0
  0
SPLINE
  5
1cf
100
AcDbEntity
  8
0
 62
7
100
AcDbSpline
 70
8
 71
3
 72
8
 73
4
 74
0
 40
0
 40
0
 40
0
 40
0
 40
1
 40
1
 40
1
 40
1
 10
3.236737
 20
4.026738
 30
0.0
 10
2.695758
 20
4.034276
 30
0.0
 10
2.144826
 20
4.041275
 30
0.0
 10
1.706012
 20
4.077449
 30
0.0
  0
SPLINE
  5
1d0
100
AcDbEntity
  8
0
 62
7
100
AcDbSpline
 70
8
 71
3
 72
8
 73
4
 74
0
 40
0
 40
0
 40
0
 40
0
 40
1
 40
1
 40
1
 40
1
 10
1.706012
 20
4.077449
 30
0.0
 10
1.363488
 20
4.105685
 30
0.0
 10
1.112702
 20
4.116859
 30
0.0
 10
0.934311
 20
4.108869
 30
0.0
  0
SPLINE
  5
1d1
100
AcDbEntity
  8
0
 62
7
100
AcDbSpline
 70
8
 71
3
 72
8
 73
4
 74
0
 40
0
 40
0
 40
0
 40
0
 40
1
 40
1
 40
1
 40
1
 10
0.934311
 20
4.108869
 30
0.0
 10
0.845115
 20
4.104872
 30
0.0
 10
0.774557
 20
4.097523
 30
0.0
 10
0.711620
 20
4.079103
 30
0.0
  0
SPLINE
  5
1d2
100
AcDbEntity
  8
0
 62
7
100
AcDbSpline
 70
8
 71
3
 72
8
 73
4
 74
0
 40
0
 40
0
 40
0
 40
0
 40
1
 40
1
 40
1
 40
1
 10
0.711620
 20
4.079103
 30
0.0
 10
0.652188
 20
4.061708
 30
0.0
 10
0.583399
 20
4.023305
 30
0.0
 10
0.551215
 20
3.940748
 30
0.0
  0
SPLINE
  5
1d3
100
AcDbEntity
  8
0
 62
7
100
AcDbSpline
 70
8
 71
3
 72
8
 73
4
 74
0
 40
0
 40
0
 40
0
 40
0
 40
1
 40
1
 40
1
 40
1
 10
0.551215
 20
3.940748
 30
0.0
 10
0.548354
 20
3.976259
 30
0.0
 10
0.544411
 20
3.997281
 30
0.0
 10
0.541845
 20
4.036108
 30
0.0
  0
SPLINE
  5
1d4
100
AcDbEntity
  8
0
 62
7
100
AcDbSpline
 70
8
 71
3
 72
8
 73
4
 74
0
 40
0
 40
0
 40
0
 40
0
 40
1
 40
1
 40
1
 40
1
 10
0.541845
 20
4.036108
 30
0.0
 10
0.522353
 20
4.330986
 30
0.0
 10
0.511669
 20
4.715192
 30
0.0
 10
0.509874
 20
5.099953
 30
0.0
  0
SPLINE
  5
1d5
100
AcDbEntity
  8
0
 62
7
100
AcDbSpline
 70
8
 71
3
 72
8
 73
4
 74
0
 40
0
 40
0
 40
0
 40
0
 40
1
 40
1
 40
1
 40
1
 10
0.509874
 20
5.099953
 30
0.0
 10
0.508542
 20
5.385302
 30
0.0
 10
0.517569
 20
5.642158
 30
0.0
 10
0.526411
 20
5.892601
 30
0.0
  0
LWPOLYLINE
  5
1d6
100
AcDbEntity
  8
0
 62
7
100
AcDbPolyline
 90
2
 70
1
 10
1.241337
 20
6.114194
 30
0.0
 10
1.241337
 20
6.114190
 30
0.0
  0
SPLINE
  5
1d7
100
AcDbEntity
  8
0
 62
7
100
AcDbSpline
 70
8
 71
3
 72
8
 73
4
 74
0
 40
0
 40
0
 40
0
 40
0
 40
1
 40
1
 40
1
 40
1
 10
12.075473
 20
5.866693
 30
0.0
 10
12.065708
 20
5.857016
 30
0.0
 10
12.052720
 20
5.856621
 30
0.0
 10
12.042400
 20
5.847951
 30
0.0
  0
SPLINE
  5
1d8
100
AcDbEntity
  8
0
 62
7
100
AcDbSpline
 70
8
 71
3
 72
8
 73
4
 74
0
 40
0
 40
0
 40
0
 40
0
 40
1
 40
1
 40
1
 40
1
 10
12.042400
 20
5.847951
 30
0.0
 10
12.053590
 20
5.854137
 30
0.0
 10
12.064922
 20
5.858717
 30
0.0
 10
12.075473
 20
5.866693
 30
0.0
  0
LWPOLYLINE
  5
1d9
100
AcDbEntity
  8
0
 62
7
100
AcDbPolyline
 90
2
 70
1
 10
0.526411
 20
5.892601
 30
0.0
 10
0.526411
 20
5.892601
 30
0.0
  0
SPLINE
  5
1da
100
AcDbEntity
  8
0
 62
7
100
AcDbSpline
 70
8
 71
3
 72
8
 73
4
 74
0
 40
0
 40
0
 40
0
 40
0
 40
1
 40
1
 40
1
 40
1
 10
6.848850
 20
3.851450
 30
0.0
 10
6.840956
 20
3.846071
 30
0.0
 10
6.837835
 20
3.841250
 30
0.0
 10
6.809162
 20
3.831607
 30
0.0
  0
SPLINE
  5
1db
100
AcDbEntity
  8
0
 62
7
100
AcDbSpline
 70
8
 71
3
 72
8
 73
4
 74
0
 40
0
 40
0
 40
0
 40
0
 40
1
 40
1
 40
1
 40
1
 10
6.809162
 20
3.831607
 30
0.0
 10
6.725053
 20
3.803318
 30
0.0
 10
6.544609
 20
3.774401
 30
0.0
 10
6.241962
 20
3.742310
 30
0.0
  0
SPLINE
  5
1dc
100
AcDbEntity
  8
0
 62
7
100
AcDbSpline
 70
8
 71
3
 72
8
 73
4
 74
0
 40
0
 40
0
 40
0
 40
0
 40
1
 40
1
 40
1
 40
1
 10
6.241962
 20
3.742310
 30
0.0
 10
4.937223
 20
3.603966
 30
0.0
 10
2.953443
 20
3.578091
 30
0.0
 10
1.742391
 20
3.682779
 30
0.0
  0
SPLINE
  5
1dd
100
AcDbEntity
  8
0
 62
7
100
AcDbSpline
 70
8
 71
3
 72
8
 73
4
 74
0
 40
0
 40
0
 40
0
 40
0
 40
1
 40
1
 40
1
 40
1
 10
1.742391
 20
3.682779
 30
0.0
 10
1.257516
 20
3.724693
 30
0.0
 10
0.975675
 20
3.761603
 30
0.0
 10
0.857691
 20
3.800739
 30
0.0
  0
SPLINE
  5
1de
100
AcDbEntity
  8
0
 62
7
100
AcDbSpline
 70
8
 71
3
 72
8
 73
4
 74
0
 40
0
 40
0
 40
0
 40
0
 40
1
 40
1
 40
1
 40
1
 10
0.857691
 20
3.800739
 30
0.0
 10
0.828095
 20
3.810556
 30
0.0
 10
0.836711
 20
3.808112
 30
0.0
 10
0.829028
 20
3.812866
 30
0.0
  0
SPLINE
  5
1df
100
AcDbEntity
  8
0
 62
7
100
AcDbSpline
 70
8
 71
3
 72
8
 73
4
 74
0
 40
0
 40
0
 40
0
 40
0
 40
1
 40
1
 40
1
 40
1
 10
0.829028
 20
3.812866
 30
0.0
 10
0.858262
 20
3.818490
 30
0.0
 10
0.888780
 20
3.824589
 30
0.0
 10
0.946988
 20
3.827197
 30
0.0
  0
SPLINE
  5
1e0
100
AcDbEntity
  8
0
 62
7
100
AcDbSpline
 70
8
 71
3
 72
8
 73
4
 74
0
 40
0
 40
0
 40
0
 40
0
 40
1
 40
1
 40
1
 40
1
 10
0.946988
 20
3.827197
 30
0.0
 10
1.100980
 20
3.834094
 30
0.0
 10
1.345767
 20
3.824118
 30
0.0
 10
1.682860
 20
3.796329
 30
0.0
  0
SPLINE
  5
1e1
100
AcDbEntity
  8
0
 62
7
100
AcDbSpline
 70
8
 71
3
 72
8
 73
4
 74
0
 40
0
 40
0
 40
0
 40
0
 40
1
 40
1
 40
1
 40
1
 10
1.682860
 20
3.796329
 30
0.0
 10
2.882415
 20
3.697444
 30
0.0
 10
4.582128
 20
3.704153
 30
0.0
 10
6.004939
 20
3.812864
 30
0.0
  0
SPLINE
  5
1e2
100
AcDbEntity
  8
0
 62
7
100
AcDbSpline
 70
8
 71
3
 72
8
 73
4
 74
0
 40
0
 40
0
 40
0
 40
0
 40
1
 40
1
 40
1
 40
1
 10
6.004939
 20
3.812864
 30
0.0
 10
6.473042
 20
3.848630
 30
0.0
 10
6.734112
 20
3.861851
 30
0.0
 10
6.848850
 20
3.851449
 30
0.0
  0
LWPOLYLINE
  5
1e3
100
AcDbEntity
  8
0
 62
7
100
AcDbPolyline
 90
2
 70
1
 10
12.075473
 20
5.866693
 30
0.0
 10
12.075473
 20
5.866693
 30
0.0
  0
SPLINE
  5
1e4
100
AcDbEntity
  8
0
 62
7
100
AcDbSpline
 70
8
 71
3
 72
8
 73
4
 74
0
 40
0
 40
0
 40
0
 40
0
 40
1
 40
1
 40
1
 40
1
 10
0.577674
 20
3.672306
 30
0.0
 10
0.624598
 20
3.606355
 30
0.0
 10
0.688549
 20
3.559516
 30
0.0
 10
0.768945
 20
3.532848
 30
0.0
  0
SPLINE
  5
1e5
100
AcDbEntity
  8
0
 62
7
100
AcDbSpline
 70
8
 71
3
 72
8
 73
4
 74
0
 40
0
 40
0
 40
0
 40
0
 40
1
 40
1
 40
1
 40
1
 10
0.768945
 20
3.532848
 30
0.0
 10
0.950934
 20
3.472482
 30
0.0
 10
1.229277
 20
3.443870
 30
0.0
 10
1.717587
 20
3.401659
 30
0.0
  0
SPLINE
  5
1e6
100
AcDbEntity
  8
0
 62
7
100
AcDbSpline
 70
8
 71
3
 72
8
 73
4
 74
0
 40
0
 40
0
 40
0
 40
0
 40
1
 40
1
 40
1
 40
1
 10
1.717587
 20
3.401659
 30
0.0
 10
2.256395
 20
3.355083
 30
0.0
 10
2.961347
 20
3.344256
 30
0.0
 10
3.665582
 20
3.346537
 30
0.0
  0
SPLINE
  5
1e7
100
AcDbEntity
  8
0
 62
7
100
AcDbSpline
 70
8
 71
3
 72
8
 73
4
 74
0
 40
0
 40
0
 40
0
 40
0
 40
1
 40
1
 40
1
 40
1
 10
3.665582
 20
3.346537
 30
0.0
 10
2.936905
 20
3.347638
 30
0.0
 10
2.186937
 20
3.346691
 30
0.0
 10
1.698845
 20
3.381815
 30
0.0
  0
SPLINE
  5
1e8
100
AcDbEntity
  8
0
 62
7
100
AcDbSpline
 70
8
 71
3
 72
8
 73
4
 74
0
 40
0
 40
0
 40
0
 40
0
 40
1
 40
1
 40
1
 40
1
 10
1.698845
 20
3.381815
 30
0.0
 10
1.362530
 20
3.406019
 30
0.0
 10
1.090036
 20
3.438178
 30
0.0
 10
0.895725
 20
3.475522
 30
0.0
  0
SPLINE
  5
1e9
100
AcDbEntity
  8
0
 62
7
100
AcDbSpline
 70
8
 71
3
 72
8
 73
4
 74
0
 40
0
 40
0
 40
0
 40
0
 40
1
 40
1
 40
1
 40
1
 10
0.895725
 20
3.475522
 30
0.0
 10
0.798569
 20
3.494194
 30
0.0
 10
0.720601
 20
3.514202
 30
0.0
 10
0.666970
 20
3.533400
 30
0.0
  0
SPLINE
  5
1ea
100
AcDbEntity
  8
0
 62
7
100
AcDbSpline
 70
8
 71
3
 72
8
 73
4
 74
0
 40
0
 40
0
 40
0
 40
0
 40
1
 40
1
 40
1
 40
1
 10
0.666970
 20
3.533400
 30
0.0
 10
0.613340
 20
3.552596
 30
0.0
 10
0.585600
 20
3.575476
 30
0.0
 10
0.590352
 20
3.570331
 30
0.0
  0
SPLINE
  5
1eb
100
AcDbEntity
  8
0
 62
7
100
AcDbSpline
 70
8
 71
3
 72
8
 73
4
 74
0
 40
0
 40
0
 40
0
 40
0
 40
1
 40
1
 40
1
 40
1
 10
0.590352
 20
3.570331
 30
0.0
 10
0.617199
 20
3.541258
 30
0.0
 10
0.602265
 20
3.550928
 30
0.0
 10
0.596415
 20
3.572532
 30
0.0
  0
SPLINE
  5
1ec
100
AcDbEntity
  8
0
 62
7
100
AcDbSpline
 70
8
 71
3
 72
8
 73
4
 74
0
 40
0
 40
0
 40
0
 40
0
 40
1
 40
1
 40
1
 40
1
 10
0.596415
 20
3.572532
 30
0.0
 10
0.590663
 20
3.593781
 30
0.0
 10
0.584205
 20
3.628863
 30
0.0
 10
0.577674
 20
3.672302
 30
0.0
  0
LWPOLYLINE
  5
1ed
100
AcDbEntity
  8
0
 62
7
100
AcDbPolyline
 90
2
 70
1
 10
6.848850
 20
3.851449
 30
0.0
 10
6.848850
 20
3.851450
 30
0.0
  0
LWPOLYLINE
  5
1ee
100
AcDbEntity
  8
0
 62
7
100
AcDbPolyline
 90
2
 70
1
 10
0.577674
 20
3.672302
 30
0.0
 10
0.577674
 20
3.672306
 30
0.0
  0
ENDSEC
  0
SECTION
  2
OBJECTS
  0
DICTIONARY
  5
C
330
0
100
AcDbDictionary
  3
ACAD_GROUP
350
D
  3
ACAD_MLINESTYLE
350
17
  0
DICTIONARY
  5
D
330
C
100
AcDbDictionary
  0
DICTIONARY
  5
1A
330
C
100
AcDbDictionary
  0
DICTIONARY
  5
17
330
C
100
AcDbDictionary
  3
STANDARD
350
18
  0
DICTIONARY
  5
19
330
C
100
AcDbDictionary
  0
ENDSEC
  0
EOF
