<?xml version="1.0" encoding="UTF-8" standalone="no"?>
<!-- Created with Inkscape (http://www.inkscape.org/) -->

<svg
   xmlns:dc="http://purl.org/dc/elements/1.1/"
   xmlns:cc="http://creativecommons.org/ns#"
   xmlns:rdf="http://www.w3.org/1999/02/22-rdf-syntax-ns#"
   xmlns:svg="http://www.w3.org/2000/svg"
   xmlns="http://www.w3.org/2000/svg"
   xmlns:sodipodi="http://sodipodi.sourceforge.net/DTD/sodipodi-0.dtd"
   xmlns:inkscape="http://www.inkscape.org/namespaces/inkscape"
   width="210mm"
   height="297mm"
   viewBox="0 0 744.09448819 1052.3622047"
   id="svg5959"
   version="1.1"
   inkscape:version="0.91 r"
   sodipodi:docname="cleaver2.svg">
  <defs
     id="defs5961" />
  <sodipodi:namedview
     id="base"
     pagecolor="#ffffff"
     bordercolor="#666666"
     borderopacity="1.0"
     inkscape:pageopacity="0.0"
     inkscape:pageshadow="2"
     inkscape:zoom="5.6"
     inkscape:cx="140.2695"
     inkscape:cy="273.42865"
     inkscape:document-units="px"
     inkscape:current-layer="layer1"
     showgrid="false"
     inkscape:window-width="1500"
     inkscape:window-height="873"
     inkscape:window-x="0"
     inkscape:window-y="0"
     inkscape:window-maximized="1" />
  <metadata
     id="metadata5964">
    <rdf:RDF>
      <cc:Work
         rdf:about="">
        <dc:format>image/svg+xml</dc:format>
        <dc:type
           rdf:resource="http://purl.org/dc/dcmitype/StillImage" />
        <dc:title></dc:title>
      </cc:Work>
    </rdf:RDF>
  </metadata>
  <g
     inkscape:label="Layer 1"
     inkscape:groupmode="layer"
     id="layer1">
    <path
       inkscape:connector-curvature="0"
       id="path5867"
       d="m 248.28503,835.83707 c -2.64,-0.14024 -7.5675,-0.39551 -10.95,-0.56727 -13.47059,-0.68402 -16.79392,-0.90363 -20.25,-1.33813 -4.52881,-0.56937 -10.82948,-1.23261 -17.39688,-1.83127 -2.80328,-0.25554 -5.64467,-0.58739 -6.3142,-0.73743 -0.66953,-0.15005 -3.77593,-0.54618 -6.90312,-0.88031 -3.12719,-0.33413 -7.9808,-0.94452 -10.7858,-1.35642 -10.4261,-1.53105 -13.55225,-2.0165 -15.6,-2.42243 -1.155,-0.22897 -2.8425,-0.50042 -3.75,-0.60323 -0.9075,-0.10281 -2.6625,-0.43681 -3.9,-0.74223 -1.2375,-0.30541 -3.3975,-0.70792 -4.8,-0.89445 -1.4025,-0.18653 -3.6993,-0.59319 -5.10401,-0.90369 -1.40471,-0.3105 -4.23971,-0.90345 -6.3,-1.31766 -6.26865,-1.26029 -19.92553,-4.86259 -21.47141,-5.66355 -1.21211,-0.62803 -2.25596,-1.65075 -3.12639,-3.0631 -0.6792,-1.10207 -0.73439,-1.46341 -0.67908,-4.44601 0.0331,-1.78555 0.25949,-4.48575 0.50306,-6.00045 0.59593,-3.7059 1.31912,-9.81653 1.64571,-13.90551 0.14723,-1.84333 0.33491,-3.46333 0.41706,-3.6 0.0822,-0.13666 0.37358,-2.47598 0.64761,-5.19848 0.27403,-2.7225 0.75944,-7.0425 1.0787,-9.6 0.5379,-4.30913 0.99598,-8.21018 2.23693,-19.05 0.26445,-2.31 0.60608,-4.74 0.75916,-5.4 0.15309,-0.66 0.28259,-1.9425 0.28777,-2.85 0.014,-2.44632 0.54844,-5.31326 1.24511,-6.67884 0.87323,-1.71167 3.19913,-4.11261 4.60978,-4.75853 2.24417,-1.02756 7.09378,-0.69591 26.85,1.83615 1.2375,0.1586 3.735,0.43426 5.55,0.61258 1.815,0.17832 5.73,0.64304 8.7,1.03271 2.97,0.38967 6.5475,0.79683 7.95,0.9048 1.4025,0.10797 4.035,0.4411 5.85,0.74029 1.815,0.2992 4.8525,0.69975 6.75,0.89013 1.8975,0.19038 4.4625,0.46912 5.7,0.61942 1.2375,0.15031 3.465,0.35681 4.95,0.45889 1.485,0.10209 4.6575,0.44179 7.05,0.75489 2.3925,0.31311 6.18278,0.69677 8.42284,0.85258 2.49133,0.17329 4.52994,0.47429 5.25,0.77516 0.64744,0.27054 2.18966,0.54015 3.42716,0.59913 1.2375,0.059 2.4525,0.18417 2.7,0.27817 0.40106,0.15232 3.39784,0.49263 12.15,1.37973 7.62528,0.77288 18.03714,2.03163 20.04666,2.42355 0.79567,0.15518 3.29762,0.41442 5.55989,0.57609 2.26227,0.16166 4.78377,0.42077 5.60333,0.57579 1.93648,0.36629 7.75713,1.07492 13.79012,1.67889 2.64,0.26429 5.67751,0.61754 6.75001,0.785 2.18041,0.34046 4.51036,0.60024 11.60661,1.29413 2.67115,0.26119 5.91115,0.66935 7.2,0.90702 1.28886,0.23768 4.34912,0.57562 6.80056,0.75099 2.45145,0.17536 5.01645,0.44338 5.7,0.59557 0.68356,0.1522 2.52533,0.42637 4.09283,0.60926 1.5675,0.18289 4.2675,0.53281 6,0.77761 1.7325,0.2448 5.31,0.63823 7.95,0.87429 2.64,0.23606 6.3525,0.62829 8.25,0.87162 1.8975,0.24333 5.205,0.65119 7.35,0.90634 2.145,0.25516 5.4525,0.66144 7.35,0.90284 10.03905,1.2772 13.58634,1.67498 15.04254,1.68682 0.8841,0.007 2.21496,0.14347 2.95746,0.30285 2.35236,0.50495 7.51455,1.15844 11.577,1.46556 2.15985,0.16328 4.25901,0.4231 4.66476,0.57737 0.40578,0.15427 2.54679,0.64525 4.75785,1.09107 2.21103,0.44582 4.75245,1.13447 5.64756,1.53033 0.89511,0.39586 1.79805,0.71975 2.00649,0.71975 0.20847,0 1.10292,0.49342 1.98768,1.09649 3.16479,2.15717 4.28214,3.28184 5.35866,5.39368 1.01436,1.98992 1.04967,2.17184 1.04022,5.35983 -0.0162,5.42099 -1.33956,8.89235 -4.91673,12.89617 -3.17529,3.55399 -5.34093,4.69648 -10.25133,5.40813 -3.00132,0.43497 -11.75301,-2.22369 -12.61368,-3.83189 -0.37866,-0.70752 -3.38001,-2.13704 -5.79651,-2.76084 -2.34573,-0.60553 -4.09731,-0.58229 -9.08286,0.1205 -2.271,0.32014 -5.27661,0.74226 -6.67911,0.93804 -1.4025,0.19579 -3.63,0.395 -4.95,0.4427 -1.32,0.0477 -4.54296,0.2198 -7.16217,0.38246 -6.7035,0.41631 -20.0544,-0.26594 -25.38783,-1.29734 -1.2375,-0.23932 -3.74456,-0.69508 -5.57124,-1.01281 -1.82667,-0.31772 -4.25667,-0.85593 -5.4,-1.19602 -1.14332,-0.34008 -2.95626,-0.81524 -4.02876,-1.0559 -6.0234,-1.35164 -10.34531,-2.60073 -11.34705,-3.27944 -0.60663,-0.41102 -1.57545,-0.83689 -2.15295,-0.94639 -1.70252,-0.32281 -6.63556,-1.9838 -8.16503,-2.74922 -1.72225,-0.8619 -3.25252,-0.9175 -3.95286,-0.14363 -0.76463,0.84491 -1.02131,2.14648 -1.36771,6.93548 -0.17306,2.3925 -0.50988,5.43 -0.7485,6.75 -0.42259,2.33773 -0.83118,5.89116 -1.37979,12 -0.14818,1.65 -0.46882,4.20846 -0.71252,5.68546 -0.2437,1.477 -0.59075,4.2445 -0.77122,6.15 -0.73414,7.75149 -1.5483,13.05261 -2.24177,14.59663 -1.22595,2.72956 -3.23303,3.76286 -8.2818,4.26372 -3.72413,0.36946 -16.78998,0.38379 -23.52881,0.0258 z m 22.94769,-6.86903 c 2.33134,-0.44517 2.67056,-0.90643 3.31816,-4.51202 0.4914,-2.73588 0.50432,-3.17474 0.11559,-3.92646 -0.2407,-0.46548 -0.72574,-1.0005 -1.07785,-1.18895 -0.44176,-0.23642 -4.41604,-0.36899 -12.82189,-0.42769 -16.33786,-0.1141 -26.16414,-0.58579 -40.5317,-1.94565 -3.3825,-0.32015 -8.3775,-0.79397 -11.1,-1.05294 -2.7225,-0.25897 -7.3125,-0.80346 -10.2,-1.20999 -2.8875,-0.40652 -5.9925,-0.742 -6.9,-0.74551 -0.9075,-0.004 -3,-0.19255 -4.65,-0.42008 -17.35331,-2.39304 -24.86018,-3.5472 -31.35,-4.81999 -2.0625,-0.40449 -5.1,-0.94604 -6.75,-1.20344 -1.65,-0.2574 -3.945,-0.72762 -5.1,-1.04493 -1.155,-0.31732 -3.3825,-0.79214 -4.95,-1.05517 -3.47291,-0.58276 -9.34641,-1.94524 -14.46178,-3.35473 -3.37677,-0.93043 -3.93525,-1.00954 -4.89361,-0.69326 -1.43164,0.47248 -1.70566,1.25563 -1.75465,5.01465 -0.0399,3.06272 -0.0388,3.06757 0.9078,4.01699 0.72632,0.72847 1.56744,1.11512 3.6,1.65485 4.76215,1.26456 17.91248,4.24965 19.60224,4.44965 0.9075,0.10741 2.6625,0.44769 3.9,0.75617 1.2375,0.30848 3.33,0.71318 4.65,0.89933 1.32,0.18616 3.48,0.59137 4.8,0.90047 1.32,0.30909 4.02,0.78195 6,1.05079 5.76961,0.78338 11.01876,1.62556 12.1231,1.94504 0.5627,0.16279 2.2502,0.37546 3.75,0.47258 1.49979,0.0971 4.5494,0.43248 6.7769,0.74523 2.2275,0.31274 6.5475,0.78608 9.6,1.05187 3.0525,0.26578 6.30136,0.67615 7.21968,0.91192 0.91833,0.23578 2.23074,0.42868 2.91648,0.42868 0.68573,0 2.22938,0.1985 3.43032,0.44111 1.20094,0.24261 5.42352,0.65182 9.38352,0.90935 3.96,0.25753 8.2125,0.59919 9.45,0.75924 7.81731,1.01103 41.30142,1.8987 44.99769,1.19289 z m 2.97422,-17.19452 c 1.62703,-0.5701 2.06898,-1.47445 2.41541,-4.94253 0.16946,-1.69645 0.50263,-4.19395 0.74039,-5.55 0.23775,-1.35604 0.78532,-5.70554 1.21682,-9.66554 0.4315,-3.96 0.97445,-8.685 1.20657,-10.5 0.23211,-1.815 0.56604,-5.10589 0.74206,-7.31309 0.17602,-2.2072 0.50927,-5.1772 0.74054,-6.6 0.23128,-1.4228 0.58836,-4.09494 0.79351,-5.9381 0.54687,-4.91327 0.38153,-5.07523 -5.87721,-5.75738 -1.65,-0.17983 -4.89,-0.47528 -7.2,-0.65654 -2.31,-0.18126 -4.74,-0.51276 -5.4,-0.73665 -1.5458,-0.52438 -11.15288,-1.77827 -16.2,-2.11438 -1.485,-0.0989 -3.8475,-0.35996 -5.25,-0.58016 -1.4025,-0.2202 -3.495,-0.48307 -4.65,-0.58416 -3.60705,-0.31569 -9.7897,-1.07719 -12.45,-1.53343 -1.4025,-0.24053 -3.31156,-0.43705 -4.24237,-0.43672 -0.93081,3e-4 -3.69831,-0.27435 -6.15,-0.61041 -5.44892,-0.74689 -15.89728,-1.97164 -19.15763,-2.24563 -1.32,-0.11094 -3.0075,-0.33357 -3.75,-0.49473 -1.5083,-0.32741 -4.4904,-0.69356 -10.5,-1.28922 -2.2275,-0.22079 -5.535,-0.60691 -7.35,-0.85805 -1.815,-0.25114 -5.325,-0.67934 -7.8,-0.95157 -2.475,-0.27222 -7.47,-0.87882 -11.1,-1.34799 -3.63,-0.46917 -7.815,-0.93788 -9.3,-1.04157 -1.485,-0.10369 -3.51,-0.31652 -4.5,-0.47295 -4.90273,-0.77469 -8.75292,-1.18727 -11.07956,-1.18727 -2.18721,0 -2.66168,0.0912 -3.18242,0.61198 -1.06672,1.06673 -1.57384,2.93731 -2.07069,7.63802 -0.1744,1.65 -0.45704,4.215 -0.62809,5.7 -0.17106,1.485 -0.43278,3.78 -0.58161,5.1 -0.14883,1.32 -0.54829,4.6275 -0.88768,7.35 -0.33939,2.7225 -0.62308,5.6925 -0.63042,6.6 -0.007,0.9075 -0.20563,2.6625 -0.44065,3.9 -0.23503,1.2375 -0.6332,4.275 -0.88484,6.75 -0.25164,2.475 -0.60362,5.48131 -0.78218,6.68068 -0.60865,4.0884 0.20005,5.0907 5.14785,6.38023 7.58253,1.9762 15.22555,3.78167 18.27029,4.31589 1.4025,0.24608 4.5075,0.85766 6.9,1.35908 2.3925,0.50141 4.8225,0.91316 5.4,0.91499 0.5775,0.002 2.1975,0.27877 3.6,0.61542 1.4025,0.33664 4.7775,0.93692 7.5,1.33394 2.7225,0.39703 5.625,0.85137 6.45,1.00965 0.825,0.15828 3.12,0.51026 5.1,0.78217 1.98,0.27192 4.42106,0.6212 5.42458,0.77618 1.00351,0.15497 2.42191,0.28177 3.15198,0.28177 0.73007,0 1.79901,0.14236 2.37542,0.31635 0.57641,0.17399 3.67006,0.57728 6.87477,0.89618 3.20471,0.31891 6.57971,0.70964 7.5,0.86829 1.59324,0.27467 7.36812,0.81194 16.22325,1.50936 2.2275,0.17544 6.4125,0.52473 9.3,0.7762 10.73562,0.93496 17.49862,1.19452 32.7,1.255 8.0494,0.032 11.54073,-0.0571 12.27191,-0.31331 z M 136.31631,760.23697 c -3.3994,-1.68268 -4.51026,-5.28273 -2.81361,-9.11829 0.6996,-1.58158 2.72726,-2.88477 4.78903,-3.07793 1.86054,-0.17432 4.54661,0.83617 5.62631,2.1166 2.26949,2.69139 2.28582,6.66241 0.0363,8.83953 -1.98806,1.92411 -5.20202,2.44592 -7.63807,1.24009 z m 264.57897,28.49624 c 1.33842,-0.27972 1.85067,-0.59985 3.24006,-2.025 1.3041,-1.33764 1.88625,-2.2735 2.775,-4.46103 1.69641,-4.17543 1.5378,-6.53702 -0.57351,-8.53967 -0.85686,-0.81276 -4.44606,-2.46694 -6.40536,-2.9521 -0.57945,-0.14348 -1.52445,-0.45307 -2.1,-0.68798 -0.57555,-0.2349 -2.05893,-0.5191 -3.29643,-0.63157 -1.2375,-0.11246 -3.8025,-0.46383 -5.7,-0.78082 -3.10593,-0.51887 -6.55374,-0.926 -15.3,-1.80668 -1.5675,-0.15783 -3.81378,-0.48247 -4.9917,-0.72142 -1.17795,-0.23894 -4.21545,-0.58313 -6.75,-0.76486 -2.53458,-0.18173 -6.1608,-0.59706 -8.0583,-0.92296 -1.8975,-0.3259 -5.2725,-0.72544 -7.5,-0.88787 -2.2275,-0.16243 -5.7375,-0.55336 -7.8,-0.86873 -2.0625,-0.31538 -5.91,-0.78896 -8.55,-1.05242 -7.68396,-0.76683 -12.74418,-1.38031 -15,-1.81854 -1.155,-0.22438 -3.3825,-0.48062 -4.95,-0.56942 -1.5675,-0.0888 -5.145,-0.49457 -7.95,-0.9017 -2.805,-0.40714 -6.3825,-0.83013 -7.95,-0.93999 -2.6595,-0.18638 -2.90665,-0.15483 -3.69741,0.47203 -1.16755,0.92556 -1.3266,1.48207 -1.85114,6.47695 -0.49713,4.73387 -0.31978,6.44427 0.7262,7.00407 0.56884,0.30443 2.84942,1.19554 6.9974,2.73416 1.27879,0.47435 2.69909,1.05586 3.15625,1.29227 1.06191,0.54913 15.23718,4.79774 17.6187,5.28067 0.99,0.20075 2.92885,0.68897 4.30856,1.08493 1.3797,0.39596 2.95713,0.71992 3.50538,0.71992 0.54826,0 1.98036,0.20689 3.18245,0.45976 1.2021,0.25287 4.45881,0.72537 7.23714,1.05 8.40758,0.98238 24.60884,0.73996 29.12273,-0.43576 4.45413,-1.16015 16.07682,-1.64434 19.39374,-0.80792 1.97346,0.49764 4.15785,1.54981 6,2.89002 0.7425,0.5402 2.40267,1.53606 3.68925,2.21304 2.57967,1.35736 4.29099,1.5632 7.47099,0.89862 z"
       style="fill:#4f4f4f" />
  </g>
</svg>
