  0
SECTION
  2
HEADER
  9
$ACADVER
  1
AC1014
  9
$HANDSEED
  5
FFFF
  9
$MEASUREMENT
 70
     1
  0
ENDSEC
  0
SECTION
  2
TABLES
  0
TABLE
  2
VPORT
  5
8
330
0
100
AcDbSymbolTable
 70
     4
  0
VPORT
  5
2E
330
8
100
AcDbSymbolTableRecord
100
AcDbViewportTableRecord
  2
*ACTIVE
 70
     0
 10
0.0
 20
0.0
 11
1.0
 21
1.0
 12
210.0
 22
148.5
 13
0.0
 23
0.0
 14
10.0
 24
10.0
 15
10.0
 25
10.0
 16
0.0
 26
0.0
 36
1.0
 17
0.0
 27
0.0
 37
0.0
 40
341.0
 41
1.24
 42
50.0
 43
0.0
 44
0.0
 50
0.0
 51
0.0
 71
     0
 72
   100
 73
     1
 74
     3
 75
     0
 76
     0
 77
     0
 78
     0
  0
ENDTAB
  0
TABLE
  2
LTYPE
  5
5
330
0
100
AcDbSymbolTable
 70
     1
  0
LTYPE
  5
14
330
5
100
AcDbSymbolTableRecord
100
AcDbLinetypeTableRecord
  2
BYBLOCK
 70
     0
  3

 72
    65
 73
     0
 40
0.0
  0
LTYPE
  5
15
330
5
100
AcDbSymbolTableRecord
100
AcDbLinetypeTableRecord
  2
BYLAYER
 70
     0
  3

 72
    65
 73
     0
 40
0.0
  0
LTYPE
  5
16
330
5
100
AcDbSymbolTableRecord
100
AcDbLinetypeTableRecord
  2
CONTINUOUS
 70
     0
  3
Solid line
 72
    65
 73
     0
 40
0.0
  0
ENDTAB
  0
TABLE
  2
LAYER
  5
2
100
AcDbSymbolTable
 70
2
  0
LAYER
  5
50
100
AcDbSymbolTableRecord
100
AcDbLayerTableRecord
  2
0
 70
0
  6
CONTINUOUS
  0
LAYER
  5
51
100
AcDbSymbolTableRecord
100
AcDbLayerTableRecord
  2
Outline-lines
 70
0
  6
CONTINUOUS
  0
ENDTAB
  0
TABLE
  2
STYLE
  5
3
330
0
100
AcDbSymbolTable
 70
     1
  0
STYLE
  5
11
330
3
100
AcDbSymbolTableRecord
100
AcDbTextStyleTableRecord
  2
STANDARD
 70
     0
 40
0.0
 41
1.0
 50
0.0
 71
     0
 42
2.5
  3
txt
  4

  0
ENDTAB
  0
TABLE
  2
VIEW
  5
6
330
0
100
AcDbSymbolTable
 70
     0
  0
ENDTAB
  0
TABLE
  2
UCS
  5
7
330
0
100
AcDbSymbolTable
 70
     0
  0
ENDTAB
  0
TABLE
  2
APPID
  5
9
330
0
100
AcDbSymbolTable
 70
     2
  0
APPID
  5
12
330
9
100
AcDbSymbolTableRecord
100
AcDbRegAppTableRecord
  2
ACAD
 70
     0
  0
ENDTAB
  0
TABLE
  2
DIMSTYLE
  5
A
330
0
100
AcDbSymbolTable
 70
     1
  0
DIMSTYLE
105
27
330
A
100
AcDbSymbolTableRecord
100
AcDbDimStyleTableRecord
  2
ISO-25
 70
     0
  3

  4

  5

  6

  7

 40
1.0
 41
2.5
 42
0.625
 43
3.75
 44
1.25
 45
0.0
 46
0.0
 47
0.0
 48
0.0
140
2.5
141
2.5
142
0.0
143
0.03937007874016
144
1.0
145
0.0
146
1.0
147
0.625
 71
     0
 72
     0
 73
     0
 74
     0
 75
     0
 76
     0
 77
     1
 78
     8
170
     0
171
     3
172
     1
173
     0
174
     0
175
     0
176
     0
177
     0
178
     0
270
     2
271
     2
272
     2
273
     2
274
     3
340
11
275
     0
280
     0
281
     0
282
     0
283
     0
284
     8
285
     0
286
     0
287
     3
288
     0
  0
ENDTAB
  0
TABLE
  2
BLOCK_RECORD
  5
1
330
0
100
AcDbSymbolTable
 70
     1
  0
BLOCK_RECORD
  5
1F
330
1
100
AcDbSymbolTableRecord
100
AcDbBlockTableRecord
  2
*MODEL_SPACE
  0
BLOCK_RECORD
  5
1B
330
1
100
AcDbSymbolTableRecord
100
AcDbBlockTableRecord
  2
*PAPER_SPACE
  0
ENDTAB
  0
ENDSEC
  0
SECTION
  2
BLOCKS
  0
BLOCK
  5
20
330
1F
100
AcDbEntity
  8
0
100
AcDbBlockBegin
  2
*MODEL_SPACE
 70
     0
 10
0.0
 20
0.0
 30
0.0
  3
*MODEL_SPACE
  1

  0
ENDBLK
  5
21
330
1F
100
AcDbEntity
  8
0
100
AcDbBlockEnd
  0
BLOCK
  5
1C
330
1B
100
AcDbEntity
 67
     1
  8
0
100
AcDbBlockBegin
  2
*PAPER_SPACE
  1

  0
ENDBLK
  5
1D
330
1B
100
AcDbEntity
 67
     1
  8
0
100
AcDbBlockEnd
  0
ENDSEC
  0
SECTION
  2
ENTITIES
  0
LINE
  5
100
100
AcDbEntity
  8
Outline-lines
 62
7
100
AcDbLine
 10
48.115152
 20
0.140915
 30
0.0
 11
41.716333
 21
0.323259
 31
0.0
  0
LINE
  5
101
100
AcDbEntity
  8
Outline-lines
 62
7
100
AcDbLine
 10
41.716333
 20
0.323259
 30
0.0
 11
35.558899
 21
0.525556
 31
0.0
  0
LINE
  5
102
100
AcDbEntity
  8
Outline-lines
 62
7
100
AcDbLine
 10
35.558899
 20
0.525556
 30
0.0
 11
29.628849
 21
0.768351
 31
0.0
  0
LINE
  5
103
100
AcDbEntity
  8
Outline-lines
 62
7
100
AcDbLine
 10
29.628849
 20
0.768351
 30
0.0
 11
23.912179
 21
1.072079
 31
0.0
  0
LINE
  5
104
100
AcDbEntity
  8
Outline-lines
 62
7
100
AcDbLine
 10
23.912179
 20
1.072079
 30
0.0
 11
18.394889
 21
1.457312
 31
0.0
  0
LINE
  5
105
100
AcDbEntity
  8
Outline-lines
 62
7
100
AcDbLine
 10
18.394889
 20
1.457312
 30
0.0
 11
13.062976
 21
1.944484
 31
0.0
  0
LINE
  5
106
100
AcDbEntity
  8
Outline-lines
 62
7
100
AcDbLine
 10
13.062976
 20
1.944484
 30
0.0
 11
7.902437
 21
2.554141
 31
0.0
  0
LINE
  5
107
100
AcDbEntity
  8
Outline-lines
 62
7
100
AcDbLine
 10
7.902437
 20
2.554141
 30
0.0
 11
2.899270
 21
3.306743
 31
0.0
  0
LINE
  5
108
100
AcDbEntity
  8
Outline-lines
 62
7
100
AcDbLine
 10
2.899270
 20
3.306743
 30
0.0
 11
2.109643
 21
3.628109
 31
0.0
  0
LINE
  5
109
100
AcDbEntity
  8
Outline-lines
 62
7
100
AcDbLine
 10
2.109643
 20
3.628109
 30
0.0
 11
1.489842
 21
4.042157
 31
0.0
  0
LINE
  5
10a
100
AcDbEntity
  8
Outline-lines
 62
7
100
AcDbLine
 10
1.489842
 20
4.042157
 30
0.0
 11
1.018571
 21
4.527213
 31
0.0
  0
LINE
  5
10b
100
AcDbEntity
  8
Outline-lines
 62
7
100
AcDbLine
 10
1.018571
 20
4.527213
 30
0.0
 11
0.674539
 21
5.061600
 31
0.0
  0
LINE
  5
10c
100
AcDbEntity
  8
Outline-lines
 62
7
100
AcDbLine
 10
0.674539
 20
5.061600
 30
0.0
 11
0.436452
 21
5.623674
 31
0.0
  0
LINE
  5
10d
100
AcDbEntity
  8
Outline-lines
 62
7
100
AcDbLine
 10
0.436452
 20
5.623674
 30
0.0
 11
0.283019
 21
6.191788
 31
0.0
  0
LINE
  5
10e
100
AcDbEntity
  8
Outline-lines
 62
7
100
AcDbLine
 10
0.283019
 20
6.191788
 30
0.0
 11
0.192944
 21
6.744294
 31
0.0
  0
LINE
  5
10f
100
AcDbEntity
  8
Outline-lines
 62
7
100
AcDbLine
 10
0.192944
 20
6.744294
 30
0.0
 11
0.144937
 21
7.259519
 31
0.0
  0
LINE
  5
110
100
AcDbEntity
  8
Outline-lines
 62
7
100
AcDbLine
 10
0.144937
 20
7.259519
 30
0.0
 11
0.144937
 21
44.442855
 31
0.0
  0
LINE
  5
111
100
AcDbEntity
  8
Outline-lines
 62
7
100
AcDbLine
 10
0.144937
 20
44.442855
 30
0.0
 11
0.219769
 21
46.105311
 31
0.0
  0
LINE
  5
112
100
AcDbEntity
  8
Outline-lines
 62
7
100
AcDbLine
 10
0.219769
 20
46.105311
 30
0.0
 11
0.511862
 21
47.585098
 31
0.0
  0
LINE
  5
113
100
AcDbEntity
  8
Outline-lines
 62
7
100
AcDbLine
 10
0.511862
 20
47.585098
 30
0.0
 11
0.987879
 21
48.872012
 31
0.0
  0
LINE
  5
114
100
AcDbEntity
  8
Outline-lines
 62
7
100
AcDbLine
 10
0.987879
 20
48.872012
 30
0.0
 11
1.614482
 21
49.955852
 31
0.0
  0
LINE
  5
115
100
AcDbEntity
  8
Outline-lines
 62
7
100
AcDbLine
 10
1.614482
 20
49.955852
 30
0.0
 11
2.358336
 21
50.826417
 31
0.0
  0
LINE
  5
116
100
AcDbEntity
  8
Outline-lines
 62
7
100
AcDbLine
 10
2.358336
 20
50.826417
 30
0.0
 11
3.186103
 21
51.473511
 31
0.0
  0
LINE
  5
117
100
AcDbEntity
  8
Outline-lines
 62
7
100
AcDbLine
 10
3.186103
 20
51.473511
 30
0.0
 11
4.064447
 21
51.886929
 31
0.0
  0
LINE
  5
118
100
AcDbEntity
  8
Outline-lines
 62
7
100
AcDbLine
 10
4.064447
 20
51.886929
 30
0.0
 11
4.960031
 21
52.056474
 31
0.0
  0
LINE
  5
119
100
AcDbEntity
  8
Outline-lines
 62
7
100
AcDbLine
 10
4.960031
 20
52.056474
 30
0.0
 11
156.590701
 21
52.056474
 31
0.0
  0
LINE
  5
11a
100
AcDbEntity
  8
Outline-lines
 62
7
100
AcDbLine
 10
156.590701
 20
52.056474
 30
0.0
 11
158.563335
 21
51.949605
 31
0.0
  0
LINE
  5
11b
100
AcDbEntity
  8
Outline-lines
 62
7
100
AcDbLine
 10
158.563335
 20
51.949605
 30
0.0
 11
160.338417
 21
51.765738
 31
0.0
  0
LINE
  5
11c
100
AcDbEntity
  8
Outline-lines
 62
7
100
AcDbLine
 10
160.338417
 20
51.765738
 30
0.0
 11
161.925607
 21
51.508134
 31
0.0
  0
LINE
  5
11d
100
AcDbEntity
  8
Outline-lines
 62
7
100
AcDbLine
 10
161.925607
 20
51.508134
 30
0.0
 11
163.334567
 21
51.180067
 31
0.0
  0
LINE
  5
11e
100
AcDbEntity
  8
Outline-lines
 62
7
100
AcDbLine
 10
163.334567
 20
51.180067
 30
0.0
 11
164.574962
 21
50.784806
 31
0.0
  0
LINE
  5
11f
100
AcDbEntity
  8
Outline-lines
 62
7
100
AcDbLine
 10
164.574962
 20
50.784806
 30
0.0
 11
165.656452
 21
50.325614
 31
0.0
  0
LINE
  5
120
100
AcDbEntity
  8
Outline-lines
 62
7
100
AcDbLine
 10
165.656452
 20
50.325614
 30
0.0
 11
166.588697
 21
49.805763
 31
0.0
  0
LINE
  5
121
100
AcDbEntity
  8
Outline-lines
 62
7
100
AcDbLine
 10
166.588697
 20
49.805763
 30
0.0
 11
167.381363
 21
49.228517
 31
0.0
  0
LINE
  5
122
100
AcDbEntity
  8
Outline-lines
 62
7
100
AcDbLine
 10
167.381363
 20
49.228517
 30
0.0
 11
168.044111
 21
48.597150
 31
0.0
  0
LINE
  5
123
100
AcDbEntity
  8
Outline-lines
 62
7
100
AcDbLine
 10
168.044111
 20
48.597150
 30
0.0
 11
168.586604
 21
47.914925
 31
0.0
  0
LINE
  5
124
100
AcDbEntity
  8
Outline-lines
 62
7
100
AcDbLine
 10
168.586604
 20
47.914925
 30
0.0
 11
169.018506
 21
47.185110
 31
0.0
  0
LINE
  5
125
100
AcDbEntity
  8
Outline-lines
 62
7
100
AcDbLine
 10
169.018506
 20
47.185110
 30
0.0
 11
169.349474
 21
46.410977
 31
0.0
  0
LINE
  5
126
100
AcDbEntity
  8
Outline-lines
 62
7
100
AcDbLine
 10
169.349474
 20
46.410977
 30
0.0
 11
169.589173
 21
45.595790
 31
0.0
  0
LINE
  5
127
100
AcDbEntity
  8
Outline-lines
 62
7
100
AcDbLine
 10
169.589173
 20
45.595790
 30
0.0
 11
169.747266
 21
44.742818
 31
0.0
  0
LINE
  5
128
100
AcDbEntity
  8
Outline-lines
 62
7
100
AcDbLine
 10
169.747266
 20
44.742818
 30
0.0
 11
169.833414
 21
43.855331
 31
0.0
  0
LINE
  5
129
100
AcDbEntity
  8
Outline-lines
 62
7
100
AcDbLine
 10
169.833414
 20
43.855331
 30
0.0
 11
169.857290
 21
42.936593
 31
0.0
  0
LINE
  5
12a
100
AcDbEntity
  8
Outline-lines
 62
7
100
AcDbLine
 10
169.857290
 20
42.936593
 30
0.0
 11
169.813182
 21
41.873914
 31
0.0
  0
LINE
  5
12b
100
AcDbEntity
  8
Outline-lines
 62
7
100
AcDbLine
 10
169.813182
 20
41.873914
 30
0.0
 11
169.643769
 21
40.854499
 31
0.0
  0
LINE
  5
12c
100
AcDbEntity
  8
Outline-lines
 62
7
100
AcDbLine
 10
169.643769
 20
40.854499
 30
0.0
 11
169.360489
 21
39.882300
 31
0.0
  0
LINE
  5
12d
100
AcDbEntity
  8
Outline-lines
 62
7
100
AcDbLine
 10
169.360489
 20
39.882300
 30
0.0
 11
168.974764
 21
38.961273
 31
0.0
  0
LINE
  5
12e
100
AcDbEntity
  8
Outline-lines
 62
7
100
AcDbLine
 10
168.974764
 20
38.961273
 30
0.0
 11
168.498035
 21
38.095381
 31
0.0
  0
LINE
  5
12f
100
AcDbEntity
  8
Outline-lines
 62
7
100
AcDbLine
 10
168.498035
 20
38.095381
 30
0.0
 11
167.941727
 21
37.288576
 31
0.0
  0
LINE
  5
130
100
AcDbEntity
  8
Outline-lines
 62
7
100
AcDbLine
 10
167.941727
 20
37.288576
 30
0.0
 11
167.317268
 21
36.544816
 31
0.0
  0
LINE
  5
131
100
AcDbEntity
  8
Outline-lines
 62
7
100
AcDbLine
 10
167.317268
 20
36.544816
 30
0.0
 11
166.636096
 21
35.868055
 31
0.0
  0
LINE
  5
132
100
AcDbEntity
  8
Outline-lines
 62
7
100
AcDbLine
 10
166.636096
 20
35.868055
 30
0.0
 11
165.909636
 21
35.262254
 31
0.0
  0
LINE
  5
133
100
AcDbEntity
  8
Outline-lines
 62
7
100
AcDbLine
 10
165.909636
 20
35.262254
 30
0.0
 11
165.149321
 21
34.731369
 31
0.0
  0
LINE
  5
134
100
AcDbEntity
  8
Outline-lines
 62
7
100
AcDbLine
 10
165.149321
 20
34.731369
 30
0.0
 11
164.366581
 21
34.279356
 31
0.0
  0
LINE
  5
135
100
AcDbEntity
  8
Outline-lines
 62
7
100
AcDbLine
 10
164.366581
 20
34.279356
 30
0.0
 11
163.572848
 21
33.910170
 31
0.0
  0
LINE
  5
136
100
AcDbEntity
  8
Outline-lines
 62
7
100
AcDbLine
 10
163.572848
 20
33.910170
 30
0.0
 11
162.779552
 21
33.627770
 31
0.0
  0
LINE
  5
137
100
AcDbEntity
  8
Outline-lines
 62
7
100
AcDbLine
 10
162.779552
 20
33.627770
 30
0.0
 11
161.998127
 21
33.436110
 31
0.0
  0
LINE
  5
138
100
AcDbEntity
  8
Outline-lines
 62
7
100
AcDbLine
 10
161.998127
 20
33.436110
 30
0.0
 11
161.239996
 21
33.339150
 31
0.0
  0
LINE
  5
139
100
AcDbEntity
  8
Outline-lines
 62
7
100
AcDbLine
 10
161.239996
 20
33.339150
 30
0.0
 11
160.516598
 21
33.340843
 31
0.0
  0
LINE
  5
13a
100
AcDbEntity
  8
Outline-lines
 62
7
100
AcDbLine
 10
160.516598
 20
33.340843
 30
0.0
 11
159.374276
 21
33.397400
 31
0.0
  0
LINE
  5
13b
100
AcDbEntity
  8
Outline-lines
 62
7
100
AcDbLine
 10
159.374276
 20
33.397400
 30
0.0
 11
158.370818
 21
33.561812
 31
0.0
  0
LINE
  5
13c
100
AcDbEntity
  8
Outline-lines
 62
7
100
AcDbLine
 10
158.370818
 20
33.561812
 30
0.0
 11
157.481750
 21
33.812631
 31
0.0
  0
LINE
  5
13d
100
AcDbEntity
  8
Outline-lines
 62
7
100
AcDbLine
 10
157.481750
 20
33.812631
 30
0.0
 11
156.682607
 21
34.128412
 31
0.0
  0
LINE
  5
13e
100
AcDbEntity
  8
Outline-lines
 62
7
100
AcDbLine
 10
156.682607
 20
34.128412
 30
0.0
 11
155.948922
 21
34.487712
 31
0.0
  0
LINE
  5
13f
100
AcDbEntity
  8
Outline-lines
 62
7
100
AcDbLine
 10
155.948922
 20
34.487712
 30
0.0
 11
155.256219
 21
34.869085
 31
0.0
  0
LINE
  5
140
100
AcDbEntity
  8
Outline-lines
 62
7
100
AcDbLine
 10
155.256219
 20
34.869085
 30
0.0
 11
154.580034
 21
35.251084
 31
0.0
  0
LINE
  5
141
100
AcDbEntity
  8
Outline-lines
 62
7
100
AcDbLine
 10
154.580034
 20
35.251084
 30
0.0
 11
153.895896
 21
35.612260
 31
0.0
  0
LINE
  5
142
100
AcDbEntity
  8
Outline-lines
 62
7
100
AcDbLine
 10
153.895896
 20
35.612260
 30
0.0
 11
153.179334
 21
35.931174
 31
0.0
  0
LINE
  5
143
100
AcDbEntity
  8
Outline-lines
 62
7
100
AcDbLine
 10
153.179334
 20
35.931174
 30
0.0
 11
152.405882
 21
36.186374
 31
0.0
  0
LINE
  5
144
100
AcDbEntity
  8
Outline-lines
 62
7
100
AcDbLine
 10
152.405882
 20
36.186374
 30
0.0
 11
151.551070
 21
36.356418
 31
0.0
  0
LINE
  5
145
100
AcDbEntity
  8
Outline-lines
 62
7
100
AcDbLine
 10
151.551070
 20
36.356418
 30
0.0
 11
150.590425
 21
36.419862
 31
0.0
  0
LINE
  5
146
100
AcDbEntity
  8
Outline-lines
 62
7
100
AcDbLine
 10
150.590425
 20
36.419862
 30
0.0
 11
149.499484
 21
36.355256
 31
0.0
  0
LINE
  5
147
100
AcDbEntity
  8
Outline-lines
 62
7
100
AcDbLine
 10
149.499484
 20
36.355256
 30
0.0
 11
148.253772
 21
36.141156
 31
0.0
  0
LINE
  5
148
100
AcDbEntity
  8
Outline-lines
 62
7
100
AcDbLine
 10
148.253772
 20
36.141156
 30
0.0
 11
146.828823
 21
35.756115
 31
0.0
  0
LINE
  5
149
100
AcDbEntity
  8
Outline-lines
 62
7
100
AcDbLine
 10
146.828823
 20
35.756115
 30
0.0
 11
145.200167
 21
35.178691
 31
0.0
  0
LINE
  5
14a
100
AcDbEntity
  8
Outline-lines
 62
7
100
AcDbLine
 10
145.200167
 20
35.178691
 30
0.0
 11
143.010865
 21
34.532758
 31
0.0
  0
LINE
  5
14b
100
AcDbEntity
  8
Outline-lines
 62
7
100
AcDbLine
 10
143.010865
 20
34.532758
 30
0.0
 11
140.774987
 21
33.937113
 31
0.0
  0
LINE
  5
14c
100
AcDbEntity
  8
Outline-lines
 62
7
100
AcDbLine
 10
140.774987
 20
33.937113
 30
0.0
 11
138.483681
 21
33.400443
 31
0.0
  0
LINE
  5
14d
100
AcDbEntity
  8
Outline-lines
 62
7
100
AcDbLine
 10
138.483681
 20
33.400443
 30
0.0
 11
136.128085
 21
32.931429
 31
0.0
  0
LINE
  5
14e
100
AcDbEntity
  8
Outline-lines
 62
7
100
AcDbLine
 10
136.128085
 20
32.931429
 30
0.0
 11
133.699343
 21
32.538756
 31
0.0
  0
LINE
  5
14f
100
AcDbEntity
  8
Outline-lines
 62
7
100
AcDbLine
 10
133.699343
 20
32.538756
 30
0.0
 11
131.188601
 21
32.231117
 31
0.0
  0
LINE
  5
150
100
AcDbEntity
  8
Outline-lines
 62
7
100
AcDbLine
 10
131.188601
 20
32.231117
 30
0.0
 11
128.587000
 21
32.017190
 31
0.0
  0
LINE
  5
151
100
AcDbEntity
  8
Outline-lines
 62
7
100
AcDbLine
 10
128.587000
 20
32.017190
 30
0.0
 11
125.885682
 21
31.905664
 31
0.0
  0
LINE
  5
152
100
AcDbEntity
  8
Outline-lines
 62
7
100
AcDbLine
 10
125.885682
 20
31.905664
 30
0.0
 11
123.075790
 21
31.905099
 31
0.0
  0
LINE
  5
153
100
AcDbEntity
  8
Outline-lines
 62
7
100
AcDbLine
 10
123.075790
 20
31.905099
 30
0.0
 11
120.148469
 21
32.024429
 31
0.0
  0
LINE
  5
154
100
AcDbEntity
  8
Outline-lines
 62
7
100
AcDbLine
 10
120.148469
 20
32.024429
 30
0.0
 11
117.094861
 21
32.272214
 31
0.0
  0
LINE
  5
155
100
AcDbEntity
  8
Outline-lines
 62
7
100
AcDbLine
 10
117.094861
 20
32.272214
 30
0.0
 11
113.906111
 21
32.657145
 31
0.0
  0
LINE
  5
156
100
AcDbEntity
  8
Outline-lines
 62
7
100
AcDbLine
 10
113.906111
 20
32.657145
 30
0.0
 11
110.573360
 21
33.187901
 31
0.0
  0
LINE
  5
157
100
AcDbEntity
  8
Outline-lines
 62
7
100
AcDbLine
 10
110.573360
 20
33.187901
 30
0.0
 11
107.087749
 21
33.873168
 31
0.0
  0
LINE
  5
158
100
AcDbEntity
  8
Outline-lines
 62
7
100
AcDbLine
 10
107.087749
 20
33.873168
 30
0.0
 11
103.440425
 21
34.721635
 31
0.0
  0
LINE
  5
159
100
AcDbEntity
  8
Outline-lines
 62
7
100
AcDbLine
 10
103.440425
 20
34.721635
 30
0.0
 11
99.622528
 21
35.741987
 31
0.0
  0
LINE
  5
15a
100
AcDbEntity
  8
Outline-lines
 62
7
100
AcDbLine
 10
99.622528
 20
35.741987
 30
0.0
 11
98.759543
 21
35.954291
 31
0.0
  0
LINE
  5
15b
100
AcDbEntity
  8
Outline-lines
 62
7
100
AcDbLine
 10
98.759543
 20
35.954291
 30
0.0
 11
98.181566
 21
35.846194
 31
0.0
  0
LINE
  5
15c
100
AcDbEntity
  8
Outline-lines
 62
7
100
AcDbLine
 10
98.181566
 20
35.846194
 30
0.0
 11
97.835418
 21
35.493702
 31
0.0
  0
LINE
  5
15d
100
AcDbEntity
  8
Outline-lines
 62
7
100
AcDbLine
 10
97.835418
 20
35.493702
 30
0.0
 11
97.667922
 21
34.972815
 31
0.0
  0
LINE
  5
15e
100
AcDbEntity
  8
Outline-lines
 62
7
100
AcDbLine
 10
97.667922
 20
34.972815
 30
0.0
 11
97.625899
 21
34.359535
 31
0.0
  0
LINE
  5
15f
100
AcDbEntity
  8
Outline-lines
 62
7
100
AcDbLine
 10
97.625899
 20
34.359535
 30
0.0
 11
97.656176
 21
33.729866
 31
0.0
  0
LINE
  5
160
100
AcDbEntity
  8
Outline-lines
 62
7
100
AcDbLine
 10
97.656176
 20
33.729866
 30
0.0
 11
97.705573
 21
33.159809
 31
0.0
  0
LINE
  5
161
100
AcDbEntity
  8
Outline-lines
 62
7
100
AcDbLine
 10
97.705573
 20
33.159809
 30
0.0
 11
97.720926
 21
32.725364
 31
0.0
  0
LINE
  5
162
100
AcDbEntity
  8
Outline-lines
 62
7
100
AcDbLine
 10
97.720926
 20
32.725364
 30
0.0
 11
97.720926
 21
6.723678
 31
0.0
  0
LINE
  5
163
100
AcDbEntity
  8
Outline-lines
 62
7
100
AcDbLine
 10
97.720926
 20
6.723678
 30
0.0
 11
97.656486
 21
5.710500
 31
0.0
  0
LINE
  5
164
100
AcDbEntity
  8
Outline-lines
 62
7
100
AcDbLine
 10
97.656486
 20
5.710500
 30
0.0
 11
97.414865
 21
4.902131
 31
0.0
  0
LINE
  5
165
100
AcDbEntity
  8
Outline-lines
 62
7
100
AcDbLine
 10
97.414865
 20
4.902131
 30
0.0
 11
97.001652
 21
4.269840
 31
0.0
  0
LINE
  5
166
100
AcDbEntity
  8
Outline-lines
 62
7
100
AcDbLine
 10
97.001652
 20
4.269840
 30
0.0
 11
96.422450
 21
3.784926
 31
0.0
  0
LINE
  5
167
100
AcDbEntity
  8
Outline-lines
 62
7
100
AcDbLine
 10
96.422450
 20
3.784926
 30
0.0
 11
95.682858
 21
3.418658
 31
0.0
  0
LINE
  5
168
100
AcDbEntity
  8
Outline-lines
 62
7
100
AcDbLine
 10
95.682858
 20
3.418658
 30
0.0
 11
94.788471
 21
3.142278
 31
0.0
  0
LINE
  5
169
100
AcDbEntity
  8
Outline-lines
 62
7
100
AcDbLine
 10
94.788471
 20
3.142278
 30
0.0
 11
93.744889
 21
2.927083
 31
0.0
  0
LINE
  5
16a
100
AcDbEntity
  8
Outline-lines
 62
7
100
AcDbLine
 10
93.744889
 20
2.927083
 30
0.0
 11
92.557707
 21
2.744316
 31
0.0
  0
LINE
  5
16b
100
AcDbEntity
  8
Outline-lines
 62
7
100
AcDbLine
 10
92.557707
 20
2.744316
 30
0.0
 11
87.110784
 21
2.059871
 31
0.0
  0
LINE
  5
16c
100
AcDbEntity
  8
Outline-lines
 62
7
100
AcDbLine
 10
87.110784
 20
2.059871
 30
0.0
 11
81.623498
 21
1.509086
 31
0.0
  0
LINE
  5
16d
100
AcDbEntity
  8
Outline-lines
 62
7
100
AcDbLine
 10
81.623498
 20
1.509086
 30
0.0
 11
76.100542
 21
1.076467
 31
0.0
  0
LINE
  5
16e
100
AcDbEntity
  8
Outline-lines
 62
7
100
AcDbLine
 10
76.100542
 20
1.076467
 30
0.0
 11
70.546618
 21
0.746437
 31
0.0
  0
LINE
  5
16f
100
AcDbEntity
  8
Outline-lines
 62
7
100
AcDbLine
 10
70.546618
 20
0.746437
 30
0.0
 11
64.966418
 21
0.503415
 31
0.0
  0
LINE
  5
170
100
AcDbEntity
  8
Outline-lines
 62
7
100
AcDbLine
 10
64.966418
 20
0.503415
 30
0.0
 11
59.364646
 21
0.331824
 31
0.0
  0
LINE
  5
171
100
AcDbEntity
  8
Outline-lines
 62
7
100
AcDbLine
 10
59.364646
 20
0.331824
 30
0.0
 11
53.745999
 21
0.216141
 31
0.0
  0
LINE
  5
172
100
AcDbEntity
  8
Outline-lines
 62
7
100
AcDbLine
 10
53.745999
 20
0.216141
 30
0.0
 11
48.115152
 21
0.140915
 31
0.0
  0
ENDSEC
  0
SECTION
  2
OBJECTS
  0
DICTIONARY
  5
C
330
0
100
AcDbDictionary
  3
ACAD_GROUP
350
D
  3
ACAD_MLINESTYLE
350
17
  0
DICTIONARY
  5
D
330
C
100
AcDbDictionary
  0
DICTIONARY
  5
1A
330
C
100
AcDbDictionary
  0
DICTIONARY
  5
17
330
C
100
AcDbDictionary
  3
STANDARD
350
18
  0
DICTIONARY
  5
19
330
C
100
AcDbDictionary
  0
ENDSEC
  0
EOF
